<mxfile host="65bd71144e">
    <diagram id="0XbAFmcMDHAAoCzRodZV" name="Page-1">
        <mxGraphModel dx="1814" dy="883" grid="1" gridSize="10" guides="1" tooltips="1" connect="1" arrows="1" fold="1" page="1" pageScale="1" pageWidth="827" pageHeight="1169" math="0" shadow="0">
            <root>
                <mxCell id="0"/>
                <mxCell id="1" parent="0"/>
                <mxCell id="28" value="API" style="rounded=1;whiteSpace=wrap;html=1;" parent="1" vertex="1">
                    <mxGeometry x="330" y="680" width="180" height="80" as="geometry"/>
                </mxCell>
                <mxCell id="29" value="xyz12xy" style="sketch=0;html=1;dashed=0;whitespace=wrap;fillColor=#2875E2;strokeColor=#ffffff;points=[[0.005,0.63,0],[0.1,0.2,0],[0.9,0.2,0],[0.5,0,0],[0.995,0.63,0],[0.72,0.99,0],[0.5,1,0],[0.28,0.99,0]];verticalLabelPosition=bottom;align=center;verticalAlign=top;shape=mxgraph.kubernetes.icon;prIcon=pod;fontSize=10;" parent="1" vertex="1">
                    <mxGeometry x="345" y="701" width="40" height="38" as="geometry"/>
                </mxCell>
                <mxCell id="30" value="API" style="rounded=1;whiteSpace=wrap;html=1;" parent="1" vertex="1">
                    <mxGeometry x="330" y="460" width="180" height="80" as="geometry"/>
                </mxCell>
                <mxCell id="32" value="axb45cx" style="sketch=0;html=1;dashed=0;whitespace=wrap;fillColor=#2875E2;strokeColor=#ffffff;points=[[0.005,0.63,0],[0.1,0.2,0],[0.9,0.2,0],[0.5,0,0],[0.995,0.63,0],[0.72,0.99,0],[0.5,1,0],[0.28,0.99,0]];verticalLabelPosition=bottom;align=center;verticalAlign=top;shape=mxgraph.kubernetes.icon;prIcon=pod;fontSize=10;" parent="1" vertex="1">
                    <mxGeometry x="340" y="477" width="40" height="38" as="geometry"/>
                </mxCell>
                <mxCell id="38" value="LB" style="outlineConnect=0;dashed=0;verticalLabelPosition=bottom;verticalAlign=top;align=center;html=1;shape=mxgraph.aws3.classic_load_balancer;fillColor=#F58534;gradientColor=none;" parent="1" vertex="1">
                    <mxGeometry x="240" y="552" width="30" height="33" as="geometry"/>
                </mxCell>
                <mxCell id="40" value="" style="endArrow=classic;html=1;exitX=1;exitY=0.5;exitDx=0;exitDy=0;entryX=0;entryY=0.5;entryDx=0;entryDy=0;" parent="1" target="28" edge="1">
                    <mxGeometry width="50" height="50" relative="1" as="geometry">
                        <mxPoint x="219.9999999999999" y="615" as="sourcePoint"/>
                        <mxPoint x="230" y="671" as="targetPoint"/>
                        <Array as="points">
                            <mxPoint x="290" y="615"/>
                            <mxPoint x="290" y="720"/>
                        </Array>
                    </mxGeometry>
                </mxCell>
                <mxCell id="42" value="Worker" style="rounded=1;whiteSpace=wrap;html=1;fontSize=11;" parent="1" vertex="1">
                    <mxGeometry x="570" y="460" width="180" height="80" as="geometry"/>
                </mxCell>
                <mxCell id="43" value="Worker" style="rounded=1;whiteSpace=wrap;html=1;fontSize=11;" parent="1" vertex="1">
                    <mxGeometry x="560" y="680" width="180" height="81" as="geometry"/>
                </mxCell>
                <mxCell id="44" value="worker-1" style="sketch=0;html=1;dashed=0;whitespace=wrap;fillColor=#2875E2;strokeColor=#ffffff;points=[[0.005,0.63,0],[0.1,0.2,0],[0.9,0.2,0],[0.5,0,0],[0.995,0.63,0],[0.72,0.99,0],[0.5,1,0],[0.28,0.99,0]];verticalLabelPosition=bottom;align=center;verticalAlign=top;shape=mxgraph.kubernetes.icon;prIcon=pod;fontSize=10;" parent="1" vertex="1">
                    <mxGeometry x="570.0000000000001" y="701" width="40" height="38" as="geometry"/>
                </mxCell>
                <mxCell id="45" value="worker-0" style="sketch=0;html=1;dashed=0;whitespace=wrap;fillColor=#2875E2;strokeColor=#ffffff;points=[[0.005,0.63,0],[0.1,0.2,0],[0.9,0.2,0],[0.5,0,0],[0.995,0.63,0],[0.72,0.99,0],[0.5,1,0],[0.28,0.99,0]];verticalLabelPosition=bottom;align=center;verticalAlign=top;shape=mxgraph.kubernetes.icon;prIcon=pod;fontSize=10;" parent="1" vertex="1">
                    <mxGeometry x="580" y="477" width="40" height="38" as="geometry"/>
                </mxCell>
                <mxCell id="72" value="Redis PV" style="rounded=1;whiteSpace=wrap;html=1;fontSize=12;dashed=1;" parent="1" vertex="1">
                    <mxGeometry x="447.4999999999999" y="30" width="180" height="60" as="geometry"/>
                </mxCell>
                <mxCell id="73" value="" style="shadow=0;dashed=1;html=1;strokeColor=none;fillColor=#4495D1;labelPosition=center;verticalLabelPosition=bottom;verticalAlign=top;align=center;outlineConnect=0;shape=mxgraph.veeam.local_disk;fontSize=12;" parent="1" vertex="1">
                    <mxGeometry x="457.4999999999999" y="46.599999999999994" width="30" height="26.8" as="geometry"/>
                </mxCell>
                <mxCell id="74" value="Redis PVC" style="rounded=1;whiteSpace=wrap;html=1;fontSize=12;dashed=1;" parent="1" vertex="1">
                    <mxGeometry x="447.4999999999999" y="130" width="180" height="60" as="geometry"/>
                </mxCell>
                <mxCell id="76" value="" style="endArrow=classic;startArrow=classic;html=1;fontSize=12;entryX=0.5;entryY=1;entryDx=0;entryDy=0;exitX=0.5;exitY=0;exitDx=0;exitDy=0;dashed=1;" parent="1" source="133" target="74" edge="1">
                    <mxGeometry width="50" height="50" relative="1" as="geometry">
                        <mxPoint x="537.5" y="250" as="sourcePoint"/>
                        <mxPoint x="670.77" y="260" as="targetPoint"/>
                    </mxGeometry>
                </mxCell>
                <mxCell id="78" value="" style="endArrow=classic;startArrow=classic;html=1;fontSize=12;entryX=0.5;entryY=1;entryDx=0;entryDy=0;exitX=0.5;exitY=0;exitDx=0;exitDy=0;dashed=1;" parent="1" source="74" target="72" edge="1">
                    <mxGeometry width="50" height="50" relative="1" as="geometry">
                        <mxPoint x="562.77" y="110" as="sourcePoint"/>
                        <mxPoint x="610.77" y="100" as="targetPoint"/>
                    </mxGeometry>
                </mxCell>
                <mxCell id="84" value="" style="endArrow=classic;startArrow=classic;html=1;fontSize=12;entryX=1;entryY=0.5;entryDx=0;entryDy=0;exitX=0.5;exitY=0;exitDx=0;exitDy=0;" parent="1" source="42" target="133" edge="1">
                    <mxGeometry width="50" height="50" relative="1" as="geometry">
                        <mxPoint x="718.27" y="460" as="sourcePoint"/>
                        <mxPoint x="650" y="388" as="targetPoint"/>
                        <Array as="points">
                            <mxPoint x="660" y="309"/>
                        </Array>
                    </mxGeometry>
                </mxCell>
                <mxCell id="89" value="" style="endArrow=classic;startArrow=classic;html=1;fontSize=12;exitX=0.5;exitY=0;exitDx=0;exitDy=0;entryX=0;entryY=0.5;entryDx=0;entryDy=0;" parent="1" source="30" target="133" edge="1">
                    <mxGeometry width="50" height="50" relative="1" as="geometry">
                        <mxPoint x="430" y="440" as="sourcePoint"/>
                        <mxPoint x="605" y="351" as="targetPoint"/>
                        <Array as="points">
                            <mxPoint x="420" y="310"/>
                        </Array>
                    </mxGeometry>
                </mxCell>
                <mxCell id="92" value="" style="shadow=0;dashed=1;html=1;strokeColor=none;fillColor=#4495D1;labelPosition=center;verticalLabelPosition=bottom;verticalAlign=top;align=center;outlineConnect=0;shape=mxgraph.veeam.checked_doc;fontSize=12;" parent="1" vertex="1">
                    <mxGeometry x="457.5" y="145" width="30" height="30" as="geometry"/>
                </mxCell>
                <mxCell id="97" value="" style="aspect=fixed;html=1;points=[];align=center;image;fontSize=12;image=img/lib/azure2/general/Scale.svg;dashed=1;fillColor=none;" parent="1" vertex="1">
                    <mxGeometry x="355" y="834" width="30" height="30" as="geometry"/>
                </mxCell>
                <mxCell id="98" value="HPA (1:N)" style="rounded=1;whiteSpace=wrap;html=1;fontSize=12;fillColor=none;dashed=1;" parent="1" vertex="1">
                    <mxGeometry x="330" y="819" width="180" height="60" as="geometry"/>
                </mxCell>
                <mxCell id="99" value="" style="aspect=fixed;html=1;points=[];align=center;image;fontSize=12;image=img/lib/azure2/general/Scale.svg;dashed=1;fillColor=none;" parent="1" vertex="1">
                    <mxGeometry x="585.0000000000001" y="834" width="30" height="30" as="geometry"/>
                </mxCell>
                <mxCell id="100" value="HPA (1:N)" style="rounded=1;whiteSpace=wrap;html=1;dashed=1;fontSize=12;fillColor=none;" parent="1" vertex="1">
                    <mxGeometry x="560" y="819" width="180" height="60" as="geometry"/>
                </mxCell>
                <mxCell id="101" value="" style="endArrow=classic;html=1;fontSize=12;entryX=0.5;entryY=1;entryDx=0;entryDy=0;exitX=0.5;exitY=0;exitDx=0;exitDy=0;dashed=1;" parent="1" source="98" target="28" edge="1">
                    <mxGeometry width="50" height="50" relative="1" as="geometry">
                        <mxPoint x="350" y="969" as="sourcePoint"/>
                        <mxPoint x="400" y="919" as="targetPoint"/>
                    </mxGeometry>
                </mxCell>
                <mxCell id="102" value="" style="endArrow=classic;html=1;fontSize=12;entryX=0.5;entryY=1;entryDx=0;entryDy=0;exitX=0.5;exitY=0;exitDx=0;exitDy=0;dashed=1;" parent="1" source="100" target="43" edge="1">
                    <mxGeometry width="50" height="50" relative="1" as="geometry">
                        <mxPoint x="468.27" y="959" as="sourcePoint"/>
                        <mxPoint x="518.27" y="909" as="targetPoint"/>
                    </mxGeometry>
                </mxCell>
                <mxCell id="105" value="secrets" style="rounded=1;whiteSpace=wrap;html=1;dashed=1;fontSize=12;fillColor=none;" parent="1" vertex="1">
                    <mxGeometry x="460" y="585" width="155" height="60" as="geometry"/>
                </mxCell>
                <mxCell id="106" value="" style="sketch=0;html=1;dashed=0;whitespace=wrap;fillColor=#2875E2;strokeColor=#ffffff;points=[[0.005,0.63,0],[0.1,0.2,0],[0.9,0.2,0],[0.5,0,0],[0.995,0.63,0],[0.72,0.99,0],[0.5,1,0],[0.28,0.99,0]];verticalLabelPosition=bottom;align=center;verticalAlign=top;shape=mxgraph.kubernetes.icon;prIcon=secret;fontSize=12;" parent="1" vertex="1">
                    <mxGeometry x="475" y="602" width="30" height="27" as="geometry"/>
                </mxCell>
                <mxCell id="111" value="" style="endArrow=classic;html=1;dashed=1;fontSize=12;exitX=0.5;exitY=1;exitDx=0;exitDy=0;entryX=1;entryY=0.5;entryDx=0;entryDy=0;" parent="1" source="42" target="105" edge="1">
                    <mxGeometry width="50" height="50" relative="1" as="geometry">
                        <mxPoint x="700" y="620" as="sourcePoint"/>
                        <mxPoint x="750" y="570" as="targetPoint"/>
                        <Array as="points">
                            <mxPoint x="660" y="615"/>
                        </Array>
                    </mxGeometry>
                </mxCell>
                <mxCell id="112" value="" style="endArrow=classic;html=1;dashed=1;fontSize=12;exitX=0.5;exitY=1;exitDx=0;exitDy=0;entryX=0;entryY=0.5;entryDx=0;entryDy=0;" parent="1" source="30" target="105" edge="1">
                    <mxGeometry width="50" height="50" relative="1" as="geometry">
                        <mxPoint x="370" y="620" as="sourcePoint"/>
                        <mxPoint x="420" y="570" as="targetPoint"/>
                        <Array as="points">
                            <mxPoint x="420" y="615"/>
                        </Array>
                    </mxGeometry>
                </mxCell>
                <mxCell id="113" value="" style="endArrow=classic;html=1;fontSize=12;exitX=1;exitY=0.5;exitDx=0;exitDy=0;entryX=0;entryY=0.5;entryDx=0;entryDy=0;" parent="1" target="30" edge="1">
                    <mxGeometry width="50" height="50" relative="1" as="geometry">
                        <mxPoint x="219.9999999999999" y="615" as="sourcePoint"/>
                        <mxPoint x="310" y="420" as="targetPoint"/>
                        <Array as="points">
                            <mxPoint x="290" y="615"/>
                            <mxPoint x="290" y="503"/>
                        </Array>
                    </mxGeometry>
                </mxCell>
                <mxCell id="124" value="Ingress" style="rounded=1;whiteSpace=wrap;html=1;" parent="1" vertex="1">
                    <mxGeometry x="70" y="585" width="150" height="60" as="geometry"/>
                </mxCell>
                <mxCell id="127" value="" style="shape=image;verticalLabelPosition=bottom;labelBackgroundColor=default;verticalAlign=top;aspect=fixed;imageAspect=0;image=data:image/png,iVBORw0KGgoAAAANSUhEUgAAA4AAAAQACAYAAACwIzcBAAAAAXNSR0IArs4c6QAAIABJREFUeAHsnQm4VVXd/38giPNspulbKpZRoXDOWvteBrmaQ5TlUGqlqWVmaqal/dPSIi1zKNF779lrHwZB1FRQUXCeRxxxnmcRFESRGe64/q4DJV6mO5xh77U/53ne5xW63LPXZ3/Wb/2+exThAwEIQAACEPCdgJVuks/0lJz6ooRqb8mp70jYv0ouql5fxh+yju/DZ3wQgAAEIAABCEAAAhCAAAT8J+CCnwt59QO+LJH+o4R6mhjdKkZbMbpZjLpDwuxQGV6zWSEg+k+EEUIAAhCAAAQgAAEIQAACEPCMgAt+uZqNpF5/VfL6DxIGry0LfIXg58Lfiv+3RIyaLEbvL2bAF2R8n3U9o8FwIAABCEAAAhCAAAQgAAEIeEjABb/aYBMxfb8pkTpNjH5ejG5qE/hWDH8r/vd8idR1klPfl9rBW3NpqId+MCQIQAACEIAABCAAAQhAwAMCy+7x21RMtp/k1ali9FNidGM7g9+KIdCKUe+LUZdILthTLg62kWE1PTwgxBAgAAEIQAACEIAABCAAAQh4QCCf2UDqM/2XBb/gMTG6oXPB73OXhbog+K5EarjkMvtKPrMtZwQ9cIUhQAACEIAABCAAAQhAAAIJJVA7tJeYAd+UfPZXYoJ7ixf8VgqCb0peX1R4WIx7iihPDU2oMGw2BCAAAQhAAAIQgAAEIJA8Ai6AjdQ7SqSOkEhPEqPnF+eMX9vg1/bPwWvLzgiq78tId2modE8ePLYYAhCAAAQgAAEIQAACEIBAUgjU6y1lhDpcomCMRPq98gS/lYLgy4V7BOuzBxQeFuPuP+QDAQhAAAIQgAAEIAABCEAAAkUiUNu7V+HpnJGuFVN4l1+bB7e0DWnl+HPwkkSqXqLgu4V3DRZpqPwaCEAAAhCAAAQgAAEIQAAC6SVgsgPFBGeLCZ6tzBm/tYbJpyTMnCv1mSC9O4mRQwACEIAABCAAAQhAAAIQ6AqBXHXv5a90uE+MXhTT8PffM5FLxOi7xVT9VuoHfLkrw+bfQgACEIAABCAAAQhAAAIQSA+B2n5bi1FHi9HXi1EfitGtMQ9//w2Bbjs/kEhPkFD/VPKZTdOz0xgpBCAAAQhAAAIQgAAEIACBjhAY1mddyWX2XPaAl+Ctzr/Ifa2XbP43sJXq/zeJCV4Xo0dLpPYQd/8iHwhAAAIQgAAEIAABCEAAAhBYTqB+t2+IyZ4vkX46AZd7tjc4Lhajnyjcv5iv3pV9DQEIQAACEIAABCAAAQhAIN0EzIAvSKRPEqMfkUh9kqDLPdsbAlvE6I8L9we6F9a7F8nzgQAEIAABCEAAAhCAAAQgkCoCF1Wvv/y1DreL0bPF6OaE3OfX3uDX9ucaxehZEumJhctc85meqdrfDBYCEIAABCAAAQhAAAIQSCGB8YesI1G/PmJ0uPwBLy4YtQ1LPv+5QUL9jkQqJyP0V1NoAEOGAAQgAAEIQAACEIAABFJBIBy0ueTV6RLq6WLU0pQFvxVDbeuy8avXJB+cIqOqt0jF/meQEIAABCAAAQhAAAIQgIDnBKx0kzE160ku+yMxwXNidFOKg9+KIdD9t3ttRJMY9ZiY/vuLuyyWDwQgAAEIQAACEIAABCAAgcQR+G/wC/tnxKjrCX3tusz1Sqnt16cQmBO3w9lgCEAAAhCAAAQgAAEIQCCdBAoPePlGbxmhzpNQzyP8tSv8LTs7GOr5YrJ/LzwtdHyfddMpEKOGAAQgAAEIQAACEIAABOJPwF3qaaq/JPnsiRLpVz18pUPbSzhL+Gf1ppjsjws8h9X0iP/OZwshAAEIQAACEIAABCAAgXQQGCbdC2esjDpUjLpNjF7CWb8OnPVb/VNQG8WoOyTK7iMjg23EceYDAQhAAAIQgAAEIAABCECgYgTyma2kLjtQwqxZ/sLzEp4VK0qoSt72ReoTMbquwHl4zWYV29d8MQQgAAEIQAACEIAABCCQUgK5mo3EZPuJyQ6TKHCXe/r+IvdKB8dmCYOXJApOk7B/XxnXd8OUmsewIQABCEAAAhCAAAQgAIGyEajt3Uvy1btKXh0vkb6fyz3LfFYy0gsl0neJqTpWomAXyWd6lm3f80UQgAAEIAABCEAAAhCAQEoIuPvP3ANeInWERHqCGP0R9/mVOfx97l5B9aEYfaWY4IeSz2zL/YEpmYcMEwIQgAAEIAABCEAAAiUnMHrgxlKn9xOTrROj3yH4VTL4tflud/ltpC6W+uw+4vYTHwhAAAIQgAAEIAABCEAAAp0i4C4vLNznF5wtRj8hRjcS/toEsM+dlavY/9YoJnhMouAvEvbPSO3QXp3a3/wjCEAAAhCAAAQgAAEIQCCFBKx0k5HB9pJXp4rRt4m77yweQafSD2KJ+/fPFRPcIUYdLzm1A5eFpnDuMmQIQAACEIAABCAAAQh0iMCFfTeUEepwMepaMXoWwa9iZ/W6EDbVuxLqKyXUh0htsEmH9j8/DAEIQAACEIAABCAAAQikhIDpv5eE6lIxwWsEvyQGv89ts7ss9CWJVF7C/oNTYjDDhAAEIAABCEAAAhCAAATWSsC9TiBS50gUTBWjGwh/nwtSXTgTF4vfs1hM8KTkM2dJOPBra3WBH4AABCAAAQhAAAIQgAAEPCUQDtpcouAEMfo+MXqOGN1K+ItFaCtF6HSv7XhAjDpWRlVv4anRDAsCEIAABCAAAQhAAAIQWInAsJr1JFLfkUhPEqM/EKObCX7eBr8Vw6Tbz9PF6OslzA5dyQv+AgIQgAAEIAABCEAAAhDwjEDYv68YPXr5+/y43DOVTzdVS8WoNyVS9RL16+OZ4QwHAhCAAAQgAAEIQAACEBBT/SUJq84sPBjE6CVc7pmKM34rnv1r+9/uct/FYvTzEqnT5OJgG2YJBCAAAQhAAAIQgAAEIJB0ArmajaReH7Ts/i+CH5e6rhR8W2TZAYEpUpc5UIb1WTfpyrP9EIAABCAAAQhAAAIQSBcB9yL3MTXrSU4NkEiPl1Av4IzfSsGn7RmxtP+5VSK9UCI9UUxWy7CaHuI84gMBCEAAAhCAAAQgAAEIxJSAa9jH91lX3Gsd8tmLxKjZnPEi+HXcAfWxRNkLpF5/VfKZnjG1nc2CAAQgAAEIQAACEIBAigm4Mza1wfYyIvsLMfrFjjf9BCWYtXUg+7JE+kipG7hd4YxgiqcXQ4cABCAAAQhAAAIQgEB8COTUF6Wu/14SqjsJMW1DDH/ushORvklymX0LD4rhstD4zHu2BAIQgAAEIAABCEAgZQSG12wmObW7RGqMhHphlxv9VL4SgYDYLm8KfmWjwv2BtcEmKZtpDBcCEIAABCAAAQhAAAIVJJDPbCDufX754HQxalq7GnjCXdof8lKk8auZkg9OkajfblI7tFcFZwFfDQEIQAACEIAABCAAAc8JuPv8ctW9xahjxaiHxegmwh9n8CrgQItE+lHJ66MKD4pxXvKBAAQgAAEIQAACEIAABIpIwL3I3b3PL1KXi9HzKtD0F+kMEoHNm33nXhth1FWSUwdLPrNtEW3nV0EAAhCAAAQgAAEIQCClBPKZTaVefVsidbGE+m0x2r24mzAGg7g40CJGvSuRulCM3kvcfal8IAABCEAAAhCAAAQgAIEOEnD3V0X9shJVnSkmeFKMbiD4EXxj7MASMfoJyQdnSaSzMqZmvQ4az49DAAIQgAAEIAABCEAghQTGH7KO1A7YWfLBiWKCO7jck9AX49C3qrOQcyXSt0sUnCCh2kmcz3wgAAEIQAACEIAABCAAgVUQCAdtLqE+RMLgajF6esIa/1WFAf4urZeqRvo9iYKrJad/IvV6y1XYzl9BAAIQgAAEIAABCEAgpQTc5XL1ag8xuk5M8CJP9+Ssnyfhv1mMfkWMDgv3B7rXl/CBAAQgAAEIQAACEIBAagkMk+4SBbtIpM4p3D9VeKoi4ceT8MPZz8/Ofi6SKJj66X79q4QDv8ZloamteAwcAhCAAAQgAAEIpJhA+K3NZYR7n1/wkBj9MaGH4Ou/A+pDCfXdEulfSz6zlVjpluIKwNAhAAEIQAACEIAABFJDIKe+I2Fwp7j7pD47S8IZI1ikwQF3Weh0idQkqc8eQAhMTdVjoBCAAAQgAAEIQCCFBPKZb4lRl0gUvCVGu0Y4DQ0/Y2Q/r8qBhsL7A002kqjfbimsBgwZAhCAAAQgAAEIQMBbArWDt5ZInSYmeFm4z29VYYC/S29IXCQmeF1C/ScxA77gbQ1gYBCAAAQgAAEIQAACKSDgnnoYqcMkDB5c/j6/Vs76cdYTB1ZywM2L+RIGj0qkf5KCysAQIQABCEAAAhCAAAS8IxDpaonUdWL0HDG6haZ/paafs37pPeu3un3v5slcMep6CftnvKsJDAgCEIAABCAAAQhAwDMCw2p6SKh2kkidJ0bPJPQR+nCg0w7Mlig7XHLVvcXNKz4QgAAEIAABCEAAAhCIDYF8pqdcHGwjof6lmOAlmv5ON/2rOzPE36f2bGHwmkTqBMmpL4qbZ3wgAAEIQAACEIAABCBQMQLjD1lHRlVvIWHme2KCO8WopYQ/wh8OFN2BBjHBvWL0QVKvt+SMYMUqHl8MAQhAAAIQgAAEUkpgmHSX4btvJjk1QIyOJFKf0PQXvennrF9qz/qt1qW5EqlLpV7tIfnMprxDMKX1l2FDAAIQgAAEIACBshK4qHp9Mdl+YvSfxeg3CH6rbdYJcAS4UjnwtuSD0yXs31fck3atdCtrDeDLIAABCEAAAhCAAARSQMA1me6BFKE+Sox+hOBH8MOBijvwgJjgFxL2/Zq4y7H5QAACEIAABCAAAQhAoCgE8pmtJMz+QIy6SkK9mMa/4o1/qc4s8XuTdtZy2XycIDl1cOFBMUWZ8PwSCEAAAhCAAAQgAIF0EnCXl9Wrb0ukzhWjZhP8CH44EFcH1McS6X9LLrOvjOu7YToLFqOGAAQgAAEIQAACEOgcAfe4efciaqP/n5jgWV7kHtemn+0ikLZ1IHhJouAMifrtJsP6rNu5AsC/ggAEIAABCEAAAhBID4Eo2EWMOl5McMunAZDLPZN2SSDby2Ws7nUskZ4k+eyJEqqd0lO8GCkEIAABCEAAAhCAQPsJuPv86oIfitFXiNEzOevX9swKf+ZsW6IcaBWjPhSjx0lOHSZmwBfaXwz4SQhAAAIQgAAEIAABfwkse61DjRh1iZjgJTG6gUY/UY0+Z7w467kmBxolCl6VSOUkVHsXXhvhbzVjZBCAAAQgAAEIQAACqyUwrKaHRP36SBT8RUzwmBi9gOBH8MMBbx1YJCZ4UkxwttRlviXuPl8+EIAABCAAAQhAAAIpITAy2EYidYJE+q7ll4mt6QwC/xtnmHDAHwc+kkjfI5E6WeoGbpeSiscwIQABCEAAAhCAQEoJ5Go2WvY+Pz1BIv0e9/l5e7aHwOZPYCvFvmwRo2YU3utZnz1AaoNNUloRGTYEIAABCEAAAhDwlIC73NNd9lW4z0+9Ke4pgTTIpWis+Z14lSQHFosp1INQ6jP9uSzU0/rPsCAAAQhAAAIQSBEBK93k4mAbyavTJSy8z28+wY+zfjiAA20cWCChfl7ymbOkNthehkn3FFVJhgoBCEAAAhCAAAQ8IeDCX6h/KpF+VIyey+WeNP1tmv4knaliW0t/ZrVFjJ4nRj0ueX0UZwM9WQcYBgQgAAEIQAACKSFgslqMulaMdmf8XGNHAw0DHMCB9jjg6sUCMWqymOzAlFRMhgkBCEAAAhCAAAQSSMCd8Tsvs6mY7Pmc8SPwEvpxoIsOuCC4SKLscBm++2bi6gsfCEAAAhCAAAQgAIEYEBh/yDpyYd8NJZ89UUL3QAfO+HWx8W3PWRJ+hrNpaXGgVUI9TfL6d4U64+oNHwhAAAIQgAAEIACBChBwjVg+s6mE2aFi1L1idAPBh7M+OIADJXKgUYx6WHLq+zK8ZjMhCFag6POVEIAABCAAAQikk4C7FMu9t6u+X7VE2VFi9MclavjScoaDcXI2Dwfa74B7oNQ4yWUGFQ5AcWloOtchRg0BCEAAAhCAQJkI5DMbSK7q62L0n8Xotwl+nO3BARyokAPTJMz8rfB+0VzNRmWqgHwNBCAAAQhAAAIQSAmBfKanmKqviFFHi9H3c7knTX+Fmn7OlLX/TFkaWDWKCZ6USJ0godpJxvdZNyUVmWFCAAIQgAAEIACBEhFwL2QeGWwj9dkDxKgrlr/WIQ2NJWMkaOBAchxwr424RnLqYKkbuB33B5ZoPeDXQgACEIAABCDgMYH/3udnsjUSqQsl0u9xxoezfjiAA/F2QM2QSF0s9erbvDrC4/WJoUEAAhCAAAQgUGQCw2p6SG53JUadLkY/Ee+Gj4ac/YMDONDGgUg/LaE6U+ozAZeFFnl94NdBAAIQgAAEIOAZgfoBXy7cTxPp2z8NgEtpLNs0lsm5JI7LF9lXKXdALZVI3SV59VvJD9iZF8l7tlYxHAhAAAIQgAAEukjAvdbB3T8T6cvEaPeY9ZQ3j4wfB3DAEwfmSaT/U3iAlXtvKR8IQAACEIAABCCQagK1vXtJPjOocN+MCV72pOEjvBLgcQAH2jowTSJVL6EaIq7u8YEABCAAAQhAAAKpIxD16yNh8Dcx+gFe68DZHsI/DqTAgWYx+mEJ1bmF9wemrugzYAhAAAIQgAAE0knAVH9JjDpejL5ZIvWJGN2agsav7dkA/swZIhxIpwOu3s0To2+TSJ8kObVDOhcCRg0BCEAAAhCAgP8EcjUbidEHidHXLH+tQxPBj7M+OIADKXWgWYx7bURwnRh1qIweuLH/iwAjhAAEIAABCEAgHQTymZ6F1zq492OZ4CWe7knDn9KGnzN+6Tzjt7b93iBGvSlGj5SoX7UM67NuOhYGRgkBCEAAAhCAgJ8E8gP/T/L6T8vf5+cue+JyT5rgtTXE/O84kj4HIr1QIjVV8vqvEqqd/FwQGBUEIAABCEAAAv4SGF6zmYxQh4tRd4rRc8Ro9/CD9DV1jJl9jgM40H4HWgr3RUf6nsJrI+r1lv4uEowMAhCAAAQgAAE/CIzvs65EulpCdfXy4NdI8CP44gAO4ECHHHD3R8+RUF237LURQ3lthB8rJKOAAAQgAAEIeEbAHa026l8S6g/EaIJf+4/6c4YEVjiAA6tywAXBmRJla+WSYBcZJt09WzUYDgQgAAEIQAACiSNgpZvkMxvIiOAXYrLviNEtHOnv0JH+VTV9/B1hAAdwYEUHWsSoaZLXf5B8ZlNxdZcPBCAAAQhAAAIQKCsB14Bc2HdDqcvWSKQfJfQR+nAAB3CgHA6oxyWnviPutToEwbIue3wZBCAAAQhAIL0E3Puq6r61q4RqLA93KUfDx3cQLHAAB9o44O6zzlV9XWqDTdK7GDFyCEAAAhCAAARKS2BMzXpiqr4iUeZvEqr3eaVDm4aMS9ZWvGSN/8YHHCi1A6H6UKLMuYXXRrgrMvhAAAIQgAAEIACBohAYVtND3Pv8TPbHYtTjPOCF4MfZGBzAgdg40CyRek5M1bFSp3eU2t48MbQoCx+/BAIQgAAEIJBGAu6Jczn1xcL9JpEaL0bPp+mLTdPH2ZVSn13h9+NYkhxwL5I3arLksj+S2mB7nhiaxkWbMUMAAhCAAAS6QiActLnUqz0kUheK0dMIfgQ/HMABHEiCA+pDCbNGcpk9ZVT1Fl1ZBvi3EIAABCAAAQikgcBF1etLTu0uUXCGhPopMdq9h4ozATDAARzAgeQ40CQmeE7ymbMk7J8pvKonDesXY4QABCAAAQhAoAMECvf5DdhZ8vo4ifStYvQigh/BFwdwAAcS7cBiMcGdEqkTpF5/VVyd5wMBCEAAAhCAQMoJuPdI1estJdQHSqQuF6M+pOFLdMPHWZrknKVhX7GvyuXAbDHqKsnpnxTu63b3d/OBAAQgAAEIQCCFBGqH9pJQDRGjLpYoeI7gR/DDARzAAZ8dCF4To3JSn/0ul4WmcM1nyBCAAAQgkGIChbN+u31DTHCWmOAhXuvgc8PH2Ag0OIADn3OgUaJgquSz5xfu9x5/yDopXg0ZOgQgAAEIQCAFBNxT4fL6NxLp2yVSn9AYfa4xKtflWHwPl/7hAA5U2oFFEum7JB+cImbAF1Kw+jFECEAAAhCAQMoIuKd7hpnviVHXitHTCX4EPxzAARzAATHqfTF6skTZA8StE3wgAAEIQAACEPCAQE4pMdk6Mfp5MbqFpo+mDwdwAAdw4PMOBC9JqC+TsH+VB6seQ4AABCAAAQiklMBIvaNE+o8SBY+K0fPF6NbPL/g0QPDAARzAARz4nwNLxLj3v1b9Q3LVvVO6cjJsCEAAAhCAQAIJ5DObSk4dLkbfLUZ/JEY30+D8r8Gp9H03fD/3fuEADsTZgZbl94c/LHl1vISDNk/gKsgmQwACEIAABFJCoLZ3L8ll9iy878moGWJ0E8GP4IcDOIADONAJB9yBw5mF+8ZzmX3FrS98IAABCEAAAhCIEQFT9ZXCY72NfkeMbuByTxq+TjR8cT4rwbZx1gwHyu+Au23ArSfTJHLvD9ztGzFa9dgUCEAAAhCAQEoJDN99M8nrXy5/kTvBr/wNEk0pzHEAB3x3wAXBRjHBi5JXp0pOfTGlKy7DhgAEIAABCFSIgHuRez6zgdT3+7aE+gHO9nG2j7N9OIADOFAmB1wYfERM9ocyvGYzGSbdK7QS8rUQgAAEIACBFBBwwc+9pymf+ZYYdaWEelGZFnzfj24zPs7g4AAO4EBHHAj1Yon0eAn7D5bRAzcWtz7xgQAEIAABCECgiATG1Kwn+QE7S1R1phg1i+DH0X4cwAEcwIHKO5D9UExwtoQDv8aL5Iu45vOrIAABCEAgxQTGH7KO1A3cTqLskWL0s5Vf7Gm42Ac4gAM4gANtHVDPS5Q9Rur0juLWLT4QgAAEIAABCHSCwMXBNp+91qHtYsufacBwAAdwAAfi5oC6Q2rV3mKqv9SJVY9/AgEIQAACEEgpgdpgE6nPBGLUvyQsvMide1M6cm8KP4svOIADOFA5B0I9T/JqpOTUABlVvUVKV3KGDQEIQAACEGgHgdqhvSSndpd8cIoY/ZIY7V7EW7lFnO+GPQ7gAA7gQOccaBGj3izctx71y8qFfTdsxyrIj0AAAhCAAARSQsDdL5Gr7i1GHS2RvkuMXkzwI/jiAA7gAA4k3wG1VCL9oETqBKnXX5VhNT1SsrIzTAhAAAIQgMBqCNQO3lrq9UES6cvEqA+Tv9jTsLEPcQAHcAAHVnLgYzH6Ssmpw7g/cDX9AH8NAQhAAAKeE3DvTQrVEMnr88UEXO7ZuUuMuDQLbjiAAziQHAeal10Wquoll9lX3P3ufCAAAQhAAALeExjfZ12pcy9y138WEzwkkV7IkeKVjhTT0CWnoWNfsa9wAAc66kCDmOBJidQ54u4PdOsiHwhAAAIQgIB3BIZJ98JlLyPUsRLpW8Xo2QQ/gh8O4AAO4ECKHZgnRt8tUXAy7w/0ruthQBCAAARSTsA9/czd52f0NRIFb6V4se/oUWJ+njMLOIADOOC9A2qGGH291KtDuSw05f0Sw4cABCCQeALuaWcmqyXK/ltM8OKnl302Ef442o8DOIADOIADKznQJCZ4WUKVl1xmEJeFJr4DYgAQgAAEUkigbuB2EgVniNFPidFzWexXWuw5qu/9UX32OfMeB3Cgww4sEqOfkUidJ6bqK2KlWwo7CIYMAQhAAAKJIuAu94zUEWKCe3mtQ4cXfkIhoRAHcAAHcMBKpD4pHEDN61/yEvlEdUFsLAQgAIGUEchl9pRIXSdGTxejmznySwDEARzAARzAgS45MFNCfY9E2X1S1lEwXAhAAAIQiDWBXNXXJZ+9aPkDXhpY7Lu02HP0n6P/OIADOIADKzrQLJF+T0wwRsyAb8a6H2DjIAABCEDAcwIXVa8vRh2//EXuS8ToVsIf4Q8HcAAHcAAHSuKAe3/g62LUqZLPbOV5h8HwIAABCEAgVgTcTelR9rsS6vvEaHfDOsGPo9UrHq3mv/EBB3AAB0rjgFtvF4vRUyTUh0g+s0Gs+gM2BgIQgAAEPCLgQt/4PutKfaa/GHWFGL2AI7wlOcJL01SapgmucMUBHPDLgUgvlEjfIPVqD6kd2kuGSXePug6GAgEIQAACFSPggp9bWOr1VyWv/ypGTyP4EfxwAAdwAAdwIC4OqBmF9+1G/XaTMTXr8eqIinVMfDEEIAABDwgUXuRe/SWJ9JHL3+fn19FTjoazP3EAB3AAB3xxIAqek1D/UvKZ/+NF8h70YAwBAhCAQFkJuMtI6vWWhcdOGz1BQu0e8EKTAAMcwAEcwAEciLcDbr2+TcLsD2RksI2MP2SdsvYPfBkEIAABCCSQQK5mI8mpARKp88Sojwl+BF8cwAEcwAEcSJwDcyTSRkI1REZVb8FloQnsx9hkCEAAAiUnkM/0lLB/X8lX/VYi/SqLfeIWe47Kx/uoPPuH/YMDOFABB4LXJZ85S0xWS23vXiXvJfgCCEAAAhBICIHaATtLnTpCTHAHwY/ghwM4gAM4gAPeOfCI5PQxUr/bNxLSmbCZEIAABCBQEgK1g7eW+uC7YtRYCfV8FnzvFvwKHG2GIfMIB3AAB2LpQKgXS6QnSk4dLGbAF0rSV/BLIQABCEAgpgTci2PdfQFG/VOiwF3u2RLLxYrLhQhwOIADOIADOFBMB1rFZGeIUf+SnPqOjOu7YUw7FTYLAhCAAASKQsDd52cGfFOiqj+K0Q+L4emeBF+O1OMADuAADqTQgSaJ9NOSD86SnFLi+gM+EIAABCDgGYGc2kEi/WuJ9A1i9JwULnbFPILK7+KIPA7gAA7ggA8OLCi8NiJSJ0sU7OJZ58NwIAABCKSUgHv8c70+SIweK0ZP43JPjnQT/nEAB3AAB3BgBQfcbSAfSKQnyAh1uOQzW6W0Y2LYEIAABBJOYEzNemKyAyXStWKCF8WopSsUex+OWjII1w/wAAAgAElEQVQGjr7jAA7gAA7gQPEcaBITvCZGh4XnBFxUvX7COyE2HwIQgEBKCIw/ZB3JVfde4T4/nu5ZvMWRRgOWOIADOIADvjvgLgt9SkzVMAn7fk2G1fRISQfFMCEAAQgkkMDwms0kUj+XSN8uRs/kck8u8eGsLw7gAA7gAA500oHZEgYPilHHS73eMoFdEZsMAQhAwGMCtUN7Saj2FqOuFKOni9GNnSz2vh/VZHwcuccBHMABHMCB9jvQIka9L6GeJEbvL1wW6nEzydAgAIFkELDSTfIDdhajLl7+gJclBD+O9OIADuAADuAADhTZgYbCAeYoGCNRvz4yTLono1FiKyEAAQj4RiCvfyehfkWMXlTkQs/R0fYfHYUVrHAAB3AAB9LiwJLCGcERwRkSfmtz39oqxgMBCEAgvgSM3kuMmrI8+LUS/jjSiwM4gAM4gAM4UEYHFkuknpacOji+zRJbBgEIQCDpBApP96z6+vL7/NwTugh+HHFOyxFnxonrOIADOBA/B1wf4s4IXi9h/ypxfYq7NYUPBCAAAQh0kcD4PuvK8My2EqlzxOiPynh0j8U2fost+4R9ggM4gAM4EEcH5kmY/bdEwS7iHkxHEOxi88c/hwAE0knAvXfHPXZ5hDpWQv28GN1E+OPyHhzAARzAARzAgZg60CwmeFkidbJcnPk/cQew+UAAAhCAQDsIuCdrueBXr74tUXYiD3hhoY/pQh/HI9BsE2dGcAAHcKDyDrjLQu+QMPsDqR28NS+Sb0fvx49AAAIpJeAul6gNNpGcUpLPXrT8Re4sZJVfyNgH7AMcwAEcwAEc6LgDsyVSIyRUQyQctDmXhaa0v2XYEIDAagi4F6vWZb4lkf69mOBZzvhw1g8HcAAHcAAHcMAPB4LXJVRnSn2mv+RqNlpNJ8RfQwACEEgJAXefX53eUYw6WkJ1pxi11I9iz6LNfsQBHMABHMABHPifA+5F8lMk0r+Wev1V7g9MSZ/LMCEAgRUIuMs985mtCu/PiYIxYvQ8Fon/LRJcZtPxy2xgBjMcwAEcwIEkODBfIj1BTPbHUhtsX3h1xArtEf8JAQhAwE8C7nJPkx0okb5AjHqX4EfwwwEcwAEcwAEcSJUDkX5PjAolF+wruT5cFupnx8uoIACBAoGoXx8J9Z8k0venqtBzVDYJR2XZRjzFARzAARwoswPBkxIFf5H6TECnCAEIQMAvAiOD7cUEvxCjr+c+P47yEv5xAAdwAAdwAAf+64B7/oG6U/Lqt5JTO/jVADIaCEAgfQSWvdbhYDF6rBg9XYxupeD/t+Dz/3EBB3AAB3AAB3Dgfw7MEaOvkEgfWXgtVvq6RkYMAQgkmsCwPutKpKvFqEvEBC+K0U0U+P8V+DJfXsL34h4O4AAO4AAOJMSBFjHqTYm0kVDtLbW9eyW6H2TjIQCBlBBwjzeOgjMK9/lFemFCCi6hjPs+cAAHcAAHcAAHYuJA4bVYT4ip+ofkqr6ekg6SYUIAAokjMDLYRvL6KDF6shg9S4xuJvxxxBUHcAAHcAAHcAAHOuWAu21mjpjgDomCEySf2TZxvSEbDAEIeEogn9lA6rP7iNFXLn+tg3vZaUyOoLEd7AscwAEcwAEcwIFEO9AkRs0oPEivPjhAxvXd0NOOkmFBAAKxJzCspoeE/ftKpP8tJnhZjF7MApPoBYbQzoELHMABHMABHIitA4Wnhbr3J0dSn+kv+UzP2PeKbCAEIOARATPgCxKp0yRST4vR83m6J8GP8I8DOIADOIADOFAGB9zzFcLg1U9Z/1XqBm7nUXfJUCAAgVgSGFOznuTUd8Tou5cHvxaKfRmKfWyPRjJ2/McBHMABHMCBCjjQKoUgqB+XKDhCRg/cOJZ9IxsFAQgkmICVbjK86itisv8RoxfxgBcWuwosdlyWxIEAHMABHMABHPi8A+5AvLsFZ4KE/TPibs/hAwEIQKBLBMYfso7kajaSSF0oofqESz0JfgQ/HMABHMABHMCB2DnQKqGeK5G6uHDAniDYpfaXfwyBdBJwwS+f2VRC/VMx2Xco9LEr9BwB/fwRUHjAAwdwAAdwAAcKDqjpEqmTZXjNZjwoJp1tPKOGQMcIDJPuhYJh+u8lkb5djG4i/BH+cAAHcAAHcAAHcCBRDrSKUfdJpA6Wer2luAP7fCAAAQisRKA22ERq++227LUOei6FPlGFnqOeHPnGARzAARzAARxo68BiMWqM5DKDJBy0+Uq9H38BAQiklMBF1etLvf6qGHXq8scKNxP+CH84gAM4gAM4gAM44IUDLRLqdyTK/E1yVV8vPNshpS0vw4YABNwNwnV6RxmhDhej7hXjXjDqRaFre/SLP7NfcQAHcAAHcAAH0u5Ag0T6UckHv5Io2EVqe/eiGYYABNJCwN3nl1NfFKP3l0hdLkZ/TPAj+OIADuAADuAADuBAKhxwTwu9TnLqMKkNthfXF/KBAAQ8JuCe7JnL7CmRvkCMfoNCn4pCn/Yjnoyfo/44gAM4gAM4sLID08Vk66RO71d4UIzH7S9Dg0A6CdQO7SV1mW9JqP8gJnhMjG4k/BH+cAAHcAAHcAAHcCDVDjRKFDxXuD/QvUh+TM166WyUGTUEfCKw7HLPHcRUHSsmuFGMnkOhT3Wh5wjoykdAYQITHMABHMCBtDuwSCJ9q0T6JAnVTrw2wqcwwFjSRcC91iHKHiBGjxOjpxH8CH44gAM4gAM4gAM4gANrcGCWGHWV5PRP5KLqLcRKt3Q1z4wWAkkmYLIDxaicGP3MGiZ52o92MX6O+OIADuAADuAADuDAyg68IqHKS13//TgbmORAwLang0CuureEVWeK0Q9znx9H+Aj/OIADOIADOIADONBJB9z9gVMlyv5bRuivpqORZpQQSBKBcNDmktfHidG38VoHCn0nCz1HQFc+AgoTmOAADuAADqTdgUVi9N2S13+QUdVbJKk9Zlsh4CeBYTXrSaS+I6F7n596V4xuofknAOIADuAADuAADuAADhTRgVYxetbyBwruLxdVr+9nY82oIBB3Ajm1uxh1iUT6BTF6sRjtJmfaj1IxfhzAARzAARzAARzAgdI40CRR8KqYYIxE/bJxb5XZPgj4QyCndpC8OnX5+/zmE/wIvQR/HMABHMABHMABHCiTA+6Eg7ss9BkJg7+JqfqKP002I4FA3AiMHrix5LI/kkjfJZH6RIxuLtNE5yhaaY6iwRWuOIADOIADOIADSXXA3XY0T4yeIlHwc3GvH+MDAQgUkUDhck99xbLrr3UTwY+jfDiAAziAAziAAziAAzFwwJ2QmF+4P7C+3x4yrM+6ReyA+VUQSCGB/OBtxWSHiVHTOeNHkY9BkU/qUUq2myPsOIADOIADOFBaB5oldFeoqZyEaqcUdu0MGQJdIDBMuks+s5UYdbQY/RJNP8EPB3AAB3AAB3AAB3AgMQ5E+tVPLw/9ndQN3I4XyXchE/BPU0DASjcZvvtmUtt/sBh1V2ImeWmPJnG0Dr44gAM4gAM4gAM4kEQHQnWf1GcPKJzYGH/IOino5hkiBDpAIFezkUT9+kikLpVQLyT8cZQPB3AAB3AAB3AAB3Ag8Q64vjZSl0vd7gMlHLR5B7pjfhQCnhIY32ddyVX3lig4TYz6IPGTPIlHp9hmjqriAA7gAA7gAA7gQIkdULPEqH9KvnpXXiTvaa5hWGsh4E6D5wf+nxh9kBj9CO/y4wgf4R8HcAAHcAAHcAAH/HdAPSV5fZTUDtiZ+wPXkhf4nz0ikFNflDq9nxg9Voxe7P9Ep5izj3EAB3AAB3AAB3AAB/7nQKOE2YlSn/2u5NQOHnX5DAUCbQi4F2Sa7ECJshdIqKeJ0e4FmiU+3c7vhzEO4AAO4AAO4AAO4EDsHGgVo2dKlDUSqiFSr7ds0znzRwgkmEDt0F5isv0kH5wqkZoqRjdShGJXhAjiHIzAARzAARzAARzAgfI70CQmeFHywVlislou7Lthgrt+Nj31BNx9fu5FmJE+RiJ9qxg9n+BH8MMBHMABHMABHMABHMCBNg5E7mmh+h7J699IFOzC/YGpT1IJBDCqegup1wdJqC8To2YwydtM8vIfXeKIHsxxAAdwAAdwAAdwIP4OuKfiXyE5/RNxz83gA4HYE8hnNpBQD5ZIXyBR8JwY3UT4I/zhAA7gAA7gAA7gAA7gQLsdaJYoeFWMCiVUe4t7XzYfCMSOwLCaHhIO/JpEVWeKCR4Soxcwyds9yTkaF/+jcewj9hEO4AAO4AAO4ECZHVBLxejHJcqcK2H/vpLP9IxdBmCDUkjASjep7be1jNTHiAnuEKM+JPgR/HAAB3AAB3AAB3AAB3CgaA7MLdwfGAUnS93A7WSYdE9h6mDIsSBQeMhL5nsS6okSBW8xyYs2yct8dIntxl0cwAEcwAEcwAEcSIAD0yXUkySX/YmMqVkvFnmAjUgRgXzmW2LUCDH6Fe7zo2AmoGASqrlsBwdwAAdwAAdwwAcHmsWoN8Xo0RL1y6YofTDUihGoHby1RPr3YoJnxehFNP6EPxzAARzAARzAARzAARwouwOLxAQvSaTOkZHBNhXLBnyxxwTc0z0jddinT/i8W4yeLUa3MtHLPtF9OGrFGDj6igM4gAM4gAM4gAPFc2CuGP2UROoIXiLvcRYr+9BMdqBEarwY7d5LwmsdijdhKX6wxAEcwAEcwAEcwAEc6KoDLctO0AR3SKiGlD0r8IUeEchV95Z89nwx+m0xupEzfpzxwwEcwAEcwAEcwAEcwIHYOuDuD3xfQpUvvJ7No1jCUEpJwL3WoV5v+enZvuPEBC+K0c1c7hnbSd7Vo0X8e4444gAO4AAO4AAO4IB/DjSLCV6TSJ8k7vkdrr/nA4GVCLj3iVxUvb4YvZ+Ywn1+DRzdIfjhAA7gAA7gAA7gAA7gQGIdaJAoeFBy2R9JOGhzca9w4wOBwoskL+y7oYT9MxKpvBjtbiTlSBAMcAAHcAAHcAAHcAAHcMAPB+ZJlP2P5DKDZPTAjXmRfJozoHuBZK7q65JXpy9/nwiT3I9Jzn5kP+IADuAADuAADuAADrR14B2JMudKTu1eeGIol4amKAm60791ekfJ6Z9IFDzKGT/OeOIADuAADuAADuAADuBAWhwInpRI/1rq9Vcln+mZohSU0qHmM1sV7vOL9EQJ9WImelomOuPEdRzAARzAARzAARzAgeUOLMsBk8Xo/SU/eFsuC/UxG7oHvLjrfiN1jhj1EfJTAHEAB3AAB3AAB3AAB3Ag7Q6ojyXStZLL7CnDd9/MxxiUvjG507ph/76SD04Uo91rHdpeC8yfYYIDOIADOIADOIADOIADaXYg0q+K0X+WnFJcFprkyFg7YGcx6mgx2p3e5UXuaZ7UjJ1FDQdwAAdwAAdwAAdwYM0OtIoJ7pVQ/1Lqd/tGkmNQ+rbd3eeXUweLUWMl1LN5kTtnPTnziwM4gAM4gAM4gAM4gAPtcKBVIvWJRHqCGHVo4UXy6UtTCRqxu8+vXn1bjPqXmOA1Mbq5HTuZIyFrPhICH/jgAA7gAA7gAA7gAA6kzYFmiYK3JFLDCw+QzGc2SFAqSsGmDqvpIVG/PpIPTl/+Wgee7kmRSluRYrw4jwM4gAM4gAM4gAPFd2CJmOBJyeu/Sn2mP/cHxiFb5jPbSj77q2X3+akPOePHqX0cwAEcwAEcwAEcwAEcwIGiOrDsstDbP7089OTC+8TjkINStw21wSYSZn8gRo8To9/mck8meVEnefGPHnFEDqY4gAM4gAM4gAM4kGwHWsSoGWLU9ZJTh8nwGl4bUZYQ6l7rEOmsGF0nJnhJjF5C40/4wwEcwAEcwAEcwAEcwAEcKJMDjYXnjUTq0sJ7xmuH9ipLDkrdlwyT7lIbbC95dbqY4Fkxen6ZdjBHapJ9pIb9x/7DARzAARzAARzAARwohQOLJNIvSD5zlpiqr4jLK3yKRGBMzXoyIvszCYNHxRRe61CKHcjvpDDgAA7gAA7gAA7gAA7gAA501IGPJAwekxHBL+TCvhsWKQGl+NeY7EAx6ioxepYY3cJZP07t4wAO4AAO4AAO4AAO4AAOxMwBd3/ghxIGt4jpv5eMP2SdFCe4Tg69buB2EqrzCiCNbojZDu7oUQF+niNJOIADOIADOIADOIADOOC/A42FKxajYIyY6i91Mgml7J/l+mwkI/SvJdSviFFLCX4c3cEBHMABHMABHMABHMABHEiYA8uC4Ah9kpz/tY1TlujaMVwr3QovVcyp74tRDxP8mOAJm+AczfP/aB77mH2MAziAAziAAzjQGQdcEHxCjD6okHdS/6AYF/zcA14iXb38fX7zaPwJfziAAziAAziAAziAAziAA145EOmFEqmrJZ8ZJBdVr5/OJ4a64Fend5RQ/0ki/Z5XO5ijI505OsK/wRscwAEcwAEcwAEcwAHfHfhATPYfEvXrI/nMBuJOiHn/Gd9nXXEPeBmhjhajHxej3WlR33c042Mf4wAO4AAO4AAO4AAO4AAOOAeaxOinJJ89UUK1k3j7Inn3KNSRwTYS6u9JpCeI0QsIfgRfHMABHMABHMABHMABHMCBVDpQuCxU3yD1wQGSU1+UYTU9/DgZuOwBL5tKqIZIlB0uRk9P5Q7maAdHvHAAB3AAB3AAB3AAB3AAB1ZyQL0vkaovvD8wHLR5si8LdZd71vbbTSJ1mhj9PMGPozs4gAM4gAM4gAM4gAM4gAM4sCoHgpckCs4Qk9WFB8Uk6nSge7xp/YAvS6R+LkbdwmsdVrWD+TsmPg7gAA7gAA7gAA7gAA7gwIoOFN6D/oDk9XESDvxaMi4LzWc2lVAfIpEeJUbPZYeuuEP5b3zAARzAARzAARzAARzAARxYqwPzJAqulpz+ieQz28bzstDa3r0K9/nl9fli9Dvs1LXuVK5/Xun6Z5gxb3AAB3AAB3AAB3AAB3DgMwfUuxJljYRqb3F5Kzaf3O67F97nZ4KHxOjWzzaYnQcLHMABHMABHMABHMABHMABHOiaA8FjEgV/kfpM/8pmQPc+v0idIEbfLEbPI/whdtfEhh/8cAAHcAAHcAAHcAAHcGCVDrjXRhh1m0TqZBkZbF/eIJir2UhCfaBE+jIxaoYY3bLKjeQSPy7zxAEcwAEcwAEcwAEcwAEcwIFiOeCutpwpRl8pRh9U+stCh/VZt/BYUqMuERO8yNM9OTpB8McBHMABHMABHMABHMABHCi7Aw3LXrOn/ll47V5JTgeO67uhRMEREul7ll/uWawUy+/hiAgO4AAO4AAO4AAO4AAO4AAOdMyB1k8vB/2kcDtemP2BuJN1RfvUDt5aQv0HMcFrYnQjCb/sCZ/J0LHJAC944QAO4AAO4AAO4AAOpMQBtVSiYKrUqSOKEwLzA/9PInWhGD2bh7wQ/Aj/OIADOIADOIADOIADOIADsXOgSUL9thh1qoSDNu/8icDaYBOJ1Gli9Hx2cux2ckqOaMCduYcDOIADOIADOIADOIAD7XBg2QNiXH4bvvtmHQ+BowduLJH+tYTqw3Z8GWGEU+w4gAM4gAM4gAM4gAM4gAM4UFkH3H2B70ku+xPJZ3q2PwQOq+kh9dnvilHTCX8cbcABHMABHMABHMABHMABHMCBxDjgzgS+IXXuwTA1PdYeAq10k/rdviFh4WmfJPjKJnj4w3+5A4GVqMp2yw+w3UYMst1HDLbdR+5he4wcYnuO2tN+5aof2f1u/n3h/35x77n2b0+Otv98ely7/u/sJ0fbn9/z98K/HTzpBLvdFQcWfmePUTV2nZF72G4jBhe+V6JqK1GAkziJAziAA7F3wK0Z1bZbflBhreg5qsb2vfYoe/Dtf7J/eiyytc9fa++c/rh98INnCv/33Mdv2hU/Dc2N9rW50/73v9867RFrXpxoT374YnvAbX8srDlujXDrkPsOtz4RDBITDNhXsZ+/RXQp1A9Kfaa/uHy3xk8+s5VE6lwmchHhp0k0xtr1whpVFxbVdUfvZTe8dB+7+djv2p2vPtT+8PY/29Om1Nra5yfYiW/dbx//8CU7bf6sFdfsov737MVz7dTZr9grX7/d/vmxyB5x199sv+uOtttc/gO70Zh9rds+F0RZ+KkVrBc4gAMxcCCqti6Uufrc+5rD7KF3nmUvfPo/9pFZL9gFjYuKuj64X/bxkrn2zvcetxc8fbk98LbT7baXH1BYs9YZOYSDhfRCXe+FYFg8hpE6R9wbHVb7cdeJ1mWHfvrKh0UU8xgUc+QvnvxxZhlVFRbtTccOtdtdcZDdc/Jv7BmPGnvV63fYKTOfs58snV/0hburv/D5OW/a/7x+h/3tQxfZmsm/sTtc+UO7xWXfs+tfuveys4Vx5s22pWNesZ/Zz2lwIKqyvUZ/uxC+3NrhAt/U2a/axU0NXS3zHf73CxoX2wfef8ae+Vje7nbd0YU1wV2hwpUj9JNkiko7oD6SMHPg6l8Pkc9sK6Eez46q9I7i+713MKoqXGa57eUH2qobfmVPefgSe+2b9xbO6DW1NHd44a30P/hk6QJ75/Qn7PDnrilcHvS1a35qtx73/cIYWfyZz97P5zQEDcYYq0DtLr10l+vvNfkke95Tl9snPny50svA576/pbXF3vHe4/aPj+SsvuFYu9W47xeubKEWsB7gQIUciPQkyQ/YeeVLQZc9+GUfzv5VaMewuMZqcS1NgQoKC+CXrjjI7jHphELou+XdKbE8w/e5lbyDf2hubbHTF8y2V79xl/39w5fYIZNPtLtc8+PCZUmF+whxPQWuU0dLU0Pgmnau6136bbvr+J/ao+45x9427dEOVufK/Pj8hkWFK1p+dvfZdqerDy3cPpD2/cj4qWUVcSCvfykXVa//+StBC+/806MqskE0hDSEnjvgHtbyzWuPtO4BLde8cZd199el5TOvYaF96IPn7N+njrH73/IHu+v4wwuXinLvIAsg6w0O4ED7HNh4zH42mHhs4fYAd/+3O9CWtM/8xkX2rulPFA4MugfSuPvI2f/t2/9wglORHHhY6gd8+bMA6J4MY6q+IqHmtQ+eB5EiCUTRbqcnboGrvuE4e/LDw+3d05+0S5rLf19GnJqEOUvnFS4L+usTo+x3bj618HCbHqOGWDE8XZS5yQKPAzjQ1gG3hqiJv7RnP3mpfXXuNNvcmrxbBNquQW4dfGTmC/a0KXWFA6Pucta24+bPzAUcKIEDoV4sOXXwZ+8GHH/IOoW/aGdTy04pwU6BvVcLQLcRAwpHa//y+MjCkzTbLoD82dq35s2wE968x546pbZwH4t74ilBkNrC+oIDOKALr/txZ8n+8EidfXTWC14ePFzctNTe8d5j9lf3n293vvqwwpjZ98x/HCixA2FwneQzmy47C1g7tJdE2gC9xNAJeV6FvNXNl77XHWV/+9Bw+8AHz5Dz2kFgaXOjffaj1+0FT19pD7jt9MLDY1bHlr+nRuEADvjugHuA1tH3/L1wj5+7bNL3z+wlc+34N++2h935F+uehs2Dw5jjvs/xCo9v5mcPg8lnNhATPFnhDUpFOICxv4XNvQbBLdo3vzvFusdh8+k4AXeJ06iXJ9vj7j+/8OAY99J75oy/c4Z9y77Fgc8ccJdCBjf8ytY+N8FOW1C6d7x2vDKX51+4+v/Ppy4rPORG8tXUfk4a4ECpHMjpn4i7+lPcy9+Nnkch/qwQwwIW7XXAXe7pXuVQ/8J1dsbC2baltbU8q6Wn3+LofbRkrr3+rfsKT0rd+epDWQRKtQjwe3ELB2LhwCZj97PH3Heuvf/9p+3CFB9AdK8UuvHtB+yP7vgzr41gbsZibra3F0zWz6krZEzNeiImq5O14YQT9lc8HHBn/U548F/23hlT7aKmJZ5GssoMywXpWYvm2Ilv329Peugiu+NVh7AY0BDgAA745UBUZXtfc5i96Nmr7Rtzp1em2MbwW1+Y85b9+9SxdqMx7t7weKz3bAf7wRsHQv22XNh3Q5EwO9SbQVEoKJZlciBz/TE2evGGwqU6SXwkdwzX/FVukmP7waKP7KR3HizcW7nDlQfjeJkcZ12g4cGB0jngLnGvvvE4e91b99q5DQtWWf/S/JeOyRWv3W6p+aVzkPmdWraNy14HEekjkSC1EtBMd7CZ7pYfYPe+6RQ7+Z2HbBpu0I9LA+Ief/7+wo/sjW8/aI+85xy78dj9cLeD7lLnqfM4EA8Huo/Ywx5w2x/tQx88a5em/PVAa1pjGlua7E3vPGwH3Xg89Z56jwPFdCBUQ0Si4C8sCvFYFNgP8d4P64wcYn9851/tIzOft+4R1nzKT6Chpcm+M/8De+nLNxXej8XDAuI9Z6hp7B8c+LwD7mEvx9533vL3+iXvhe7lrvouBE6d/Yo9+PY/EQCKGQD4Xen2KQpOEAkz51KgP1+g4QGPtg70Gr2X/c2D/7avz51u3YLEp7IE3JNWn/nodfuXx0fYbS7/QboLOQs5+x8HEuGAu+zTPenSPTCMT/sJuHvCX/nkXfvr+y9IxH5u2z/wZ3rK2DkQqXPcGcCfx27DWMwocjFywAWMc54cY99b8KFt5Smf7V+1S/yTrin4ZOl8e8+MqfaQO860PUfVMG9iNG9YV2h6cGBFB4LC+065369zC4Or92/Nm0EIpMazzhfDAXfyT8LM9yjSKxZp/hsfPnNgy3H72wueubJwvx/hr3MLd6n/VVNLc+HVERc+8x+78Zh9WRyKsTjwO/AIB4rqgDvzxztiu7YatLS2FELgcZwJLKqb9Hyf9XypYbEsAPIU0NTscBb0DhXNTcd+157/9OV2STP3+3Vt2S7Pv17S3GAfm/Wi3WPSCVYiXiRMXUvhok6N71CNL9ccOXcq4a9Yq8CyM4Hv21/dd14s93W5nOJ7qO9dcoAAiEBdEsjjZmPjMfvZ856+3LqzS3ySQ8Cdpf14yVx7xqPGuvtt8JsahwM4UDkHgsLDS9yl6nyKR6DVttrnPn7D7nfT762YgDrvcRFXz6MAACAASURBVC9Wubnred0kAHq+gykKnVoYeoyqsb+49x92YSMvdy/ekl3+3/TgB88se0BMVNUpD1h4qI84gAOddiCqsoMnHW8/WPRx+YtfSr5xysznlz0NOiIEdtpT+sR09gdRcBovgkf+dMq/mv3ebcRge9BtZxD+PGkgPlj4sR0y+UTrHr3OAkkzjwM4UBYHosD2u+5o++xHb1h3ySKf0hBwT+S+9s177U5XH8KZwNX0NGXxne9OXn8RZocSABE3eeKWap9FVXbAjcfZt+a9X5rVit9aEQLuqXsnPvgvHhBTqnnD76WG4sDnHNj28gPsxLfvt+6+ZD6lJbCwaYmtfX6C3XTs0M/tA4IPB3twYA0OEADXAIcFLXXFdPsrD7aPznqhtKsVv70iBBY0LrLmxYl2+ysOssIloamb2zQCrHXlcsDdQjD82Wssr3soX6mftXiOPXVKrV1n5BBqG70rDrTHAQIgi2K5FsW4f0/P0Xva0S9PLt+KxTeVnYA7Gn/LtEdsduIxtvuIwSwS7Vkk+Bk8wYF2O9AtP8D+8PY/29fmTit7fUv7F7onQO990yk8AZr52u75Gve+tKTbRwAkAJZUsKQUony1Peqec9K+fqZi/M2tLfbxD1+y37vlNF4cn5T5yXbS0CTEgd2uPdreO2OqdXWGT3kJNLQ02ZEvTbZfcld5JMQXtpMevGIOEACRr2LyxahA64m/tK/Pfa+8qxXfVjECrjmbOvtVe8Tdf7MbjtmHZiFGc5F6xJqUVAc2HzvU1r9wnZ3XsLBitS3tX+wuBf39w5fY9UZ/m7pOXceBNTlAAGSxTepiW6ztdjeOT3z7AY7YprBzeHXuNHv8Axfajcbsy0KxpoWC/w0/cGDNDkTV9uh7/m7fnDsjhZU0XkN+evZrdu/Jp1jJV695n+E0fNLsAAGQAFisIJXU33PywxfbhY2L47WCsTVlI/DK3HcLR4y3HLc/i2GaF0PGjv9dcGCnqw+11711r21ubS5b7eKLVk3AvRrCPRV063Hfx+kuOJ3Uno7tbmeuIQC2ExSTyMtC2mfCEfaZj163LdyvseqVNCV/+878D+zZT15qt7viQC89Z0GkzuNA6RxwD5Q65eFL7Exe+B6bFePd+TPtAbedbruNGERNp3/FgVU5QAAs3aLAghtvtm5hMC9MtIualsRm0WJDKkfANW//mDqWo8arWij4OxoIHFitA9+69kh767RHKle8+OZVErjq9Tt4IAzzdrXzNvU9OgEw3iEl9YKWsHjtc9PvCvdrtNrWVS4e/GX6CMxYONu6S4LXv3RvFo0Szj3qGuuOLw6sd+ne9szH83bOknnpK5gxH/GcpfPsoXeexSt/qOWs56tygADIQuzLQtyRcXQbMdhe88ZddmlzQ8yXMDav3ATc02CPe+AC24unyLFormrR5O/wYgUHght+Ze9//+lylym+r50EJr59v9328gNwdgVnO9Ir8bMeZwQCoMc7lwm/2qK/1+ST7Gu89qGdS2j6fuyteTPsr+4/3/YcvedqHWJhpHbiQLodcPf+nfzQxXZ+46L0FcmEjHhuw8LCO1+75QdQy+kJcWBFBwiA6V7A0tjAuEXbvSyWe/8SsoJXaDPdQwSOve8822PUEBaNFRcN/hsfcKDgwK7jf2rdGSY+8SZw6Ss32Y3H7Me8Zd7iwIoOEAAJgGkLge79QM9//Kbl3r94L9px2LrX5063QyadyPukVlw0+G+aCBwo1ISf3jXMzl48Nw6lim1YA4FPli6w37z2SCtRwNxl7uLAfx0gABIA0xYAcy9cbxc1LV3DcsH/BIFlBNzrQV755F27w5UHWzE0D2mrFYyX9XF1Drh3zNU/f51taeUhYklYL86depntOaqG5v+/zT//HxcIgCxwq1vgfPz7r48/3D7w/jM89zMJK3ZMttE1eO4hD1tc9l0WDJoGHMCBggN7TDqB+8hjUqPbsxlvzJ1uNx9LDfexr2NMncwxBMBOgmMRTGQjdMID/7LTF3zYnvWCn4HA/wg0t7bYUS9N5iwgdS+RdY8GqbjrfM9Re9rfP3yJdVcI8EkGAXcgzz38TaIq5jB1HAecAwTA4i4MLLTx5bnOyCH2ytdvT8ZqxVbGjoBrIP7y+EgaCJoHmoeUO/DlK39kJ7xxT+xqFBu0ZgKXvnyz7T5yD+ZvyucvffryPp0AGN/AgqTF3TcDbvy1fWTWC2teIfhfIbAGAg3NjfaY+84lBNJA0ESm2IHqG46z0xbMWkOl4H+KI4H3F86261+6N3M3xXOXvnqFvpoAuAIMJoXHhTGwZz6Wt+5pYHwg0FkC7nEP7y2YZQdPOp4nylEvPa6XrIuraxS7jRhkf3rXXztbQvh3FSawz02nMG+p3TjgHCAAstCtbqHz6e/XHb2XHfPKzRVeevh6Hwi0trYWngza+5rDOBNII0EjkTIHtrjsezZ84XofSlkqx1D3/LUcvEvZnPWply3qWAiABMCiChXTwtL32qPsndMfT+WCx6CLT6CxpcneOf0Ju/PVhxIAYjrn01DXGGP512934OdRbiUoflEt02987uM3OHBHzWbddg4QAMu/gLBol5/5oXecZV+bO61MSwxfkwYCCxsX27Gv3mK3GfcDFhMaChxIgwNRla2Z/Bu7pKkhDSXO2zFuNGZf5msa5itjXLPnBMDyhxECYHmZd8sPsMOeGGUX8/J3bxf0Sg1sztJ59oKnr7Qbj9lvzYWWhQg+OJB4B3qMqrG/efDflSo3fG+RCPzgtj8m3kX6yPL2kV7yJgAikZdir9BsuRd4X8r9f0VaOvk1bQm8t+BDe9JDF9keo4bQVKww73yvK4wvfWunO3M0/Nlr2pYA/pwwAv+YOpZaTa3GAQJg+haxtDUu35xwpL3l3SkJW6LY3CQReHHO2/bQO8+y7gxB2uYX42UNSYsDW4/7vp30zkNJKk1s6yoI3DrtUeo0ARAHCIAs3r4v3vve9Dv71OxXV7EM8FcQKA6B5taWwoMh9rv591by1SwsNBc44KEDX77qR/bFOW8Vp2jwWypG4K157zM/PZyfvveyRR8fAZAAWHSpYlZYDr/rb3bafF7aW7HVNiVf7O4xnfTOg1ZNPIbmImY1wPcax/jKs47vcs2P7Zwl81JS0fwdpqvVvUZ/mzpNnU63AwTA8iwcLNCV43zywxfbRU1L/F3NGFlsCCxoXGzHvXqL/do1P073wkJjwf73zYGo2u41+aTY1Bo2pPMEljQ32G9M+Blz1Lc5yng65jQBsHLBhFBYevY9R+1ZeEpj55cK/iUEOkbAnSH451OX2S0v+17HijGLF7xwILYOdBsx2B55z9kdKwb8dCwJLG1utPvf+v9i6xq9Yel7QxjzHkAKgOcNh2vC8y/dGMtFiI3yl4B7MugfptTZjXnfFDXW8xqblkZq3dF72XOnXuZv0UrRyBpbmuyJD/6b2kRtSrcDnAHkSIPPC7h7atuolyenaGljqHEh8Mbc6fZnd5/N6yFoMtLdZHiy/9e7dG8bvXBDXMoL29EFAi4A/r8p9cxLT+amzz1sScdGACQAllSwChcY9wqIm3kFRBeWSv5pZwm0tLbYZz56ze45+TdWoiqajQrXAp/rHGMr/TpOAOxsJYzfvyMAln6+UJMSwJgAmICdROPU6eY5e/0x9u7pT8ZvBWKLUkGgqaXZPvTBszxwgBrW6RpGIxWPNZoA6E/JJgDGY05R2yq8HwiAFd4BNEYlbYwIgP4s2kkdiWs2rnr9Trvt5QeW1HUWU2o5DpTOAQJgUivwyttNACzdPKEGJYgtATBBO4uw2OEGmgC48uLH35SfgHvq3D+fGmc3vHSfDjvMgkqNxoHKO0AALH/dLNU3EgArP5+oaTHYBwTAGOwEgl3JmmICYKmWUH5vRwk0tDTZ0x8Nbc9RNSXznUWVeo4DpXGAANjRihffnycAlmaOUHsSxpUAmLAdRljsUPNMAIzvIpzGLZvfsMgecNvptlt+QIc8ZmGlTuNAZR0gAPpTsQmAlZ1L1LKY8CcAxmRHEOxK0hATAP1ZtH0ZyfyGxXa3647myaDUvJLUPJqr0qzpBEBfKrC1BMDSzBFqT8K4EgATtsNomjrUNBEA/Vm0fRrJa3Pfs7tcc1iHXGZxpVbjQOUcIAD6U4EJgJWbR9SwGLEnAMZoZxDuit4QEwD9WbR9G8mktx+0m44dWnTnWWCp6ThQfAcIgP5UYAJg8ecHNSeBTAmACdxpBMV2N80EQH8Wbd9G0tLaasMXrrcbj9mv3T6zyFKvcaAyDhAA/anABMDKzCFqV8y4EwBjtkMId0VthgmA/izaPo5kSXODHfbEaNuDJ4MWdd7TaLCuFdsBAqA/FZgASH0odn1I5O8jADIREiluO4MyAdCfRdvXkXyydL49+p6/2+4j9iAEtXNe+1yzGFs812QCoD8VmAAYzzlG7SvzfiEAlhk4DU5Zm1wCoD+Ltq8jaW1ttW/Ne98ecKt7PUR1WecHCy71Hwfa5wAB0J8KTABsn/PUBs85EQA938EpD5wEQH8WbZ9H0tjSbKfMfN4OnnQ8ATDlNYumK55rMgHQnwpMAIznHKP2lXm/EADLDJzmpqwNLgHQn0Xb95Esblpqb3z7AfvNCUeWdY6w6LIG4MDaHSAA+lOBCYBr952akAJGBMAU7OQUh04CoD+LdhpGMq9hoR318k32S1ccRAhMcd2i+YrfukwA9KcCEwDjN7+oeRXYJwTACkCnsSlbc0sA9GfRTstIZi+ea//51DjeEUidLFudpPlaex9AAPSnAhMA1+47NSEFjAiAKdjJKW6kCID+LNppGsl7C2bZ06bUWdd0shBTo3Gg8g4QAP2pwATAys8naloM9gEBMAY7IcUBrdRFgADoz6KdppG4l8S/MOct++O7/mq75QcQAqmROFBhBwiA/lRgAiB9b6l7z0T8fgIgEyERonZy8ScA+rNop20krkl5eOZzdp+bTqH57+T897m2Mbbyrt0EQH8qMAGwvHOHWhVT3gTAmO4YGp6iNL0EQH8W7TSOZGlzo73l3SnWecwiSq3Ggco5QAD0pwITACs3j6hhMWJPAIzRziD0Fb3JJQD6s2indSTu9RDmxYl2uysOLPr8YDGm/uNA+xwgAPpTgQmA7XOe2uA5JwKg5zs45aGSAOjPop3mkSxoXGz/+sQou9GYfQmBKa9pNGWVWbMJgP5UYAJgZeYQtStm3AmAMdshNDdFbXAJgP4s2mkfycdL5tkTH/yX7Tlqz6LOERZl1gAcWLsDBEB/KjABcO2+UxNSwIgAmIKdnOJQSQD0Z9FmJNZ+sOgju/+tf7CSryYEpriu0ZyVf90mAPpTgQmA5Z8/1KwYMicAxnCn0NgUrbklAPqzaDOSZQTemT/TVt9wnJUoKNo8YXFmHcCBNTtAAPSnAhMA1+w6tSAlfAiAKdnRKQ2VBEB/Fm1G8hmB+2Y8ZXcdfzghMKV1jQat/Os2AfCz+pP0/yIAln/+ULNiyJwAGMOdQlNTtDMbBMCkL9Vs/+oIjH3l5mVPBuVMYNHqBU0K6+HqHCAArq4SJe/vCYDM89XN81T9PQGQieCz8ATA5C3ObHH7CZz31Di78Zj9CEAcNMOBEjtAAGx/XYr7TxIA6Xt97nvbPTYCIBOh3bKUeIEtxXYQAOO+FLN9XSGwqGmJPeXhi233kXsQABJYn0pR8/idpVnTCYBdqVTx+rcEwNLMEWpPwrgSABO2w2hyOtToEgDjtfCyNcUn4ELgwbf/yXbLD+jQ3GCxpvbjQPsdIAAWv3ZV6jcSANvvPTXCY1YEQI93LmHREgArtcTyveUkMG3BLLvHpBMIgNQ8HCiRAwTAcla00n4XAZC+l2CrrRAAmQg+TwQCYGkXUn57fAi4J4N+Y8LPCAAlCgA+10nGtvY+gAAYn1rX1S0hAK7dd2pCChgRAFOwk1PcEBEAu7pU8u+TQqC5tcVe++a9dserDiEEprjm0biVZk0nACalEq59OwmApZkj1J6EcSUAJmyH0dh0qLklAK59MeQn/CGwpLnB1j9/nd1ozL4dmics3KwDOLBmBwiA/tRJAuCaXacWpIQPATAlOzqlwZEA6M+izUjWTqDVttrZi+favzw+0nYbMYgQmNK6RwNX/HWdALj2+pOUnyAAFn9+UHMSyJQAmMCdRlPT7saWAJiUJZntLBYBFwLfWzDLHnvfeYRAamW7ayUN3Jp7AQJgsSpU5X8PAXDNrlMLUsKHAJiSHZ3SRogAWPnFli0oP4Hm1mb73Mdv2B/e8WcCQEprH01ccdd2AmD561ipvpEAWNy5Qa1JKE8CYEJ3HE1NuxpbAmCpllB+b9wJNLQ02vvff9rWTP5Nu+YKizhrAQ6s3gECYNwrXvu3jwC4es+pASliQwBM0c5OYWgkALZ/UeQn/SOwpGmpnfjW/XbX8YcTAlNY/2jmire+EwD9qY8EwOLNC2pMglkSABO882ho1trUEgD9WbQZSecILGhcbM2LE+0mY/db63xhMWc9wIFVO0AA7Fz9ieO/IgCu2nHmfsq4EABTtsNTFhoJgHFcftmmchOYs2SePfvJS+26o/ciBKasBtLUFWeNJwCWu2qV7vsIgMWZE9SWhHMkACZ8B9LMrLGhJQCWbhHlNyeHgHsy6LvzZ9rj7r+AJ4NSM9dYM2nqVt0TEACTU+/WtqUEwFU7ztxPGRcCYMp2eMqaHwLg2pZC/ve0EGhtbbWvzp3Gk0FTVgNp6oqzxhMA/amUBMDizAlqS8I5EgATvgNpZtZ4NJsA6M+izUi6TsCdCXzyw5ftXpNPsmKCNc4dFnfWBhz4zAECYNfrT1x+AwHwM6+Z4ylmQQBM8c5PQXgkAMZlyWU74kRgwpv32F3H/9RKRAikAWINbI8DBMA4VbCubQsBkDnfnjnv/c8QAJkIPktOAOzaQsm/9pdA+ML1drsrDiQEpuBAmM81vlxjIwD6UwsJgPS95aobsf4eAiATIdaCdrE5IwD6s2gzkuISWNLUUHgy6KZjh3IpaBfrjM81lLEt6xEIgMWtP5X8bQRA+l7qmrZCAGQi+DwRCICVXGb57rgT+GDhR/aY+861PUfVEAIJgTiwBgcIgHGvZu3fPgIgfa/PfW+7x0YAZCK0W5Y1LI5x/R0EwPYvivxkOgm8NW+GPeC20223EYMJAAmscXGtvb5tFwHQn/pIAKTv9a0+dWo8BEAmQqfESUijRAD0Z9FmJKUjMHX2K3bwpOOt5KsJgQmpbT7X7TiOjQBYuvpT7t9MAKTvjWONKfs2EQCZCGWXrowNFgGw3Esr35dUAje/O8V+Y8LPrERVhMAy1iif669PYyMAJrWyrbzdBED6Xp9qU6fHQgBkInRangQ0SQTAlRc//gYCqyNw2Su32C9efgABMAG1zee6HcexEQBXVzWS9/cEQPreONaYsm8TAZCJUHbpythcEQCTtzizxZUjsKS5wV74zH9sj1FDCIFlrFM+12BfxkYArFxdKvY3EwDpe32pS10aBwGQidAlgWLeJBEAi7108vt8JzC3YaE9bUodATDmtc3nuh3HsREA/al8BED63jjWmLJvEwGQiVB26crYWBEA/Vm0GUn5CMxcNMcefPufCIFlrFU+12EfxkYALF/9KfU3EQDpe32oSV0eAwGQidBliWLcJBEAS72U8vt9JNBqW+0zH71mB9x4HCEwxvXN59odt7ERAP2pdARA+t641ZeKbA8BkIlQEfHK1FQRAP1ZtBlJeQk0tzbbe2Y8aftf/wtCYJnqlc+1OOljIwCWt/6U8tsIgPS9Sa9HRdl+AiAToSgixbRBIgCWchnld/tOYGlzo53w5j12q3H7EwJjWuN8rt9xGhsB0J9qRwCk741TbanYthAAmQgVk68MDRUB0J9Fm5FUhsC8hoV2xEuTbPeRexACy1CzfK7HSR4bAbAy9acU30oApO9Nci0q2rYTAJkIRZMphs0RAbAUyye/M00EWq21sxfPtX97YjQhMIY1zuf6HaexEQD9qXoEQPreONWWim0LAZCJUDH5ytBMEQD9WbQZSeUItLS22tfnvmePuucczgKWoW75XJOTOjYCYOXqT7G/mQBI35vUOlTU7SYAMhGKKlTMmiMCYLGXTn5fWgk0t7bYqbNfsfvd/HtCYMzqnM81PC5jIwD6U/kIgPS9cakrFd0OAiAToaIClriRIgD6s2gzksoTaGltsfe9/5TNXH8MIbDEtcvnupzEsREAK19/irUFBED63iTWoKJvMwGQiVB0qWLUGBEAi7Vk8nsgsIxAQ3OTvfK12+22VxxACIxRrfO5jsdhbARAfyogAZC+Nw41peLbQABkIlRcwhI2UQRAfxZtRhIfAg3Njbb2+Wvt+pfuTQgsYf3yuTYnbWwEwPjUn65uCQGQvjdp9ack20sAZCKURKyYNEUEwK4ulfx7CKyawMdL5tqzHh9BCIxJrfO5jsdhbATAVdeBJP4tAZC+Nw41peLbQABkIlRcwhI2UATAJC7PbHNSCLw97317zH3/tOuMHMKZwBLWMZ9rdFLGRgBMSlVa+3YSAOl7k1J3SrqdBEAmQkkFq3BTRABc+2LIT0CgKwSe/eh1e+BtZ9juIwYTAitc73yu5ZUeGwGwK1UiXv+WAEjfW+l6EovvJwAyEWIhYokaJwJgvBZetsZPAndOf9wGN/zKSr6aEFiiWuZznU7C2AiA/tQuAiB9bxJqTsm3kQDIRCi5ZBVsiAiA/izajCTeBMa9eqvtfc1hVqIqQmAFa57P9bySYyMAxrv+dGTrCID0vZWsJbH5bgIgEyE2MpagaSIAdmRZ5Gch0HkCS5sb7fBnr7FfvPwHVqKAEFiCeuZzrY772AiAna8NcfuXBED63rjXm7JsHwGQiVAW0SrUDBEA47b0sj0+E3BPBj3jUWNds+xzXWFs6Vs3CYD+VC4CYPrmLzV7FfucALgKKBUKKwha/H1BAPRn0WYkySDwzvyZ9uf3/oMng7KOeHUQgACYjPrTnq0kABa/16J/TSBTAmACdxqNRbsbCwJge5ZDfgYCxSXw0py37XduPtV2yw9o91ylgWAtirMDBMDi1ohK/jYCILUmzrWmbNtGAGQilE22CgRXAmAll1m+O80Epsx83u46/nDuB6xA3fO5pldqbARAf6oZAZC+t1J1JFbfSwBkIsRKyCI3SwRAfxZtRpI8Aje+/YDd8aofcRawyHXN55od17ERAJNXf1a3xQRA+t641pmybhcBkIlQVuHK3AgRAFe3BPL3ECg9AddoXfbKLbbHqCGEwDLXPp/reiXGRgAsfb0o1zcQAOl7K1FDYvedBEAmQuykLGKjRAAs15LK90Bg1QTmNy6y5z19OQGwiHXN55od17ERAFc9v5P4twRA+t641pmybhcBkIlQVuHK3AQRAJO4PLPNvhH4aMlc+9uHhhMCy1z/fK7t5R4bAdCfqkQApO8td/2I5fcRAJkIsRSzSI0SAdCfRZuRJJdAq221b8973+41+SRCYJFqm891O45jIwAmt/603XICIH1vHGtM2beJAMhEKLt0ZWyACIBtlz7+DIHKEGhpbbHPfvy67TPhCEJgGWugz/W9nGMjAFambpTiWwmA9L3lrB2x/S4CIBMhtnIWoUkiAJZi+eR3QqBzBBpbmu0906fa7a88mBBYhPrmc+2O29gIgJ2b83H8VwRA+t641ZeKbA8BkIlQEfHK1PwQAOO4/LJNaSawsHGJvfTlm2zPUTWEwDLVQZ9rfLnGRgD0p2oRAOl7y1U3Yv09BEAmQqwF7WKDRAD0Z9FmJP4QmNuw0F707NW2W34QIbCLNc7n+h2nsREA/ak/BED63jjVloptCwGQiVAx+crQ+BAA/Vm0GYlfBD5Y9JH9w5Q6223EYEJgGWqhz3W+HGMjAPpTfwiA9L3lqBmx/w4CIBMh9pJ2oTkiAPqzaDMS/wi8/Mk79tA7z7LdRnAm0Oc67MPYCID+1B8CIH2vDzWpy2MgADIRuixRFwJaqb+bAOjPos1I/CTw2KwXC6+H6JYfwJnAGNfSUtfquP9+AqA/9YcASN8b93pTlu0jADIRyiJahRobAqA/izYj8ZOAa8YmvfOg7XvtUVaigBBYoVrp8zpQjLERAP2pPwRA+t5i1ITE/w4CIBMh8RKvoWEiAPqzaDMSfwksalpiR7082e7A6yEIwGuo55VcqwiA/tQfAiB9byVrSWy+mwDIRIiNjCVY+AmA/izajMRvAnMbFth/PjXObj72u4SgEtRCn+t8OcZGAPSn/hAA6XvLUTNi/x0EQCbC/2fvTeCkqq59/9MoUf+a5CYmL8YkL8lN3j+TiVehq2kCAip6nWeTZ9RonOIQkxiHmMTERI0aEzVMVc08CoKIgoyCCKggiqCgMssk89BAz0Otd3cpCthdXVW9z7DX+fbnc6+kh332Wue31m9961SdE3mRtmIYAgD1mDaR6M/A2j2b5ZY5/xIzbGvuS8Tmnu8CgHr6DwDoXv3RM304ZwCgD0ltBbAgcrvnAwDUY9pEEo8MvLVjpfzk+XvkUB4UDwRHyEsBQD39BwC0O2cxtzqaTwDQ0RMXIWOMcvEDgHpMm0jik4E5mxZJtwm38HgI+nxkIBgA1NN/AEDm3ijPrYHtDQCkEAITWwjDDACox7SJJD4ZqGtskMnr5spxY67gzqAh9E3NnlBobACgnv4DADL3FtoHVP0dAEghqBL0QcMSAKjHtIkkXhmob2yQocsmy9dHXgQEHtTXNPfsqMYGAOrpPwAgc29U+0yg+wIAKYRABRfwIAMA6jFtIolfBvbUVcrDC4fJkYO6R+atgJr7JbE1Pw8AgHr6DwDYvM7pATHKDQAYo5MdMHxFoZEAgHpMm0jimYHNlTvl1y89Lof26wIExrCHR8FHzB4AQD39BwBk7o1KXwl1HwAghRCqAH0eaABAPaZNJPHNwIa9W+Wy6X+RorKOQKDPPVOzH7QmJT4A8AAAIABJREFUNgBQT/8BAJl7W9ML1PwtAEghqBFzE4MRAKjHtIkk3hl4d9caOX7sVeIlS4DAJnqd5j4ehdgAQD39x3y++F+LRtJH6CPx1gAACABGwVz92gMAqMe0iSTeGWhMN8riHav4PCBDWyhDGwCop/80pBtlzKoXQtGRX7MO6zLL560BABDR5C0ahwYQAFCPaRMJGWhMpzOPh2g7oBvDm0N9WIPHAIB6+o95MemZ92bTQ+gh8dYAAAgAajDn5mIAAPWYNpGQAZOB2sY6eWThiHgbN4Nb4OcfANTTfwBA5t7mZsZYfR8ApBA0Cx4A1GPaREIG9mVgb12V/Oblf/N8QEAwMBAEAPdVn/v/BQCZezXPvTnHBgBSCDmLxcFhAwB036yJgAw0lYGdNbvlZ9PvFS/VITAI0NwriS37LAAANlWFbn4PAMyudXpBTPIDAMbkRDsIbzaaEADopkGzazKQSwbW7tksiXHXAoEx7e82PCLXNQDAXCrSjd8BAJl7c6171b8HAFIImgUOALphyOySDBSSATPIvbb1Xfn+mCt4OygQ6OuVYACwkAqN5t8AgMy9mufenGMDACmEnMXi4IABAEbTgNkVGbCVgeqGWnl69YvytREX+goAmvsksbU8BwCAtio2/HUAwJb1Tk+IQY4AwBicZAfBzVbzAQDDN1t2QAb8zsCu2r3Sc/FY+fyQs4DAGPd7W77R1DoAoN9VHNz6ACBzb1M1HrvvAYAUgmbRA4DBmSpHIgNhZmBz5Q758/x+cuTA7kAgEGhdAwBgmNVt99gAIHOv5rk359gAQAohZ7E4OFQAgHaNk9XIQJQzsKJ8vfxi5gPSpt9J1gFAc58ktpbnAAAwypWf394AwJb1Tk+IQY4AwBicZAfBzVbzAQDzM8ao/7Yx7oZ0Q9S3yf5CzIC5Kcw5k++UQ4BAINii9wGAIRa15UMDgMy9tmZMp9cBACkEpwXcgsEDgJadM+TlVu/emLnrYz0QGPKZiO7h6xsbZMaG16Xz+Jt4PEQL/VFz77cdGwAY3ZrPd2cAIHOv7f7g5HoAIIXgpHBzHGwAwHytMdq/P239fLlh9j9k9qZFAgRG+1yFubuKumoZtfJ5+cGYy7kKlmOv1OwDNmIDAMOsaLvHBgCZe230BOfXAAApBOdFnGXAAQDtGmfYq01eN1d+MOYK+enzf5YlO1eFvR2OH+EMlNdWSJ8lT8vXRlwEBGbpkZr7v83YAMAIF3ueWwMAmXtt9gZn1wIAKQRnxZvDUAMA5umMEf91A4DfGHmxHDmou9z28r9lzZ5NEd8x2wszA9uqdskf5iXl04NOAwJz6JeavaC1sX1m8Bli+g9f7mcAAGTubW0/UPH3ACCFoELIzQw3AKD7Zr1/BPsA0Gj2c0POlPsXDJItVTv3/xX+TQYOyID53OhVM++Xtv27AYHN9EnNHmArtqOHnCWvb1t6gLb4H25mAABk7rXVF5xeBwCkEJwWcAsDDQDopkE3t+v9AdDo9msjLpRhyydLRX11c3/C98mALN6xSs6dfJe06dsZCGyhZ2r2g9bEBgDqaSQAIHNva3qBmr8FACkENWJuYrABAPWYtonkYAD0Uh3kO6N/Ks9vmC8N6UZdwRKNtQwYbczauFCOH/tz7gzaRJ/U7AG2YgMArZVj6AsBgMy9tvqC0+sAgBSC0wJuYZgBAEP3Wqsb+AQAmvOf6iAdn71BXt36NhBoNdu6FqtpqJPxa+bIl4efx1XAFvqmZk8oNDYAUE8/AACZewvtA6r+DgCkEFQJ+qDBBgDUY9omkiYBMJmQorKOcu7kO8V83osvMtBcBqobamXAu89xU5iD+qRmD7AVGwDYXFW5930AkLnXVl9weh0AkEJwWsAtDDIAoHvmnG3HzQGg0XBR305y3YsPcVOYbAnkZ1LdUCN/fDUlh/TrwpXAFvqnZm/INzYAUE/zAACZe/Otf5W/DwBSCCqF/eFgAwDqMW0TSTYANDo2VwL/sWiE7K2r0hU40VjNQE1DrVwx46/ilZUCgUBgThoAAK2WYKiLAYDMvZrn3pxjAwAphJzF4uCgAACG6rPWD94SAGa0nCqRZ9fMlrrGeuvHZ0E9GSiv2Ssnjb8pp+Ffc48kttxmAABQT+0DgLlpnt6gPE8AoPIT7CC02Ww6AKAe0zaR5ASAyYS0HdBNZm9cxE1hdJ1+69FsqNgqxw4/HwiMuU/k4jkAoPXyC21BAJC5N5eaV/87ACCFoFnkAGBoHuvLgXMFQKPp/xx1iby7a40v+2BRPRlYsG2ZHDXoNCAQCMyqAQBQT80DgMy9mufenGMDACmEnMXi4IAAAOoxbRNJPgBodN1twi2yuXKHriQQjdUM1Dc2yNBlk+WIgd2zAoDmPklsLc8BAKDVsgt1MQCwZb3TE2KQIwAwBifZQXCz1XwAwFB91vrB8wVAL1UiV79wv+yoLre+FxbUk4GK+mr562sD5EggEAhuxi8BQD31DgAy99qaMZ1eBwCkEJwWcDNmvS8mAFCPaZtI8gbAZELa9O0s9y0YJBX13BlUlxrsRrOrZo/c9vK/eTxECz11X2+N238BQLv1FuZqACBzb9z6V5PxAoAUQpPCUDIEAIBh2qz9YxcCgEbfRww8VYYtnyzmQeB8kYGmMtCYTsuK8g1yybQ/8XgIJf3fprcBgE1VjZvfAwCZe232BmfXAgApBGfFm8OQAgC6adDN7bpQADRvBf3aiAtlwpqXxHzmiy8y0FQGDAQu2r5CupjHQ/CMQN4Oup/HAIBNVYyb3wMAmXs1z705xwYAUgg5i2U/M3TlbwBANw26uV2PXzNHjhl2bkGDaVFZqXR45nqZs2lRc8vzfTIgNQ11MmXdPDl+7FUF6cyV3sg+8/N+AFBPcwAA89M+vUJpvgBApSfWQVjzo8kAgHpM20QyYvnUVn1Gq02/k+T8Kb+Xt3as1JUYorGagfLavdL/3QnyzZEXA4F4SUYDAKDVEgt1MQCQudePedO5NQFACsE50eYxkACAofqs9YMPWjqx1QP5pwacLNe9+JCs2bPJ+v5YUE8GtlWVyyOLnpAvFXjFWXNfjWNsAKCe2gYAmXvj2MM+ETMASCF8QhR5AFbU/xYA1GPaJhIbAGg0+5nBZ8i9r/WXXbV7dSWIaKxmYN2eLfKbl/8t5kWDqPc69uevlwOAVksr1MUAQH9rhV7kSH4BQEdOlCIoC7I5AICh+qz1g9sCQKPBrwy/QJJvj5PK+mrr+2RBHRkwg+I7O9+Ty6bfK+YzpEH2Lo4VLW8GAHXUtIkCAIxWbdHrQjofAGBIiQfoAhmmAEA9pm0isQmA5s6gx425QsasekHqGut1JYporGXADItzNy+R0yfexp1BY+xbAKC1kgp9IQCQuRfoTIgHAFIImgsBAAzda61uwCoAJhNSVNZRuk64WV7c+IbVfbKYrgyYO4NOWjdX2j19TSAvXGnuya7GBgDqqWkAkLnX1T5kdd8AIIVgVVARe4UYANRj2iYS2wBotG/uDHrO5Dtl/tZ3dCWLaKxmwLxVeNjyKfLtUT8BAiPW54PwMADQajmFuhgAyNwbRM+I/DEAQAoh8iJtxbABAIbqs9YP7gcAGv0bCLx5zr9k7Z7N1vfMgnoysLeuUh5aOEwMDGjum8T2ybkAANRTxwDgJ/VNzccwJwBgDE96K4DKtSYBAOoxbROJXwBodN22fze5b8Eg2VFdritpRGM1A7trK+T6WQ/Lof27AIEx8hIA0GoZhboYAMjc69os68t+AUAKwRdhRWQwAABD9VnrB/cTAE0dHDXotMydQffUVVrfOwvqycCWyp1y/pS7pahvJyAwIr3ebx8DAPXULwDI3Ot3v3BifQCQQnBCqAUOGQCgHtM2kfgNgKYWvjHyYpm2/lWpb2zQlTyisZqBd3etkcS4a8VLdQACC+zPLnkPAGi1fEJdDABk7nWp9/i2VwCQQvBNXBEYCgDAUH3W+sGDAEBTD98dfZm8uvVtaUynrcfAgnoy8PLmt+SbIy8RL1kCBEag3/vpZQCgnroFAJl7/ewVzqwNAFIIzoi1gAEDANRj2iaSoADQ1ETXCbeIucqTBgJ1ichyNFPWzZNjhp0LBBbQn13yHgDQcuGEuBwAyNzrUu/xba8AIIXgm7giMBAAgCG6rA+HDhIATV386qVHZWPFdkkLVwJ9OJ1qlvzHwhFyxMDuXAWMQM/3y88AQDXlKgAgc69ffcKpdQFACsEpweY5YACAekzbRBI0AJraePCNIbKzejcIqEtK1qP59cuPy6H9uwKBefZoV/wHALReMqEtCAAy97rSd3zdJwBIIfgqsJCHAQAwNI/15cBhAOAh/bpI33eeleqGGl9iYlEdGaioq5afTv+LeGWlQGDIfd8PTwMAddSpiQIAZO71o0c4tyYASCE4J9o8hgsAUI9pm0jCAEBTH18efp5MXPuyrmQSjfUMrChfL53H3wgA5tGjXfEfANB6uYS2IADI3OtK3/F1nwAgheCrwEIeBADA0DzWlwOHBYCmRr795E/kta3v+hIXi+rIgPms6Pyt78hxY64EAkPu/bZ9DQDUUaMmCgCQudd2f3ByPQCQQnBSuDkOFwCgHtM2kYQJgKZOzJ1BV+/eqCupRGM1A+b5kePXzJFjh58PBObYp13wIADQapmEuhgAyNzrQs/xfY8AIIXgu8hCHAIAwFB91vrBwwZA8/muG2Y9LJsrd1qPjQX1ZKCivkoef2u0fHbwGUBgiP3fprcBgHrqEwBk7rXZG5xdCwCkEJwVbw6DBQCox7RNJKEDYDIh5qYw98zvKzuqy3Ull2isZmBnzW7546tlcsTAU4HAHHp11H0IALRaHqEuBgAy90a93wSyPwCQQghEaCENAABgqD5r/eBRAEAvWZK5svPPRSOltrHOeowsqCMD6XRa1u7ZLDfN+acU9e0IBIbkAbb8DQDUUZcmCgCQuddWX3B6HQCQQnBawC0MFQCgHtM2kUQDABPipUrk6yMuksFLJ+pKMNFYzUBDulGW7Fwtlz5/DwDYQq+Oug8BgFZLI9TFAEDm3qj3m0D2BwBSCIEILSTzBwBD9VnrB48MABo9p0rl+LFXydT1r1qPkwX1ZKCusV7mbFokJ42/CQgMyQdseBwAqKcmAUDmXhs9wfk1AEAKwXkRZxkqAEA9pm0iiRQAJhNS1Lez/PfE38kb25bpSjTRWM1AZX21jFn1gnxv9OVAYJZ+HWUvAgCtlkSoiwGAzL1R7jWB7Q0ApBACE1sIxg8Ahuqz1g8eNQA0tXNo/65yxYy/yary963Hy4J6MrC7tkJSbz/D4yFC8AEbHgcA6qlFAJC510ZPcH4NAJBCcF7EWQYKAFCPaZtIogiApn7MnR7vmNtLtnFnUF2CsxzNtqpdcu9r/eXIQd25Epilb0fRkwBAy8UQ4nIAIHNvFHtM4HsCACmEwEUXoPEDgCG6rA+HjioAmjuDfmHo2fLom6OktoE7g/pw6lUsue/OoNfNeog7gwboAzY8DgBUUYKZIABA5l4bPcH5NQBACsF5EWcZJABAPaZtIokuAH5wZ9CvjbhQhi6bpCvpRGM1A43ptCwrXyc/ef7PUlTG4yFc8R8A0GoZhLoYAMjc60rf8XWfACCF4KvAssBZEMcFAEP1WesHjzQAGq2nSqT9uGtk+obXrMfOgnoyYCBw9sZFUjLuOt4KGrJH5OpDAKCm+muUZ96bTe05Unu51ii/lyfPAIB5JoyCcappAoB6TNtEEnkA/BACz518l7y5fYWkdaWfaCxmwECgGUK/N/pnTvXUuA5ZAKBF8Ye8FFcAmXvj2scOiBsApBAOEIQywAUAQ3Zay4d3AgA/rKGrXnggc2fQNBhoWQW6lhu4dKJ8dcSFYj5HqrkXux4bAKin7gBA5l7X+5GV/QOAFIIVIUUUHAFAPaZtInEJANv06yz3zC+TLVU7dZ0EorGagar6Grl7XpI7g0bUQ/b5IwBoVfahLgYAMvfuq+tY/xcApBA0FwAAGKrPWj+4SwBo6so8HiL59jjZU1dpPRcsqCcDBgJ//sJ9mWdKau7HLscGAOqpNwCQudflXmRt7wAghWBNTBF8BRcA1GPaJhLXANDUlnk8xFOrZ0p1Q62uk0E0VjOwfu9WOW/KXVLUtxNvBY2glwCAVuUe6mIAIHOv5rk359gAQAohZ7FE0JRb2jsAGKrPWj+4iwBoNHri2KtlxobXpbaRZwRaF4WiBeduXizFT18rXqoDEBgxvwEA9RQaAMjc29LsGIufA4AUgmahA4B6TNtE4ioAmho7ZcKt8trWd6S+sUHXSSEaqxmYuPZl+e7oyzKPFNHcm12LDQC0KvNQFwMAmXtd6z++7BcApBB8EVZEXr0FAEP1WesHdxkATZ1dNv0v8t7ujZJO84AI6+JQtODw5VPkc0PO5CpgRHzE1C4AqKfAAEDmXs1zb86xAYAUQs5iiZAZ57pnAFCPaZtIXAfANn07y+1ze0p57V5dJ4ZorGfggQWDpW3/bkBgRHwHALQu8dAWBACZe3OdIVX/HgBIIWgWOAAYmsf6cmDXAdDUmoHAx956Uqrqq33JEYvqyEBVfa3cPPtf3BQGANQh6AhFAQAy92qee3OODQCkEHIWS0SMOJ/9AoARcl0LW9EAgEa/nx18hoxcMc1CRlhCcwbW7tkslz5/D1cBI+A9XAHUU2kAIHNvPnOk2t8FACkEteJOJgQA1GPaJhItAGhq7vtjLpeZ7y/QdYKIxmoGGtNpeWPbMjl5wq+AwJAhEAC0Ku1QFwMAmXs1z705xwYAUgg5iyVkAy5knwBgqD5r/eCaANBLlkinZ3+ZGfCtJ4oF1WTA3DXWPELkB2OuAAJD9CAAUE1JCQDI3FvIPKnubwBACkGdqPcbEgBAPaZtItEFgAkpKusol0z7k2yq3K7rRBGN1QxUN9TKyBXPc2fQ/Xp70L4FAFqVdKiLAYDMvUH3j0geDwCkECIpTEtGDwCG6rPWD64NAE3ttR3QTW6Y/bBUN9RYzxcL6slAeW2F9HhrjHyex0OEciUUANRTSwAgc6/muTfn2ABACiFnsViCsiCPBwDqMW0TiUYANPVw1KDT5G+vDwQCdcnVajRpScumyh3yh1dTmTvJBtlHORbPAbQq5pAXAwCZe+lpCfEAQApBcyEAgCE7reXDawVAL1UiXx9xkQxdNslyxlhOUwbM4LqifL1cP+vhUK6CafaKlmLjCqCeSgIAmXtbqvdY/BwApBA0Cx0A1GPaJhK1AGiurqdK5bgxV8jTq1/UddKIxmoGGtKNsmj7crlgyt1AYIDvSgEArco41MUAQOZezXNvzrEBgBRCzmIJ0Gxt7QkADNVnrR9cNQB+CIGdn71R5m99x3ruWFBPBsydQSevmys/fOpKIDAgXwIA9dQPAMjca2vGdHodAJBCcFrALZg/AKjHtE0k6gEwA4Ed5MKpf5CNFdwZVJd67UZjIHDEiqly7PDzgcAWfMCGxwGAdvUb5moAIHOvjZ7g/BoAIIXgvIizmD8AGKbN2j92LAAwmZCivp3kuhcfku3V5faTyIpqMmAeD9Fr8VgxcKK5j0chNgBQTdnwHMAsM1MUao09BMQlAGBAiabgQhlQAEA9pm0iiQsAGgM8clB3+dvrA2R3bYWuk0g0VjOwtWqX/O6VHtK2f7dQemxchjUA0KpsQ12MK4DMvXHpW1njBAAphKwCcRxcAcBQfdb6weMEgKYuvzL8Aun/7gQxV3r4IgPNZWDd3i3y8xfuk6K+nYFAnzwLAGxOfe59HwBk7tU89+YcGwBIIeQsFp+M1c/jA4DumXO2HccNAE1tmDuDjls9S2oa6rKlhp/FPANv7VgpZ0+6I/P2YT97alzXBgD1FBgAyNwb1z52QNwAIIVwgCAchLxs+wcA9Zi2iSSOAGj0fcqEW+WVzYulPt2g64QSjdUMTFv/qnR45nopKuvIlUDLXgYAWpVqqIsBgMy92ebG2PwMAKQQNIsdAAzVZ60fPK4AaGr0yhfuk6Xla8U8B44vMtBcBp5YMU2+M/oy8VIdgECLEAgANqc4974PADL3ap57c44NAKQQchaLRTMN6pgAoHvmnG3HcQZAc2dQc7OP9Xu3SFrS2dLEz2KcgZqGWnnszSfli0PPES9ZAgRa8i0AUE9RAYDMvUHNoJE+DgBIIURaoK00bwBQj2mbSOIMgKZOPz3oNHlgwWAeD6FL1tajKa/dK3fP6yOHDTgZAGylh+zzRwDQukxDWxAAZO7dV9ex/i8ASCFoLgAAMDSP9eXAcQdAU6tfGHq2pN5+RvbUVfqSYxbVkQHzeIgrZ9wnbbgzqBUIBgB11IWJAgBk7tU89+YcGwBIIeQsFkuvpAZ5PABQj2mbSADAD/rVf466VJ5b+zJ3BtUlb+vRvLPzPen+3G/FKyu1AkFB9u6oHQsAtC7P0BYEAJl7o9ZfQtkPAEghhCK8gGASAAzNY305MAD4cb/qPP5Gmb/1HWngzqC+aE3Loi9telNKn72BzwO20nMAQC0VwRVAzTMfsX08I7SYCwAwj2S10kBaPBmsb/1VagBQj2mbSADAA/vVuVPukqXlaySd5qYwupRuN5op6+bJl4edZ72/xsnTAEC7mgxzNa4AHugjcapjYt3v3AOA+yUDAFM3IACAYdqs/WMDgAf2K/O8t2tffFB21eyxn2xWVJOB2oZ6Gb58irTpd5K6Hh/UQAcAqikHPgPIrEsfNBoAAA8cqIIyE44TTN4BQD2mbSIBAD9ZN+ZOj7+f14cHQ+iSuvVoqutr5e8LhgCBBQ6/AKB1SYa2IFcAP+kjzKQxzAkAGMOTXqAButggAMDQPNaXAwOATferIwd2l15LxvqScxbVk4EtlTvlhlkP8+p3AR4IAOqpAwCwaR9xccZjz604lwBgK5JXgIkg1mDzDQDqMW0TCQDYfP18efj5MvP9BbpOONFYzUBjOi1Ld62V86f8HgjM078BQKtSDHUxALB5H2FGjVFuAMAYnew8DU9DIwAAQ/VZ6wcHALP0q1SJHDfmSlmyc7X1vLOgngw0pBtlwbal0vHZXwKBeXgiAKinBgDALD6SR01omBFjHQMASCFoLgAAUI9pm0gAwBb6VVmpdJtwi7y3Z6OuE080VjNQ39iQuVrMnUFbqKf9hmEA0KoEQ10MAMxd95rnw9jHBgBSCJqLAAAM1WetHxwAbLlftenbWS6ddo9U1ldbzz8L6slAdUOtjF45Qz496DSuBO4Hes35IQCoR/sAYMs+0lwd8H1FuQMAFZ3MHEwsbsULAOoxbRMJAJhbv2rbv6vcOPsRXSefaKxnYFfNXvnXm6PkEB4P0SIEA4DW5RfaggBgbj4St3kxdvECgBSCZtEDgKF5rC8HBgBz71efHXyGPLLoCalPN/hyLlhURwa2V5fLX17rJ15ZaYsQpNkrWooNANShdxMFAJi7j7RUF/zc4VwCgA6fPK74tTiwAIB6TNtEAgDm16++OfISGbPqBalrrNclBKKxmoE1ezbJ9bMelqKyji321LgOfACgVcmFuhgAmJ+PxLXm1ccNAFIImkUOAIbqs9YPDgDm369OGHt15oYf5sYffJGB5jIwd8sSOWXCreIBgU1CMADYnHLc+z4AmL+PaJ4TYxsbAEghaBY/AOieOWfbMQBYQL8qK5WzJt0ub+5YIel0Olt6+VnMMzB53Vw58elf8HbQJt5dAwDqKQ4AsAAfaaImNM+OsYgNAKQQNAsdANRj2iYSALCwftWm30lyzcy/i3mrH19koLkM1DbWyxMrpsr/efKn4qVKmrwSptkvssUGADanGve+DwAW5iPZ6oOfOZhTANDBk8YrMTkPJgCge+acbccAYOH96rABJ8vv5/WRbVW7sqWYn8U8A3vrquSxN5+ULw49J+c+G4fhDwDUUxgAYOE+Eodaj02MACCFoFnsAKAe0zaRAICt61fHDj9fei5+Sszt//kiA81lYGfNbrl7XlKOHNgdCPzwBVcAsDm1uPd9ALB1PqJ5ZoxVbAAghaBZ8ACge+acbccAYOv71XFjrpQnV06XirqqbKnmZzHPwMryDXLNzAflUwNOBgKTCQEA9RQEANh6H9E8N8YmNgCQQtAsdgBQj2mbSABAO/2q87M3yvQNr0lNQ50ugRCN1Qws2r5CLpz6BzmkX5fYQyAAaFVaoS4GANrxEc2zYyxiAwApBM1CBwBD9VnrBwcA7fQr87w3c2fQN7YvyzwU2fqJYkE1GXhx40Ipeea62N8ZFABUI2keBM99JGL/glZm7gcA7QxUmiHK5dgAQD2mbSIBAO31KwOBV8+8X1aUr5dGHg+hq1AsRlPXWC9Pr35Rvj7yoljfGRQAtCiqkJfiCqA9H3F5Poz93gFACkFzEQCAITut5cMDgHb7lfl8l7nZx1buDGpZqbqWMxCYfHucfGHo2eIl4/l4CABQj6YBQLs+onmGVB0bAEghaBY4AKjHtE0kAKD9fmWG+n+/NUZ211boEgvRWM2A0cff3xgih8b084AAoFU5hboYAGjfRzTPkWpjAwApBLXiTiYEAAzVZ60fHAD0p199ZfgF8sSKaVLdUGv9nLGgngyYK8W3vvRYLD8PCADq0TEA6I+PaJ4lVcYGAFIIKoX94YecAUA9pm0iAQD961c/GHO5vLr1bWlIN+oSDdFYzcCGim1y9uQ7YncTBQDQqoxCXQwA9M9HNM+T6mIDACkEdaLe7w5XAGCoPmv94ACgj/0q1UFOfPpq2Vi53fp5Y0FdGVi1+/0PbgqzX6/V7CMmNgBQj4YBQB99JEY9wfmeBwBSCM6LOEvDAQD1mLaJBAD0uV+lOmSu7uyq2aNLOERjPQMvb1ocKwgEAK1LKLQFAUCffSTLTKZ53nQuNgCQQnBOtHk0FwAwNI/15cAAoP/9yjwe4o65PX05fyyqJwO1jfUyeuUMadu/ayzeDgoA6tEuAOi/j2ieK9XEBgDy4g2zAAAgAElEQVRSCGrE3AQYAoB6TNtEAgAG068O6ddFei1+Spd4iMZ6BirqqjKPh9DsIftiAwCtyye0BQHAYHxkX+3w34jmGwCM6IlpAmYoovzPFQAYmsf6cmAAMP8aKLRvHDbgFBm7eqakfTmTLKolA+btwn+e31f9Q+IBQC2KFQEAg/ORQv2HvwvgHAGAASQZmAvtLUIAoB7TNpEAgMH2q88NOVMWbl8mjWkwUFcl2Y3m/YptcsWMv4mXKg2t1/s9MAKAdjUT5moAYLA+4ndtsn6B5xMALDBxQJ0TRg8Ahmmz9o8NAAbcr1IlYh4PsXTXWklzLdC+oBWtuKx8nXR/7rdqIRAA1CNWADBgH2Fejua8DABSCJpfPQEA9Zi2iQQADL5fFfXtJOdOvlPW7d2iS0xEYzUDDekGmb1xkRw/9iqVbwcFAK3KJdTFAMDgfUTznOlsbAAgheCseHN4VQkADNVnrR8cAAynX31qwMly85x/yvbqcuvnlAX1ZKC6oVbGrJrxweMhUiXRfNU7B99oyhMBQD06BQDD8ZGm6orvhXguAMAQk1+gEVEwuZ8zAFCPaZtIAMDctW+7T3x28Bly3+uDZFftXl2iIhqrGdhbVyn93hkvxww7DwC0mlkWs5UBADA8H7HtS6zXinMJALYieQBc5A0eALRlmdFYBwAMt199fcRFGQivbqiJhiDYRSQzsLFim/zx1TL59KDTIu8RuQ6QXAGMpNQK2hQAGK6P5Fpz/J7P5wkA9DnBQGKoAwAAWJA/RvaPAMDw+9UJY6+SKevnSW1jXWR1wsbCz8DK8g1y4+xH5PABp4TqAbaGSAAwfE3Z2gEAGL6P2KpL1mnFuQQAW5E84C7yxg4A2rLMaKwDAEagX5WVyqkTbpW5mxdLQ7oxGsJgF5HMwJs7VsrF0/4obfp2jrxXtDRIAoCRlFhBmwIAI+AjzM/h90QAkEJoyfhc/jkAWJA/RvaPAMBo9KtD+3eRy2f8Vd7Z+V5ktcLGopGBme8vkJPG3yRFZR3DH3haMXQCgNHQk41dAIDR8BGXZ0sVewcAKQQVQm7G2AFAG3YZnTUAwOj0qyMHdZdbX3pMVu1+PzoCYSeRy0B9Y4OMXTVTfvjUleKlOjgLgQBg5KRV8IYAwOj4iOb5M/KxAYAUQuRF2gzc5bJvALBgj4zkHwKA0epX5s6gf39jCI+HiGS1RGdTe+oqJfn2OPnK8AsAwOicltjuBACMlo/kMsvxOz6cMwDQh6S2AlgQud3zAQDq8ngA0G592Og33xh5cebOoGbI54sMNJeBbVXl8tAbQ8VcSbOhu6DX4Apgc2fWve8DgNHzkaDrmeMlxAMAKQTNhQAAumfO2XYMAEazX5m39z3z3iypqufxENn0G/efba7cKb+c/Yi0HdDNOQgEAPWoFwCMpo9onkUjGRsASCFEUpiWrqICgHpM20QCAEa0X6U6SNcJt8j8re9wZ1BdJWc9GvN4iPOm3CVFjt0ZFAC0LoXQFgQAI+ojluY+zTOt1dgAQArBqqAiVsAAYGge68uBAcDo9itzq/8Lpt4tZsDniwxky8Ci7Suk8/gbxSsrdeZKIACY7Yy69TMAMLo+onkejVxsACCFEDlRWoRIANAtY25ptwBgtPvVIf1OkutnPSybKne0dCr5eYwzYJ4f+crmxfLVEeamMCVOQCAAqEewAGC0fUTzTBqp2ABACiFSgrQIfyYuAFCPaZtIAMDo96u2/bvKv98aI3vrqnSJj2isZsA8HmLa+lfF6MUFDwIArZ7+UBcDAKPvIy70BOf3CABSCM6LOAs0AoCh+qz1gwOAbvSrwwacLE+vflFqG+uta4AF9WSgrrFeei952onnAwKAenQHALrhI5pn00jEBgBSCJEQYhaIa83+AEA9pm0iAQDd6VefH3KmzN60UMywxRcZaC4DtY11cuPsRyJ/FRAAbO4Muvd9ANAdH2nN/MfftnCeAcAWEuQTmCDMYPIOALpnztl2DAAGUze2+tP3x/xM1u/dku2U8jMyIDUNtXL5jL+Kl4ru5wEBQD1CBQDd8hFbfsQ6B513APCghAB8kX8lNp8iBgD1mLaJBAB0r18lnrmOzwPqKkNfolm/d6sUj7s2sjeFAQB9Oe2hLAoAuucj+cx9/G6O5xcAzDFRgKGTYAgAhuKvvh0UAHSzX5mrO3vqKn3TBQu7n4G0pGXZrnXy1REXRvJKIADovsb2RQAAuukjgJ3l8wYAWk4ooBgpUAQA91mejv8CgG72q6KyjnL/gkFcCdRRhr5FYW4KM239fPmagcCIeSkA6NtpD3xhANBNH4laT3B+PwAgheC8iLMMCgBg4N7q6wEBQHf7Vdv+3WTAu89JdUONrxphcbczUFFXLQPfnSifG3JmpCAQAHRbV/vvHgB010c0z6uBxwYAUgiBiy4LsNneCwC4v+25/28A0OV+VZJ58PeENS+JeRA4X2SguQzsrN4tD74xVI4c2D0yEAgANne23Ps+AOiyj7B3a3MyAIiYrIkpQLDLdc8AoHvmnG3HAKDj/SrVQU4ce7W8snlxttPMz8hA5u6x5vEQh/Q7KRIQCADqESUA6LiPRHDWzHUmjdTvAYAUQqQEabmwAUA9pm0iAQDd71dFZZ2k+3O/lXd3rdElTqKxnoElO1fLBVPulkP6dQkdAgFA66c3tAUBQPd9RPPcGlhsACCFEJjYLMNdLvsGAEPzWF8ODADq6FefGnCyXDfrIVm7Z7MvOmFRHRkwbxU2V4tPfe5W8cpKQ4VA85nEWRsX6khszKMAAHX4SC4zIL+T5VwDgFmSEwKwIFa75wMA1OX0AKDd+giz33x28Bny5/n9ZGvVLl0iJRqrGaisr5Fx782SE8ZeHSoAHjXoNHlixTSrsbFYOBkAAPX4SJge5vyxAUAKwXkRZwF1ADAcg/XrqACgrn71leEXSK8lY2V3XYVfkmFdBRkwz5AcuHSifGvUpaFB4OEDT5XUkmcUZJMQAEBdPqJ5hvU1NgCQQvBVYFngLIjjAoC6zB4AVNavUh3kuDFXyJhVM6S+sUGXWInGaga2V5dnniUZ1uMhAECrpzPUxQBAZT4S8pwZxCzryzEAQArBF2FFpCABwFB91vrBAUB9/co8JL7Ts7+UKevmAYHWK0bXgmv2bJLfvPy4mLdjBu1bAKAeLQGA+nwk6H6g4ngAIIWgQsjNACcAqMe0TSQAoM5+VdS3s5w35S5ZsG2pLsESjfUMLN21Vn42/V45NOA7gwKA1k9laAsCgDp9RPMs60tsACCF4IuwmgGyoI8FAIbmsb4cGADU26/MnUGvn/WwrChf74t2WFRHBsydQV/b+q50nXCzeKkOgV0JBAB16MdEAQDq9ZGgZ0ynjwcAUghOC7gF0AQA9Zi2iQQA1N2vjhh4qtw9LykbK7bpEi7RWM1AXWO9vPD+Amk/7prAIBAAtHoKQ10MANTtI5pnWquxAYAUglVBtQBkQR8LAAzVZ60fHADU36++MPRs6ffueNlbV2VdPyyoJwO1DXUyYvlUOXb4+YFcBQQA9WgHANTvI0HPmk4eDwCkEJwUbo6gCQDqMW0TCQAYg36VKpFjhp0rE9e+LA1p7gyqq4LtRlNZXy3/WjRKPj3odN8hEAC0e+7CXA0AjIGP5Dgjap5/W4wNAKQQWhSJw4UEAIZps/aPDQDGpV+VyA/GXCEvbXpTzGe++CIDzWXAQOCdc3tJ2/5dfYVAALC5M+De9wHAuPgIcWad7wFABJJVIA7Dn4kLAHTPnLPtGACMUb9KlcjZk++U93ZvzCYJfkYGZEf1bjlt4m/FKyv1DQIBQD1CAwBj5COOz7C+zucAIIXgq8BCLj4AUI9pm0gAwPj1q6teuF82VmyXtC4pE43lDOyurZQOz1zv201hAEDLJyzE5QDA+PmI5jm34NgAQAqhYPGEDHe57BsADNFlfTg0ABjPfnX3q0nZVbPbB0WxpKYMLC1fJ/856hJfrgICgHqUAgDG00dymRlj9TsAIIWgWfAAoB7TNpEAgPHtV4OXTZTK+hpdgiYa6xmYseF1+cxg+zeFAQCtn6rQFgQA4+sjmufdvGMDACmEvEXjwJW/fTEBgKF5rC8HBgDj268O7d9VJqx5SeobuTOoL8WlaNEnV04XA2z7fMDGfwFAPQIBAOPrIzZ6gZo1AEAKQY2YmwBTAFCPaZtIAMB496uvjbhQ5m1ZokvURGM9AzUNdfLHV8ukbf9u1iAQALR+mkJbEACMt49onnnzig0ApBDyEkwTkBXlvwcAQ/NYXw4MANKvSp+5QZaXr/dFXyyqJwPltRVy7YsPyqH9u1iBQABQjzYAQHwkynNrYHsDACmEwMQWAjwCgHpM20QCANKvvFSJXDLtT7KhYqsucRON1QykJS1rdm+SC6febeXxEACg1dMT6mIAID6iee7NOTYAkELIWSwhAFxr9wYAhuqz1g8OANKvTE8o6ttZ7pjbS8pr91rXGAvqyUBdY4PM3bxETp7wq1ZfBQQA9egCAMRHWjtbqvh7AJBCUCHkZuAUANRj2iYSAJB+ta9fHTbgFPn34tGyCwjUVeSWo6ltrBdzZ9AfPnVlqyAQALR8YkJcDgDER/b5SKz/CwBSCJoLAAAM0WV9ODQASL/6uF+VyDHDzpWBS5+TusZ6H9TGkloysKeuUoYsmyRfH3FRwRAIAGpRgwgAiI987CMxzgUAGOOT38xVM02FAQDqMW0TCQBIvzqgP5WVyvFjr5Jn18zRJXSisZ6B7dXl8uibo+TY4ecXBIEAoPVTEtqCACA+coCPxGAWbjJeAJBCaFIYSgoCAAzNY305MABIvzq4XxX17SQnjb9ZZm9c5IvmWFRPBt6v2Ca/n9dHzNuHD9ZRS/8bANSjAwAQH2mp3mPxcwCQQtAsdABQj2mbSABA+lVT/eqQfl3k0ufv4fEQusrdejRm8F9evk5+MfMBKSrrmBcEAoDWT0doCwKA+EhTPhK77wGAFIJm0QOAoXmsLwcGAOlXzfUrM6D/+uXHZVPlDl+0x6I6MmCG/9e3LpVzJ9+VFwQCgDrOv4kCAMRHmvORWH0fAKQQNAseANRj2iYSAJB+la1ffX7ImXLfgoGys2a3LuETjdUM1DbWyaS1r4jxh2x62v9nAKDVUxDqYgAgPrJ/bcf23wAghaBZ/ABgqD5r/eAAIP0qa79Klcg3R10ig5dOFDPk80UGmstARV2VjFrxvHx/zOU5QSAA2Fwm3fs+AIiPZPURJffAaDFGAJBCaFEkDhcDAOieOWfbMQBIv2qxX5WVyndHXyZPrZ6ZTUr8jAyIgcDH3xotXxp2bosQCADqEQwAiI+06CMOz705xwYAUgg5i8XBggAA9Zi2iQQApF/l1K9SHeSk8TfJS5ve1FUARGM9A+YZgeazo237d8sKgQCg9dSHtiAAiI/k5CMOzrx5xQUAUgh5CcaxggAAQ/NYXw4MANKvcu5XZaVy2fR7ZWn5Wl+0yKJ6MrCtqlyuffFBObR/12YhEADUc74BQHwkZx9xbObNKy4AkELISzCOFQMAqMe0TSQAIP0qr36V6iC3vvS4mOe/8UUGsmVgRfl66TrhFvHKSpuEQAAwW/bc+hkAiI/k5SOOzb05xwYAUgg5i8XBIgAA3TLmlnYLANKv8u1XbfqdJA8vHCq7uDNoS+UV+58v2blKfvTUz8VLlXwCAgFAPfIAAPGRfH1E5e8DgBSCSmF/CKsAoB7TNpEAgPSrQvrVUYNOkxHLp0pVfY2ugiAa6xmYseE1+cbIi8VLHgiBAKD1VIe2IACIjxTiI+r+BgCkENSJer8rlQBgaB7ry4EBQPpVof3qmGHnytT1r0pdY70v2mRRPRkwdwY9eshZB0AgAKjn/AKA+EihPqLq7wBACkGVoPeDPxMXAKjHtE0kACD9qjX9qsMz18u8LW9LfWODrsIgGusZuO/1gXLEwFM/eisoAGg9xaEtCADiI63xETV/CwBSCGrEfBD8mbgAwNA81pcDA4D0q9b2q7Mn3SlLdq4WMwTyRQaay0BFXbXcMOthKSrrmIFAALC5TLn3fQAQH2mtj6j4ewCQQlAh5Cbgz8QFALpnztl2DADSr2z0K3PL/40V2yQt6Wxy42cxz8C26nI5c9LvAEBlOgAA8REbPuL8GgAgheC8iJuBPxMXAKjLuQFA+pWNfmXuDPq31wdIRX21rgIhGusZWFm+QU4Ye7VwBdB6akNbEADER2z4iPNrAIAUgvMiBgBDM9KgDwwA0q9s9SsDgQPffU5qG+uCljHHcygDjem0TFs/Xzo++0tJLXnGoZ2z1eYyAADiI7Z8xOl1AEAKwWkBZ4E/ExdXAJuzQDe/DwDSr2z2q6OHniUT177sZjGw68AyUNtYL5PXzkUrgWXc3wMBgPiITR9xdi0AkEJwVrwtwJ+JCwD010iDXh0ApF/Z7leJcdfK3M1LgpYyx3MsAw3pRtleXe7YrtluUxkAAPER2z7i5HoAIIXgpHBzgD8TFwDYlP25+z0AkH5lvV+lOsjpE2/L3BnU3cpg52SADOSaAQAQH7HuIznOpJE6LgBIIURKkJaLCADM1RLd+D0AkH7lR78q6ttJLpv+F9latdONQmCXZIAMFJwB8xzQR98c9dEzHv3oKayJV0VeAwAgIo28SFsBhQBgwR4ZyT8EAOlXfvWrtv27ye2v9JTy2r2R1D6bIgNkwE4G6hrr5c5XegGArZit/OrDrBugxwOAASabYgu84QKAdgwzKqsAgPQr/waEEvn8kLPkkUVPSE1DbVQkzz7IABmwnAEAEB/xz0ccyi0A6NDJAiDzBkgA0LJzhrwcAEi/8tW4Ux3kW6N+IsOWTQ5Z6RyeDJABvzIAAOIjvvqIK7M6AEghaC4EANAvCw1nXQCQfuV7vyorzdw8avK6ueGInKOSATLgawYAQHzEdx9xAQIBQApBcyEAgL76aOCLA4D0qyD6VVFZx8ydQRdtXx64xjkgGSAD/mYAAMRHgvCRyB8DAKQQIi/SVrySAgD6a6RBrw4A0q+C6lfmzqBXvXC/bOHOoEGXOccjA75mAADER4LykUgfBwCkECIt0FbAn4kLAPTVRwNfHACkXwXZr9r27yq3vvQYj4cIvNI5IBnwLwMAID4SpI9E9lgAIIUQWXG2Ev5MXACgfyYaxsoAIP0q6H712cFnZJ4ZVlVfE4bkOSYZIAOWMwAA4iNB+0gkjwcAUgiRFKYF+DNxAYCWnTPk5QBA+lUY/eqYYefJ4KUTxQyOfJEBMuB2BgBAfCQMH4ncMQFACiFyorQEfyYuANBtoz549wAg/SqsfvX9MZfLhDUvSX1jw8Gy5H+TATLgUAYAQHwkLB+J1HEBQAohUoK0CH8mLgDQIVfOYasAIP0qzH51zuQ7ZcG2pdKQBgJzKFd+hQxEMgMAID4Spo9E5tgAIIUQGTFahj8TFwAYSf8teFMAIP0q7H71i5l/l2Xla6Uh3ViwjvlDMkAGwssAAIiPhO0jkTg+AEghREKIPsCfiQsADM9k/TgyAEi/CrtfFfXtLHfO7SXvV2yTtKT9kDlrkgEy4GMGAEB8JGwficTxAUAKIRJCBAB9tDs9SwOA9Kso9Kt9dwbdVbNHT3ERCRmISQYAQHwkCj4S+h4AQAohdBH6BH8mLq4A6nJ0AJB+FZV+ZSBw6LLJUllfravIiIYMKM8AAIiPRMVHQt0HAEghhCpAH+HPxAUA6nJyAJB+FaV+9b3RP5Mp6+ZJLY+H0NVoiEZ1BgBAfCRKPhLaXgBACiE08fkMfyYuAFCXjwOA9Kuo9asu42+W17a+y01hdLUaolGcAQAQH4maj4SyHwCQQghFeAHAn4kLANTl4gAg/SqK/eqiqX+Q1bs3cksYXe2GaJRmAADER6LoI4HvCQCkEAIXXUDwZ+ICAHU5OABIv4pivyrq20lumPWwVNRV6So4oiEDCjMAAOIjUfSRwPcEAFIIgYsOAFRoqcGEBADSr6Lar9r27yp/nt83mELgKGSADBScAQAQH4mqjwS6LwCQQghUcAHCn4mLK4AFe2Qk/xAApF9FuV99etBpMnjZpEjWDpsiA2TggwwAgPhIlH0ksL0BgBRCYGILGP5MXACgLssHAOlX0e5XJfKtUZfK+Pfm6Co8oiEDijIAAOIj0faRgM4PABhQokOAHwQOACry7EwoACD9KvJ9LdVBjh97lby8+S1t5Uc8ZEBFBgBAfCTyPhIEMwCAFILmQuAKoAq//igIAJB+5UK/KirrKGdOul3W793ykXb5BxkgA9HIAACIj7jgI77vEQCkEHwXWRCvZDRzDAAwGoZraxcAIP3KlX51SL+T5KfT/yJV9TW25M86ZIAMWMgAAIiPuOIjvu4TAKQQfBVYM2AW1DEBQAtuGaElAED6VVC9w8ZxDh94qtz+Sk8gMEI9hK2QAQAQH7HR351fAwCkEJwXcRbIBAB1mT0ASL9yrV99edh50vedZ3UVItGQAYczAADiI675iC/7BQApBF+ElQXKgjweAOiwSzexdQCQfhVk/7B1rG+P+ok8teoFaUw3NqFqvkUGyECQGQAA8RFbvd3pdQBACsFpAbcAmgBgkLbq/7EAQPqVq/2q3dO/kJnvLwAC/W8THIEMZM0AAIiPuOojVvcNAFIIVgXVApAFfSwAMKsPOvfDocsmi7nDYtA64nj0SRsaOGvS7fLurjVAoHOdhw1rygAASD+30c+dXwMApBCcF3EW6AQANdm2yOR1c+UbIy8GALNoXnM9ux6befHi6pn3y5o9myQtaV3FSTRkwJEMAIDMva57iZX9A4AUghUhRXQgBQAdceQctwkA0q9c71dHDDxV/vRqSrZU7cxR9fwaGSADNjMAAOIjrvuIlf0DgBSCFSEBgDb9ibWayQAASL/S0K+OGXae9Fz8lOyq3duM0vk2GSADfmUAAMRHNPhIq2MAACmEVosoovBn4uIKoF8WGs66ACD9Sku/+s6Tl8nIFc9LRX11OMXEUclATDMAAOIjWnykVXEAgBRCqwQUYfgzcQGAuhweAKRfaepXHZ/9pcx8/w0xAylfZIAMBJMBABAf0eQjBccCAFIIBYsn4vBn4gIAgzHUoI4CANKvtPWri6b+QV7f9i4QGFQT4TixzwAAiI9o85GC4gEAKYSChOMA/Jm4AEBdXg8A0q+09at9dwZdtXuDpNPcGVRXxyKaKGYAAMRHtPlIQfEAgBRCQcIBAKPoa+r3BADSrzT2q8MHniJ3zest26rL1dcwAZKBsDMAAOIjGn0k75gAQAohb9E4An8mLq4Ahm21do8PANKvtParzww+XR5Z9ITsqau0WzSsRgbIwAEZAADxEa0+kldcACCFkJdgHII/ExcAeIDvOf8/AED6leZ+ZR4P8fTqF6WWm8I436sIILoZAADxEc0+knNsACCFkLNYHIM/ExcAGF0TLmRnACD9SnO/MrF9f8zlMnfzYmlMNxZSIvwNGSADLWQAAMRHtPtITvEBgBRCTkJxEP5MXABgC07o2I8BQPqV5n61L7bSZ2+Qd3etcaw62S4ZcCMDACA+sq/Xxvq/ACCFoLkAAEA3DDnXXQKA9CvN/eqj2FKlcuHUu6WivirX0uD3yAAZyDEDACA+8lGvdfTihpX9A4AUghUhRbSIAMAcHdGRXwMA6Vea+9X+sbXpd5JcMeOvjlQm2yQD7mQAAMRH9u+1sf03AEghaBY/AOiOKeeyUwCQfqW5Xx0cW9v+3eSBN4bkUhr8DhkgAzlmAADERw7utbH83wAghaBZ+ABgjo7oyK8BgPQrzf2qqdg+N+RMGb1yhiMVyjbJQPQzAADiI0312th9DwCkEDSLHgCMvhnns0MAkH6luV81F9uxw8+X2RsX5VMq/C4ZIAPNZAAAxEea67Wx+j4ASCFoFjwA2IwDOvptAJB+pblfNRtbqoOcMPYqeXvXakk7WrtsmwxEJQMAID7SbK+N6P0sfNkvAEgh+CKsiBQRABgVy7WzDwCQfqW5X2WLraiso5w96Q7ZVLld0mCgnYbCKrHMAACIj2TrtbH5GQBIIWgWOwCoy98BQPqV5n7VUmyH9OsiV77wN9lcuUNXYRMNGQgwAwAgPtJSr43FzwFACkGz0AHAAF01gEMBgPQrzf0ql9g+N/hMue/1QVJeuzeAiuMQZEBfBgBAfCSXXqv+dwBACkGzyAFAXeYNANKvNPerXGP76vALpc+ScbKnrlJXgRMNGQggAwAgPpJrr1X9ewAghaBZ4ABgAG4a4CEAQPqV5n6VT2w/GHOFjF09U2oaagOsQA5FBtzPAACIj+TTa9X+LgBIIagVdzIhAKD7Zr1/BAAg/Upzv8ortrJSOWXCrfLSpjelMd24f5nwbzJABrJkAADER/LqtRG5qaH1PQOAFIJ1UUWoWADALC7o4I8AQPqV5n6Vd2xlpXLJtD/J4p2rgEAH+xlbDicDACA+knevjdBca23vACCFYE1MESwQADAcg/XrqAAg/Upzvyoktrb9u8ktc/4la/Zs8qvsWJcMqMoAAIiPFNJr1f0NAEghqBP1fiAKAKrybQEA6Vea+1WhsX1h6Dly3+sDZVPFdl0FTzRkwIcMAID4SKG9VtXfAYAUgipB7wd/Ji4A0Af3DHFJAJB+pblftSa2Lw87X/oseVp21ewJsUI5NBmIfgYAQHykNb1Wzd8CgBSCGjEfBH8mLgAw+maczw4BQPqV5n7V2ti+8+RlMn7NHO4Mmk9T4XdjlwEAEB9pba9V8fcAIIWgQshNwJ+JCwDU5e0AIP1Kc7+yEVvps9fLy5vfkvrGBl3FTzRkwFIGAEB8xEavdX4NAJBCcF7EzcCfiQsAtOSYEVkGAKRfae5XVmIrK5VzJt8p7+5aI43pdEQql22QgehkAADER6z02iyzpxPrA4AUghNCLbDQAMDomK6NnQCA9CvN/cpWbG36nSTXvvigbK3aZaPsWIMMqMoAAIiP2Oq1Tveyeg4AACAASURBVK8DAFIITgu4BTAEAFX5NncBbUHvmmuZ2PLzqk8NOFlue/nfUl5boasJEA0ZaGUGAMD8egm9V2m+AEClJ5ZBUUzTAgBb6ZQR+3OuANKvGEZy14CBwIFLJ0ptY33EKpntkIHwMgAA5t5D6LeKcwUAKj65QCAAGJ7H+nJkAJB+xUCSnwaOGHiqTN/wmqSFzwP60pRY1LkMAID59RB6rtJ8AYBKTyzwxxVA52y55Q0DgPQrhpH8NfDFoefIWztWtlxg/AYZiEEGAMD8ewh9V2HOAECFJxX4y8CfaVi8BVSXmwOA9CsGkcI0UDzuWtlVs1tXQyAaMlBABgDAwnoIvVdZ3gBAZScU+PsI/gDAApwx4n8CANKvGEIK1ECqRP570u+ksr464lXO9siAvxkAAAvsIcyXB8yXznsRAEghOC/iLE2JK4D+GmnQqwOA9CvN/crv2Ir6dpIbZz8iFXVAYNC9i+NFJwMAID7id691Yn0AkEJwQqhZIC/b/gHA6JiujZ0AgPSrbPXOz1rWx2EDTpFH33ySK4E2GhJrOJkBALDlPkEvjUGOAMAYnOQC4UlDAwAAnfTnZjcNANKvNPSlsGP4/JCz5IkV06SmobbZWuMHZEBrBgBAfCTsHhyJ4wOAFEIkhOgTpAKAuiwcAKRfae5XgcWW6iDfH3O5PL9hvjSkG3U1CaIhAy1kAADERwLrtT7Ntlb2DwBSCFaEFFGRA4AtOKFjPwYA6Vea+1WQsRWVdZSuE26WBduWOtYF2C4ZaF0GAEB8JMheG9ljAYAUQmTFaQEqAcDWGWXU/hoApF9p7ldBx9amb2e5eNofZWX5hqiVOvshA75lAADER4LutZE8HgBIIURSmBbgz8QFAPrmoaEsDADSrzT3qzBiO3JQd/n1y4/Luj2bQ6lpDkoGgs4AAIiPhNFrI3dMAJBCiJwoLcGfiQsADNpa/T0eAEi/0tyvwort6CFny99eHyhbKnf6W8CsTgYikAEAEB8Jq9dG6rgAIIUQKUFahD8TFwAYAbe1uAUAkH6luV+FGds3Rl4s/d+dIHvrqixWLEuRgehlAADER8LstZE5NgBIIURGjJbhz8QFAEbPfFuzIwCQfqW5X4UaW6qDnDD2ahm/Zo7UpxtaU6b8LRmIdAYAQHwk1F7rw6xbUDwAIIVQkHCiIuAW9gEARtqH894cAEi/0tyvQo8t1UFOnvArmb1pkTQAgXn3J/7AjQwAgPhI6L22hdk1kP0BgBRCIEILSewAoBuGnOsuAUD6leZ+FYXY2vQ7SX42/V55Z9d7uZYlv0cGnMoAAIiPRKHXhr4HAJBCCF2EPsIhAOiUL7e4WQCQfqW5X0UltsMHnio3z/mXrN69scWa5BfIgGsZAADxkaj02lD3AQBSCKEK0Ef4M3EBgK5Zc/b9AoD0K839KkqxHTHwVHlgwWDZXl2evSj5KRlwLAMAID4SpV4b2l4AQAohNPH5DH8mLgDQMWduYbsAIP1Kc7+KWmyfHXyGjFgxVarqa1qoTH5MBtzJAACIj0St14ayHwCQQghFeAHAn4kLAHTHlHPZKQBIv9Lcr6IY21dHXCDT1s8XMzTzRQY0ZAAAxEei2GsD3xMASCEELrqA4M/EBQBqsOuPYwAA6Vea+1UkY0uVZB4P8eaOFdKYbvy4GPkXGXA0AwAgPhLJXhvgbJyJHwCkEDQXAgDoqEM3s20AkH6luV9FNrZUB/nvib+TLZU7m6lMvk0G3MkAAIiPRLbXBgmBACCFoLkQAEB3TDmXnQKA9CvN/SrasZXIBVPvlp01u3MpVX6HDEQ2AwAgPhLtXhvQ+QEAA0p0kFTPsWRfcQOAkfXggjYGANKv9tU2/w1HC39/Y4hU1lcXVL/8ERmIQgYAwHB6Bz07YnkHACN2QoC3j+DNRrMAAKNgt/b2AADSr2z0BdZonY6GLpsstY119gqblchAgBkAAFtX//RPJfkDAJWcSMCxSXAEAAN01QAOBQDSrxg+wtdA2wHdZMr6udwUJoCexyHsZwAADL+H0McjcA4AwAicBOCtSXiz0SAAQPvmGeaKACD9ykZfYI3W6+gHYy6XN7YvC7MdcGwyUFAGAMDW1z89VEEOAUAFJxGAbBYgAcCC/DGyfwQA0q8YPCKigVQHOWn8TbKifH1k+wUbIwNNZQAAjEgPYXZtdnYNxOcAQAohEKGFVOgAYFP25+73AED6leZ+5VpsRX07yU+f/7Os37vF3abCzmOXAQAQH3Gt1/qyXwCQQvBFWCEB38GxAIC6vB0ApF8dXOP873A10XbAyXLn3N6ytWqXrmZDNGozAACG2zPo2RHJPwAYkRMREWDSVpgAoC4PBwDpV9p6lIZ4PjP4DPnXopGyu7ZCV8MhGpUZAADxEQ19t9UxAIAUQqtFFGF4BQB1+TcASL/S3K+cjS1VIt8cdYkMWz5ZzHDNFxmIcgYAQHzE2V5rc94GACkEzYUAAEbZhvPfGwBIv9Lcr5yOraxUTnz6FzJx7cv5FzZ/QQYCzAAAiI843WttQSAASCFoLgQAMEBXDeBQACD9SnO/cj02c1OY7s/9VuZvfSeAbsAhyEBhGQAA8RHXe62V/QOAFIIVIdl6RcLyOgBgYQYZ1b8CAOlXmvuVhtja9u8mV8z4qyzZuTqqbYR9xTwDACA+oqHXtjoGAJBCaLWILEObzf0AgLqcHgCkX9nsD6zlj56OGHiq/OqlR2XNnk26GhDRqMgAAOhP3dNPHcsrAOjYCYswbEWx+AFAFX79URAAIP0qin2GPX1Sl0cPPVseWfSElNfu/ah++QcZiEIGAMBP1is9LIY5AQBjeNJjBJEAYBTs1t4eAED6FYOKIxpIlchXRlwgQ5dN4s6g9logK1nIAADoSA+J0awaiq8BgBRCKMILqLABQAtuGaElAED6leZ+pS62VIkc99QVMmHNS1LP4yEi1EnjvRUAEB9R12sLmakBQApBcyEAgLqMHgCkX2nuVypjKyuVk8bfJK9ueVtXMyIaZzMAAOIjKnttvhAIAFIImgsBAHTWo5vcOABIv9Lcr9TGVlYqF039gyzdtbbJuuabZCDIDACA+IjaXpsPBAKAFILmQgAAg7RV/48FANKvNPcr1bGlOsjvXukhmyt3+N8oOAIZyJIBABAfUd1rc4VAAJBC0FwIAGAWF3TwR2NWzRBzi3nNmiU2erJmDfRc/JTsqatwsPuwZS0ZAADpsZp7bM6xAYAUQs5iyfVVhQj9HgCoxbI/iGPQ0onAX4TqS3PvIDZ/vPHQ/l3kiRXTpKq+RldzIhpnMgAA+lPb9EzH8goAOnbCGP7yAgAA0BlPzmmjACD9iiHDfQ18ZfgFMm39fB4PkVPX45dsZwAAdL+H4AMWziEAaCGJQFleUBZk4QKAtq0zvPXSkpYB7z4XWa0FqWuORd92XQPfHX2ZLNi2VBrTjeE1FY4cywwAgPRP1/unlf0DgBSCFSFFFIIBQD3+bt4y9uibowDAiNaa5j5CbP74ZJcJN8vq3e/raVJE4kQGDADe+tJjeAleEm8NAID+GBsDQzTyevzYq2TKunlOmBKbzJ6BbVXl8vt5feLdsDFszr8yDdw0+5+yvbo8e/HzUzJgMQM1DXVy1qTb6SXKeglzd55zNwCYZ8IoGKea5jdGXiwjVzxv0TpYKqwMAID0Kgxepwb+/sYQKa/dG1Zr4bgxy0B1fY0cM+xcp2YZep/O3hfqeQUAEVWoAvQZqL849Bzp/+6EmNmbznDX790iv5z1D0zb55rR3A+ILZp+96kB3aTfu+O5KYzO1h25qN7bvREfwUfQAAAYTUNkULFzXg4bcIr8681RkTMgNpR/BhZuXy7dJtxC08a40YA6DZTIN0deIqNXTc+/MfAXZCDPDIxdPZMeoq6H2JkZYzV7A4CIRrvg75rbWxrSDXlaBL8etQzM2rhQvj3qJxg3xo0GNGogVSLfG/0zMXXOFxnwMwPmLcfa5x7iY7ZvUQMAICJpUSSODxvXz3pYdnCTAT/9NJC1J6x5ST414GSM2/F61N5viK9wTy0q6yinPfdbeWvHykB6CgeJZwYumfYnfAQfQQMAYOFmhdG7kbsLp/5BlpWvi6fTKYm6sr5aei5+ioaNaaMB5Ro4pF8XuXLGfWI+p8UXGfAjA98cdQl9RHkfYT7PYT4HAHNIEoXidLPs9OyN8tKmN/3wEdYMKAPvV2yTW+Y86rQOMSR6LRrITQNHDDxV7pzbi8dDBNRf43SYndW7pU3fzngJcy0aAABzMySM2908fWX4BTwKwnGHX16+Xi6YcjcNG9NGA3HQQKpEjh5yljywYLDUNtQ53r3YfpQyMG39q+KlSugjcegjxJhd5wCgu2ADlOZ27or6dpIH3xjKLcaj5MJ57mXu5iVinumI5nPTPHkiT85rIFUiXx95kfR7ZzwQmGe/5Nebz8BvXn5cvCQA6Hx/AO5aPw8BgAwKcWgE1774oGzYu615V+Ankc1AVUONDF46UcwNIuKgVWKkJ6OBDzWQKpX2466RyevmRrY/sTF3MrCtapd8efj5+AjwhAaMBgBAho04DBtdxt8s87Ysccep2OlHGVi3d4tcMeOvNGxMGw3EUAPmHRynT7xN5m15+6OewD/IQCEZeHLlDGnT7yT6SAz7SBzm3LxjBAABwLxF42DzOGbYeTJm1QuFeAZ/E3IG3tyxUr79JM//i0OdEiN+1JQGDAReNv0vsrR8bcjdiMO7nIELpt4tXqoUAHRwhmuqL/C9VvoFANjKBFJIbjTTVAe5f8Fgqairdtm/Yrf3usZ6Gbd6lnipDm7ojH7AeUIDvmigbf9u8qf5ZTzTNXYuYCfgzZU75EtDz/VFm4AIc7STGgAAEa6Twi1gyOo64RZ5bes7dtyEVQLJwLaqcvn1S+ZD+9QpOUADcdfAof27ykMLh8meuspA+g8H0ZOBfywcIeZFhLjXEPHjIx9pAABEDB+JQfmQbZ4t9eTK6ZKWtB5XUxyJOUtv73xPvjbiQkxbeW3GpQcRZ+v99uihZ2duCmVuDsUXGcglA43pRuk64Wbe/omPMEvsrwEAsPWGhKm7k8M/vJri4cK5OGYEfqeyvlp6Ln6Khr1/w+bf6AENyPdG/0ymrJvLo30i0Kdd2MLC7cu5+yd9A+84WAMAoDvwAmi2/lwdP/YqeXnzW1wFdMC11+3ZLO2fvoamfXDT5n+jCTQgncffKHM3L5b6xgYHuhlbDCsD1Q218svZ/5BD+3Whb9A30MD+GgAAWw8VgJlbOeyxeIxU1FWF5UccN4cMmJu/mLu2Ultu1Rbni/MVpAYum36vLC9fJ41p3tafQ1uN5a/M2PA6HyPYf+jn38wV+zQAAGLYQRp2FI7VbcIt8uaOFVwFjPA4sL26XDqNv5FGva9R81+0gAaa1MAfXk3KhoqtQGCE+3lYW9tdWyFXvXC/HMLVvyZrJwrzGHsIkUEAwBCTj6GH0pSK+naW1NvPyF6uAobly1mPaz6wP33Da6FoAzOiH6IBtzTQpl9nuX/BINlVsztrX+GH8cvA6JUz5KvcRAwvZdZuWgMAoFtmx3Bi53ydNP4meXvnaq4CRnAmMGB+/pTfN92waOTkBQ2ggYM0cPSQs+Sxt54U86w37vIcwaYewpa2Vu2SC6bcLUVlHamXg+qFOdLOHOl8HgFAhOC8iAtobkV9O0mvxU/JXp4nFYI1Zz/ks+/Nljb9TsK0C9B1HGuZmPEwowFzJfDueX1kS9XO7A2Gn6rPQH26Qfq9M16OHX4+PoKPoIHmNAAAYp5xHaCOG3OFvLl9BZ8didA48H7FNjnx6atp2M01bL6PNtBAsxpo07ez3Dm3F4/6iVBPD2Mry8rXyukTbxMv1aFZrcR17iFuZv6PNAAAIoaPxBDDweKuub2lvHZvGB7FMZvIwF9fHyBesgTTjmEtxrkPEbs9HzZXAu+a11tWlr/fRIfhW9ozsKeuUh5eOEyOHnI2PoKPoIFsGgAA7RkPJu5eLj835MzMDUd4llT4Y8HsjQt5y062Zs3PMHM0kJMGDu3fVa6Y8TdZsnN1+I2NHQSWAePj49fM+eBdJFz9y6lWmFvdm1utnTMAMMYnn2Ei0yBPfe43sqWSz40E5tJNHGhXzV45b8pd4qVKMS3qEg2ggVZrwHzO++Jpf5LFO1Y10XH4lsYMvLFtWeYGYuatwNaGZGqRXGrVAAAIAMa9UZq7hN0xt5eYh4/zFU4GzGM5jhp0Gkaj1WiIC22HoAFzM6mzJt0hE9a8FE5j46iBZcA8C/J3r/SQwwacQq2FUGtxnyOdjB8ABACdFK7lBnfkoO4ybNmUwMyKA32cgTmbFskPn7qSD+xb1jR1TW9HAwkpKuskx4+9SnoveVrMg8H50pcB87m/f781Wj4/5CzgDx9BA7lqAABkSGBI+EAD5oGxfGYk2OFg1e735bSJt/GsplwbNr+HuaOB/DWQ6iDHDDsvc3OYDXu3BtvkOJqvGdj3ub/vPHlZ/rqglshZnDUAAAKAAOA+DZTI2ZPukIr6al8Ni8U/yMCumj3yi5l/l0P7dcGE4mxCxI7+A9FAiRw+8BT52fR7ZeH25bRhJRmYv/UdOWn8TXx+PJAa2jcr8V8VczMAiJBVCNlS8zOfGbl65gNAoM/DQXVDjdz7Wn/5zODTGX4taZc6ppejgZY1YHp8p2d/Kc+8N0tqG+t87nQs72cG3tu9Sa598UExN/xB+y1rnxyRowM0AAAiiAMEwTAqnxpwsvz65cf99K3Yrz18+RT55qhLxEvxzD/qjx6MBgLWQFmpfGvUpdJ7yVgx70Tgy70MbKrcLre93EMM0FM/AdcPc6IOzQGAFA7N85Ma+PSg0+Ufi55wzxUd2PFrW9+RzuNvBP4wUR0mynl08zymSjLwcMm0P8nr25YKz4J1wDw+3OLaPZvlgql3c+WP3uNm74nKeQMAPzn8A0TkxGjAvD3xoYXDGAwszQUN6UZ5YsU0+daon4iX5MoffYY+gwaioIES+ezgM+Vfi0bKtqpdkk6nLXU8lrGdAXNm1u3dImdPvgMPiQpEsA93IRQAjIIBsYeoDkJmMHh44TAxn1njq/AMmM/afAx/6D2qemdfaDPOGjA3AZu7ebFU1tcIGFh4v/fjLxvTjWKu/J056XZ3B25giXMXJQ0AgBh+nA0/l9iPHnp2BgJ31e6VNGNB3t5e3VArI1c8L//nyZ/S/KPU/NkLekQDn9DAZwefIT3eGiPmcRF1jfV59zv+wH4GDPyZO7dmPjqAZj+h2VzmGH6HWf8TGgAAEcUnREGD/USDPWpQd7n9lZ6ZoYC3COVm8AaW99ZVyaiV0+W7o3/2iZyiO3oPGkADUdVA9+d+KxPXviJbKneKARC+wsmAgfA3ti+Tb468BA9hNkMDNjWQAcBU8TlRbcLsiwEhKho4bMDJctOcf8rS8rVS28Dtw7ONA43ptGyp2il93xkv3wP+MC2bpsVa6CkgDbTt31Wue/EhmbVxoWys2C7mc8x8BZeBrVW7ZPK6ufId3j1CzQdU81GZNwPZRwYAkx2uC+RgnECK2HENFJV1lLMm3S5T182T3bUVwTmhQ0cyr9guK1+Xec6feTsVvYUXcdAAGnBZA0cO6i43zn5EXtz4hmyvLneoG7u51ZqGOlmyc7XcNbe3HDXoNDzE8bnJ5dpXvfcPrgAm7lIdJMVDA7WsgePGXCmpt5+RTZU7uGvcfjNGTUOtzHz/Dbl8+l+lqG9ndGdZd/RpQAoNhKSBVIfM2xD/8lo/eWnTm7KtChDcr/Vb+6e50vrUqpnSZcLNUlTGA96p95DqPQ7e/cEVwJKLEBkiQwP5aeDzQ86SO+b2lJc3vyUV9dXWDNDFhczn/XZW787c7CUx7lrALw7mQYzoPIYaMO8C+c6Tl8k98/vK8+vnZx5LwFtDW+9a5sXDBduWyp1ze8sxw87lObExrC1m0Pxm0FbnKwOA5v8hNswcDeStgaK+HaXjs7+UsreflfcrtsXyZgEG/syt080r48cOPz/vHNJ7Am761DkaRQOt1oC5OmWeaWreGjpy5fOZt73XctfQgkjQeOeI5VOl+3O/kUP6dWn1ucFT8BQ0kIMGPrgCeOLJJCuHZGGaNOZmNGAeFXH9rIdlyrp5sqeusiATdPGPjHEb+O0y/mZpw1s+qY9m6gN/wV/UaqCsNHPF6tLn75Hk2+Nk4fZlUhnzd4Tk4mXmqql51Maz782WX815VL424kLxUh3oofRQNBCUBlIntPe8Hu2+pbY5B5VIjkPRJhNy4tir5a55vWX2xkWqnxm4p7ZSnnlvllzz4oNy5MDunHvqHw2ggdhrwNz06vSJt8mf5/eVMatekJXlG3iW4EE0aMBv3d4tMmzZZLnmxb9nng9b1JfP+jGD8yJZsBooWe49Wvp5z3vkR0d6ycR7wR6ck02+dWrAmFnpMzfI/QsGZx5ee5D/Of0/zdVNc1vuW196TL47+jJesWXoj/3QTx/X2cdbc17b9DtJvjXqUjl/yu/lvtcHyrT188U80sC8XT6uX/WNDbK8fL30XPyUXDrtHvn6iIvEKyulf+AhaCAMDaSKH/NGf/9Tnjeo6+Fesvip1jQ8/hYTRAMHauBTA06WbhN+JX99bYDM3bxEzIfcXf3aXLlDRqyYKtfNekh++NTPhVdsDzzXaJ98oAE00JQGDhtwihw/9iq5aOofM4/Gmfn+AtlVs8dVK8h73+aZucb/HnvzSTl94u/k6CFnMfCHMfBzTHS3vwZ6nXCKd6/XxvPK2rX1yhJ3NNW8+B6mhgZao4ESOXzAKdL+6WvkFzMfkKdWz5RtjjxHyjzP7+2dq6XH4qfkkml/km+MvBjw27+B8m8MFQ2ggTw0cPjAD2DQXBn88/x+MnbVTFm7Z3PeUBX1P9hRXZ55ZuLDC4fJFTP+Ku2fvlaOHnI2WslDK8xdrZm7+Nus+kmVvOWVtfuyl/kSr8jr2e6HXrK4KusfIV4aGBooWAPmqtk3R14iZ0+6Qx58Y6i8uuUd2VtXFTkvN8+3eua92XLLnEeleNy18oWhZ4u59Tm9AVNBA2gADVjQQKpEjhh4asYPzF2kf/L8n8XAkrmJmHm2rItfS3aslqHLJsvvXukhJ0/4lfxgzOViPhPJ2zwt6IW5i/nDpgZSxb29AT/+9AcAaP7/Y13/w+uTeI7mTrGiAZ81UFYqnx50euYzdGdNuj3zPKkX3n9d9tRVhOL75rMZq3a/n3mG381z/imdx98oXxtxkbTt35Wma7PpshZ6QgNooAkNmBfYPjP49AwQtnv6F3LJ8/fI/QsGyeiVM2TeliVSXhuONzRlSLWNdZmrluYZiMOXT8k8/ufMSbfLD8ZcIccMO0/aDugmXrKE89zEeWa28nm2Iuc51F1xlderfXfv3q6HfgyAPc44zEslrkSgCBQNBKiBslIxbwv6yvALMgZ68bQ/yiOLnpBZGxeKeRtNY9r+TQMq6qrk9W1LZdjyKfLHV8syNyr49pM/kS8MPUcONdCXwrypgQBrANPOwbQ5H3GqSfNukSMGdpcvDj0nc7OU74+5XM6dfKf86qVHMzdRMe/QeH3ru7KifH1TjGble+YjAGv2bJYXNrwu/35rdOYB7RdN+6O0H3dN5s6dxw6/IPPukMMHnsrNwOhh9DB3NDDYe7zkSx/Dn/mXeRtoWcdveanEkjg1WmJlsIiSBozxGyA0b7v86ogLMw+Zv2z6vfLAgsGSXDJO5m99JwNva/ZsatbkzavFb+98L/O75vcnrX0l86w+cwMX89Yc81k+M1iYq5Bt+3fj7Z3uNG5MlnOFBmKqAXOV8NB+XTJvHf3c4DMzPfzLw8+T/xx1qSTGXZv5rJ15KL25y+bB/9fvnfEydd2rmccTDVk66YCf3zO/r/z8hfsyf28+r2fejvrDp67M+MSxw8/P3LTFvF3VvCMkc/MvXiCkBmNag1GaFQvaS5/ENq93cccPbv5yIAJ6nrkKmCz5aUELIwiaAhqwr4FUBykq65QxfgNrRw7qLkcNOi3zdiFzN7Wm/s8MB58edFrmd83vm1doM6BnHtSe4rbb9Dde9EEDaECVBoxP9O0kbfp2zvR60+8P/j/jA+aZrebu1Pv/7JB+XTJ/a/4+83/m895Ann0vZz4ip6FroMMDXn/z7L/mvnomvukli59X1RxDTzpmi57QABpAA2gADaABNIAG0AAaCFwDb3t9TmyXebdnc/znjb7kEK9P8aleqv0uTlDgJ4hXSIB1NIAG0AAaQANoAA2gATSABixooLjcK0tc6z3yoyObZb+PfmAuESYTf/SSxTVAIBCIBtAAGkADaAANoAE0gAbQABpwSgNVXlnJ770+nT73EeO1+I/epd/2kokRXjJRy8l26mRbeLWAeNE8GkADaAANoAE0gAbQABpwVAOVXlniUa9HyVdbZL5P/EKyfcJLFr/oJRN1jgYPDHH5HA2gATSABtAAGkADaAANoIG4aKDKSyaGej1Lv/sJtsvpG+ZBgT1PPN1LFr/ClUBeAeFFADSABtAAGkADaAANoAE0gAYiqoFU8S4vlRjt9S4uzon1mv0lA4F92p/hJRMzvGRiDyc8oiecV3Xi8qoOcaJ1NIAG0AAaQANoAA2ggf010Oglizd6qeLHvT4//k6zXJfXD8ratfV6nVDqJRMDvGRiCxAIBKIBNIAG0AAaQANoAA2gATSABkLXQJ2XSizxUonbvH4lX8qL8XL65WSHb3hlib94qZK3vGSimhMe+gnfn/z5N68EoQE0gAbQABpAA2gADaCBuGgglajwUompXp/EJd693/9UTjxX0C899l//4fVqf56XTKS8ZOI9L5loAAQBQTSABtAAGkADaAANoAE0gAbQQCAa2HfV7x9en5IOBTFdQX9kLjGmEld6qcQYL5nY4SUTaU54ICecV3Xi8qoOcaJ1NIAG0AAaQANoAA2ggY81YHhr04cX4i7w6DgwhgAAIABJREFUenc9qiCOa/Uf9e7wPS+V+JWXLHn+fx4eXw8EAoFoAA2gATSABtAAGkADaAANoAGrGjCPd3jaSxZf5ZW1+3KrGa7VC5j3nGaeGVjyNy9VsoyTbfVk86rHx696kAtygQbQABpAA2gADaABNBAzDZS87qWKf+0lOx7Xam6zvkCfTp/zehf/d+ayZJ/ETkAQEEQDaAANoAE0gAbQABpAA2gADRSggVTJai9V/JCXbN/V6/Htw6yzm7UFxSvyehd/zetdcrGXLJ7kJYu5Wyiv0sTsVZoCChyNoBE0gAbQABpAA2gADaCBDzRQ7qWKB3p92p3l9Tjhi57hKye+zAPkex3/A6+s/fVeqmQB1A8UoAE0gAbQABpAA2gADaABNIAGmtNAcY2XTMzweif+r9er49c9w1POfRlafeRHR3q92pV4qeJHvGRiDSe8uRPO99EGGkADaAANoAE0gAbQABqIpQY+eJj7rzxzg81BXQ93jvs+seHRlxzi9Uoc7fUqPsXrUzLKSyZ2x/LEclmfy/poAA2gATSABtAAGkADaAANfKSB4o1esn3P/3mge2nmsQ7OvN3zE8TXzDfK2rXN3La0T+IyL5WY4yUTtYAgr/KgATSABtAAGkADaAANoAE0EDMNVHrJxITMDTQf6/ofnrlgpvbLUK15bETZj/+3lyq+3UsWr4rZyeYVj49e8aDRoX00gAbQABpAA2gADaCBWGmg3ksWv+Gliq/2kh3/l5uf8yuUVA0IGtIta/dDL1k8+H+ebbHLSybM0+0BJHKABtAAGkADaAANoAE0gAbQgCYNpL1k8UavrN09XrL0K7qv+OUKiD3bd/VSxbO8ZGIvIAgE80IAGkADaAANoAE0gAbQABpQoIFGL2mej178ZObCV65sFJvfM3cMTSWu9JIlb3vJhHlfrCbqJxbOJxpAA2gADaABNIAG0AAaiI8Gyr1k4jWvT/szYsNzBQfar+RLXh/z1PvM5wPrAEFAGA2gATSABtAAGkADaAANoAEnNJBKVHzIMTd4vb9/VMFMFMs/TLY/weuTeM5LJjZ4yUSDEyc8Pq9o8OoV5xoNoAE0gAbQABpAA2gADXysgWovmVjpJRM9Mw9yjyXA2Qj63q6Hen1LrvCSiRleMrEZCOSVHzSABtAAGkADaAANoAE0gAYipAFzoWqdlywe6fUp7uKZR9/x1coMmDuG9i4+xuuTuMNLJubyIHkKPkIFz6teH7/qRS7IBRpAA2gADaABNBA3DWzxksXTvGTxdV5Zu8+2knr4809kwFwN7HPij7xU+8e8VGKhlyyuAQSAQTSABtAAGkADaAANoAE0gAYC1oB5csErXlniD16Pjt/isQ6fIDfL3xj6oyP/50rg6V4yMdRLJtbw+UAKPuCCj9srW8TLq7loAA2gATSABtAAGvhAA7VequStDy9IlXo9zjjMMumwXNYM9Cj5auZya6r9OC+Z2AYEAIJoAA2gATSABtAAGkADaAAN+KCBRi9ZvNZLJgZ7fdqf6z3W9T+ycgo/9DED5m2hvY7/gZdK3OUlE7O9zG1XEb0PoudVH175QwNoAA2gATSABtAAGoijBsq9ZPEEL5W4xiv78f/2kWxYOq8MmGds9G7XyUt2eODDB8nXA0GAMBpAA2gADaABNIAG0AAaQAOFaaC4xksl5nllxb/3zOPpzIUnviKYgR6dv+j1an+e16d4oJcsNo+NSBd2wikU8oYG0AAaQANoAA2gATSABmKogUYvVbLaSxY/6PUqPskb8ONPR5B62NIBGTB0bu7G07f9FZnLtdwtNI6X6omZt6igATSABtAAGkADaAAN5KmB4vLMjSZ7mhtOdvxfBzAG/8OBDAzqeviHnw+8zUsVL+BqIK9gxfAVrDybHhpBI2gADaABNIAG0EBsNTDD6118YeZCkgOowxazZcA8lLF38X95qfb/8JLFlRR1bIsaGOJVQDSABtAAGkADaAANoIGDNfCOlyq5O3PhiM/5ZaMqB39mPh/Yu91pXrJ4JBAIBKIBNIAG0AAaQANoAA2ggRhroE9iu5dM9PRSJ7TnsQ4Osl3OWzZUnyz9itc78X+9PiWvU/QxLnpe/Tr41S/+N5pAA2gADaABNIAGYqCB4iovWfy017v4vzOf87vXa5MzS/CLDmegxxmHeWUdv5W53JsqXg8IAoJoAA2gATSABtAAGkADaEC9BhZ7qZKrvZ4/PtYra9fWYZph6wVlQLwiz4BgsuNxXqp9fy9ZXE3Rqy/6GLyqxTmkjtEAGkADaAANoAE0cJAGNnvJ9g94vUu/nQE/wwF8xTgDRgDmjqGZ270mXvSSCfMQeZ4fyFsggEU0gAbQABpAA2gADaABdzWQ9lKJisz9P3qccLzHWz1jDHzZQu9R8hkvVXyTlyx52/vg+YGAoLtFT8Pm3KEBNIAG0AAaQANoIH4aaPSSiUovWTLT69n+DO/erodnG//5GRn4IAPJDt/wkolHvWTivQ9BkOYRv+bBOeecowE0gAbQABpAA2jAHQ2YCzcG/N70UiW/9vp0+hxoQwbyz0CfRGcvVTzaSyXMjWLMW0NpAuQADaABNIAG0AAaQANoAA1ESwO1XrJkhZdq/5jXN/H/5z/08xdkYP8MPFp6hNer5KdeKvGCl8w8L4S3hUar4GnAnA80gAbQABpAA2gADcRTA2YuX+el2o/zepectv8Iz7/JQOsz0KPkq15Zu3u8ZMmrH1xe5mogV0TRABpAA2gADaABNIAG0EAoGkgV78p8zi9ZfJVX1u7/a/2wzwpkoLkMJNuf4PUp7uUlE0t5WygNL5SGF89X+Hhll/OOBtAAGkADaAANGA2YR7fN9VLt/u716PzF5kZ2vk8G7GegT+ISL1k83EsWrwUCAEE0gAbQABpAA2gADaABNOCrBuq9VGKJ1yeR9Pqc2I7HOtjHG1bMJQOPln7eKyu+0UsmJnrJxDaK3tei51U/XvVDA2gADaABNIAG0EAcNZC5IWPxcK938YW83TMXSOF3/M3AvV0P9Xp3+J5XlvhD5nJ0MlEFCAKCaAANoAE0gAbQABpAA2ig1RrY4SVLJnll7W/2zP04eJi7v1zD6nlmoHfXo7w+xad+8PxA8yB5HhtB02t10+NVzji+yknM6B4NoAE0gAbQgPmc3yuZCyy9/+u/vB7fPizPyZxfJwMBZcC8KtG7+Bgv2f4iL1U80EsmNgBBQBAaQANoAA2gATSABtAAGshJAw1esmS5lyz+p9enuIvXo+QzAU3xHIYMtDIDZe3aemUdv+WVJa71kiXTvGRiL0WfU9Hzih+v+KEBNIAG0AAaQANoIJYaKN7qpYoHeb3an+eVtftyK6dx/pwMhJSBoT860jOPjUgm7vx/7d0JlB1Vve/xX0iYwywGRAQBUeIj0H1q7+pOB2wnFHzgGOcrDhdQnN57az0VLmrj8r57FU1C96n67yIgT5wg6PN69SI8uIpeB8ABJxAQnjIEEAjBECBzXnalr8vQnaS70+f0Oae+tZZL0n36DJ/6nar933tXbZn7rcyvoxCkECQDZIAMkAEyQAbIABkgA8MZCH6lzF2rIj2zHEBZMn/6FLXceVkEJlEgn7ef6l0nKncXyPwDfOE56JMBMkAGyAAZIANkgAxUPANrlae3qnAf01DtWMX7abAh0FECsTdjUTpLmXulzH1d5p+o+Jee6R2VnN7ByZ7vPRkgA2SADJCBimdggyx5SOYWKXNzFQdK2BDoaIF4fWDmDtVF7m0y/3OmhXISqPhJgI4AOgLIABkgA2SADFQnAxvKgZC6e6ls7jNZ1qGjqx4+3AiBS/t3K9czCeknZO4vFAEUgmSADJABMkAGyAAZIAOdmwF3hwp/+ubCr3/GiLYxP0CgMgJFbY9yIfncfalzv/AczNm3ZIAMkAEyQAbIABmoZAaCWylLBsqBj8GTWc+vMkUOH3TbAhs1TbEQjOudmPtlJQ8O1Zn6wDQX9jUZIANkgAyQATJQlQxcpsGu4xRnvrEhgMBWBMqlI9w7lfs/yfwaikF6C8kAGSADZIAMkAEyQAbaJAMbZH61cv9DheTlYsRvKw1+fozAaAKD6bNl7nOyZCmFIAf9NjnoV6U3k89Jzz0ZIANkgAyQgS0zEAu/p8p1r4vk/ar7A0Zr3vIzBBDYnsBA/wxltXkKyTdl/mGZX0shQDFIBsgAGSADZIAMkAEy0DoZcKtk/k8KLlPR+4LtNW/5PQIIjEVg4fH7KiTvUPDfk/llMr++db70HIDZF2SADJABMkAGyAAZqGAG4sDEAwr+SsVlHQZm7zKWZi2PQQCB8QhYz+GbRgH/QZbG9QNXyHwcbmcKAgZkgAyQATJABsgAGSADzcpAHIhYpuCvU/Dv0WC693iaszwWAQQmIpB39yi4uiy9pbzQlgNesw54vA5ZIwNkgAyQATJABqqagQ0KfqUsvXHTAMQnVfQ9ZyLNWP4GAQQmKjB41K6qJ68uh93N3yPz6xgNZDSUDJABMkAGyAAZIANkoAEZWKeQ/qYcgAi+d6LNV/4OAQQmQyD2vgT/Xpm/WsEtZ1ooB/0GHPSr2tPJ56aXnwyQATJABsiAuaUK6eXKk9M0wHp+k9F85zkQmByBuMhmHI43/xOmhVIEUgSSATJABsgAGSADZGAHM/C4gv+ugjtbRe3gyWmw8iwIIDC5ArFXJqu9WMEtkqW37uCXnh4vej3JABkgA2SADJABMlC9DKyW+Ztk6ceVd8+Z3MYqz4YAAo0RuLh3f2XJGxT8V4fXD+TgXb2DN/ucfU4GyAAZIANkgAyMLwMhvV3BXaCsdpKWsKxDYxrqPCsCjRJYMn+6st6jVPizyusDzcfenPEdBHg8XmSADJABMkAGyAAZqEIGHlBIvqjcz1fdH6CNmtaoJirPiwACjRYYPHlXDXUlm9cP9D+jCKQIJgNkgAyQATJABsgAGSgzsHlZh2tl7gzl7ggVtZ0b3TTl+RFAoBkCsRdn4fH7ypJ+BbdQm5eNqEJvFp+RXlsyQAbIABkgA2SADIzMwBoFd7Nyf245UHDBnD2b0STlNRBAoNkCcVpoccLBqqevlrkrZP4xegDpASQDZIAMkAEyQAbIQIUyEPy9KpIFyt2LtKB3fw1op2Y3SXk9BBBotkCcFlqfe5is5wxZOS10LQf+Ch34R/YC0jOKCRkgA2SADJCBzs/AYwr+StWTV2txOksD/TOa3QTl9RBAYKoF4nB/6JqtkH5CsTeo8w98nNzYx2SADJABMkAGyEDVMrBOwf9Owb1L1nuI4kAAGwIIVFggXh94Sd9esqRL5r4s849TCDIaSAbIABkgA2SADJCBjsjAMuXuPF2YPk8LenevcIuXj44AAiME4vzvWAgG99LhaaHrOPB3xIG/ar2cfF569skAGSADZIAMmF+jPL1cRe3YsvBjWYcRTV9+gAAC/ykQC8E4NSD498rc/TK/gUKQQpAMkAEyQAbIABkgA22RgfXl3T2t+yXlQu4Ufv/ZwuX/EUBgTAKD6d4KiQ1PC2VEkB5VelTJABkgA2SADJCB1szAGlmytFzPL971nQ0BBBCYsEDsOcqOdwr+OwpuucxTCLbmgZ8TMvuFDJABMkAGyED1MrBG5h+W+SFl7lAx4jfhJi9/iAACTxeIFw5n/i3K0xuG1w9cz1SQtpgKQmOgeo0B9jn7nAyQATLQ+RmIHfJ/lrlvK3NzVdR2fnrTjX8jgAACkyOwKJ21qfD7pMz/ijuGUgDSCUAGyAAZIANkgAw0NQOxA36ZLP2RQvp2xct12BBAAIGGC8S55YNdx8mSIPN3yvxTHPybevCnZ7fze3bZx+xjMkAGyAAZeHoGVsj8z8v1m+tzD2t4e48XQAABBEYI5PP2kyWvl7krhheSX0shSCFIBsgAGSADZIAMkIHJzIBbJUt/r+AHlTnHdM8RLVJ+gAACTReIFx0H/0Hl/prhC5G5PpBey6f3WvJvMkEGyAAZIANkYHwZWFd2sIf0cuX+Nbpszp5Nb+PxgggggMBWBeLFx9nxx6sorw/8sYJfSe/fZPb+8VzkiQyQATJABshARTKwobzzevDXKKRnq+h7zlbbX/wCAQQQmHKB2DuV1V5c3o7Y0ltkPt6emB4/DMgAGSADZIAMkAEysP0MrJb5nyq485R316a8XccbQAABBMYssDidpcy9TuYvk/lHZX4DhSCFMBkgA2SADJABMkAGRs3ABll6h0KyUHX3Ug3M3mXMbS4eiAACCLSUQNZ7lCz5QLmQPIvI0/O5/Z5PjDAiA2SADJCBamUguOUK7gtlx3ndH9BS7TjeDAIIIDAhgdiLlbnjFdJzZP639PyN2vNXrZMdjRv2NxkgA2SADFQ+A+XdPa9VcGfLeg6fUBuLP0IAAQRaWiDrn1lOawhuoczdTyFIIUgGyAAZIANkgAxUMgPB31x2jMdlHS7t362l22+8OQQQQGCHBDZqmorawcrcqQrJV1lEnhN/JU/8le/1JvfkngyQgapmwN29eT2/2ou1sH9fxXYRGwIIIFAJgYH+GRqce6Ry//cy/xNOhFU9EfK5yT4ZIANkgAxUIgN/kfkryw7w2BG+ZP70SrT3+JAIIIDAFgKbRwP3UN49p7zdsbm7OQlW4iTIdS+MAJIBMkAGyEB1MhDSGzYt6P6esuN7CXf33KItyD8QQKCiAgPaSUVtH2VuroK/WOZXUAhSCJIBMkAGyAAZIAPtnYE43TM9X/XjXqiitgfTPSvazuVjI4DANgTidIg4Hz5PTpO577OIPCf+9j7xs//Yf2SADJCBimbgsXId5OB7FW+AFzu62RBAAAEEtiFQXh/YdaDMn1Uuiso0mepMk2Ffs6/JABkgA2SgfTOwVsHfoHpyii6YsyeF3zbaevwKAQQQGFUg9pjl7giFZFDmHpL59RXtSaQx0L6NAfYd+44MkAEy0PkZWCfzfypvbBcvaeHOnqM26/ghAgggMD6Bei2V+W8ruOUUgkwpoiOADJABMkAGyEALZCAWfg8q95/X4nTW+Bo2PBoBBBBAYGwCwb9D5m6U+Xg7ZXpVMSADZIAMkAEyQAaanYE4I2mZzF+notY9tgYMj0IAAQQQmLhANnumitrHZekfZP4JCkEKYTJABsgAGSADZKApGYgzkYL7hQp/+sQbMvwlAggggMDEBLKeY2RusczdJfOrm3Lgp5e12b2svB6ZIwNkgAyQganPQPArFfzvZOnHNdh14MQaLvwVAggggMCOCxS1nZUnJyv3/yrz98l8nI8/9ScK3gP7gAyQATJABshAJ2QgdjDfVnY4D9WOVVyyig0BBBBAYIoF4t22FtYOVpG8X8FdJ/MPUwRSBJMBMkAGyAAZIAM7kIHYoXyf8vQbCukp5ULuU9zc4eURQAABBJ4uEEcD68e9UKF2vsz/TOZX7MCBvxN6LfkM9L6TATJABsgAGRh/BpYp+Gtk7kOy3kOe3tzg3wgggAACrSaQ9c+Udb9E5i6UpbdyfSA9wHQEkAEyQAbIABnYbgbidX6W3ihLP6U43XOgf0arNXF4PwgggAAC2xKwuc9UPXmzzH9Z5u/h+kBO/ts9+Y+/l5iedczIABkgA+2fgTWy9PcKblHZgRzvNs6GAAIIINCmArH37sL0eQr+vTJ/NdNCKQIpAskAGSADZIAMDGcgruf3QNlRPJS+XrHjmA0BBBBAoEMELu3fTZZ4FenHZf6XTAvl5E8DkAyQATJABiqdgSdk7moV7n2q+6M7pLXDx0AAAQQQGCGQz9uvnN4R/Odl7n6Z30ADoNINAKZutf/ULfYh+5AMkIHxZGCdzP2y7BDOu2ta0Lv7iLYCP0AAAQQQ6ECBonawMvc65ckXZW4VRSBFIBkgA2SADJCBjs/Ag+V1flltni7u3b8DWzd8JAQQQACBbQrE6wNzd4QuSv9Olv6IE3/Hn/jH00PMYxlRIANkgAx0TAbckwpuiTJ3qob6nrXNtgG/RAABBBCogMDgybuq3vdChZ6PKncPUQhSCJIBMkAGyAAZ6JQMpL+QuXdqcO6RLOtQgTYdHxEBBBAYl0BR20f1Wirzl8jcE5z8O+Xkz+cgy2SADJCBymUguHsV0k8o756jorbHuNoDPBgBBBBAoEICA9qpvA10npys4K+p3AmzY6b70Ngju2SADJCBambAPSVLLinv/D2Y7q14XmdDAAEEEEBguwLx+sDihIMV/Htk7o5qnkRpPLHfyQAZIANkoJ0ykF6rvPYq1f0BWjJ/+nbP9TwAAQQQQACBEQKxEFzsnytz/6TgltMQaKeGAO+VvJIBMkAGqpGB9A6F9OxyBg+F34imDD9AAAEEEJiIwEZNU73WXd5FzPwKmV9fjZMqjSf2MxkgA2SADLRkBtbL3FKF5LOynsMVz9NsCCCAAAIITLrA4FG7qu7eqJDeIPPxRjEUglw3yK3iyQAZIANkoHkZWCfzyxTcvyr3J0z6eZ4nRAABBBBAYFSBuJB84c+V+d/K/JMyv4Ee4pbsIaZR1rxGGdZYkwEy0MgMxPNsnIHzU+X+rVrQu/uo52d+iAACCCCAQEMFhmrHynyQubtkfjVFIEUgGSADZIAMkIFJz8CTsvTXCrXzyxu8NPTEzpMjgAACCCAwFoE8OU3BfUPm72M0cNJP/I3sUea5GbEgA2SADLRuBtbK0juUuy8o6zlmLKdjHoMAAggggEDzBOJCs4U/S5Z+v7w+oXVPqDR22DdkgAyQATLQ4hlw98vct5T7VzXvRM4rIYAAAgggMBGBovYcWfopmf/l8PWBLX6SZcSO6VpkgAyQATLQMhl4VMH/QMH/D8WF3NkQQAABBBBoC4EB7aS6e6lyV8jS38v8WhoXLdO4oCBn5IMMkAEy0HoZeEqW3qgi+bRC12wWcm+L1g5vEgEEEEBgC4G4JtGC3v2VuTcpJF+V+XsoAikCyQAZIANkgAxskYHYQXqbzGXK0hfr0v7dtjiX8g8EEEAAAQTaTmDJ/OnlIrXBnS3zV8v8I5z8tzj50xPfej3x7BP2CRkgA03IgFsq85cp82/h7p5t17rhDSOAAAIIbFcgrllUr3VvXj8w/TnTQikC6QggA2SADFQyA8Etl6XXqnAfUu6OYLrndlsQPAABBBBAoK0FFvbvqyH/Cpm7UObvrOTJn571JvSs07Dmu0UGyECrZcCtKm+QVtQ+rsw5Zf0z2/p8zptHAAEEEEBgzAJxWuhQ37OUpW9QSC9nWmirNVJ4PzScyQAZIAOTmIF1MvfHsuMzq53EdM8xtxZ4IAIIIIBAxwksmb2L6v5oWc8ZMnc9y0bQ4JrEBhejjIw0kwEy0AoZeKy8EVrmXqfB9NlM9+y4lgwfCAEEEEBgQgKXzdlTQ7VjNxWAH5ElcVroegoBikEyQAbIABlo4wysVnA/KDs4i7lHKnZ4siGAAAIIIIDA0wTi9YGZm6s8+bzMr2jjE38r9DrzHhj9IANkgAxMSQaShxTSc5T3PZ/r/J52nuefCCCAAAIIjBCIi8gXtWeUC8mb/zdGAxkBoCOADJABMtA+GXC5Bo/zKmr7jDi/8QMEEEAAAQQQ2IbAQP8MLUpnKfdvVe7ub5+TPw019hUZIANkoHIZyP0PlaUn6eLe/RU7MtkQQAABBBBAYIIC8bqJeMfQ4D+r4FZWrlExJdOXaLySMzJABsjA2DLg7lKRnKnF6SzFjks2BBBAAAEEEJgkgcGTdx2+UcwVMr9hbCdmGjA4kQEyQAbIwKRnYEPZIVkknynv7EnhN0knep4GAQQQQACB0QTiiGBIXi5zN8rKRXUpBhkl5EYXZIAMkIFmZCDeofpJmf+yBruOY8RvtJM0P0MAAQQQQKBRAvE6i8J/QHl6+/AJmUKQBmAzGoC8BjkjA9XLQDy/PC5LY8fjG1XU9mjUqY3nRQABBBBAAIHtCZQLybsLZe6PwyOCNM6q1zhjn7PPyQAZaEQGYuH3hCy9Vbk/V0Xt4O2dkvg9AggggAACCDRDYGD2LspqJyn4b8r8AzK/lmteJv2al0Y0rnhOGu1kgAy0aAbiJQbpHxRcIUu6mnEq4zUQQAABBBBAYLwCcf1Ac2co+Otk/hHWEKQIpCOADJABMjDODKzbdB5ZKnNfVz05RYNH7TreUxGPRwABBBBAAIFmC2S9R2064X9S5m9S8HHpCK4PZJShRUcZaJyPs3HOfuS73KgMxDt7Lpf5f1dwZ2th/77NPnXxeggggAACCCCwowJ1d6JCMihLb2FaKIUGhQYZIANkYPQMlNM9fy7r+bRC1+wdPfXw9wgggAACCCAwlQID/bvJktfL/FcU/L2jn/xpFOFCBsgAGahmBtI7ZMmQ6snLp/JUxWsjgAACCCCAwGQLZO4gFcmZsvT/yvyKajZ0aOCy38kAGSADwxl4QOau0EXubYodhWwIIIAAAggg0KECeXdNlgwopDfI/GoagzQGyQAZIAOVykBcz+8qFcn7VZ97mDZqWoee7fhYCCCAAAIIIPBXgWz2TOXuZSqSBTJ/G42/SjX+GnUDCZ6Xm5OQgdbOwBpZ+vNN14P/Q7msQ1Hb+a/nBP4DAQQQQAABBCogMKCdtDidpSx5g8x/WebupxCkECQDZIAMdGQG7pS5C2X+Fcr6Z1bgDMdHRAABBBBAAIGtCsRe4LhsxEXpuxX8NcPLRtCT39o9+ewf9g8ZIANjyIB7SCG9XJl7k6z3EC2ZP32r5wJ+gQACCCCAAAIVEyhqe6he61bwH1Vwv5D5NYwEdORIwBgajXxusk8G2jwDTyr315c3/qr7o3UpN3mp2Bmdj4sAAggggMAYBeK00Hzefspq8zZPF2JaaJs3Ain2GCUiA9XKwFqZv0W5O6/s0GO65xhPfjwMAQQQQACBqgvEaUJx2YjMnarg/0XmH6cQYkSEDJABMtDKGXAPlev5WdKnBb37K3bosSGAAAIIIIAAAuMSWDJ7Fw31PUuFP13mfy3z62gAtnIDkPdGPsn9aRDpAAAUXUlEQVRA9TLgVsn8v5cddkXtGVznN66zHA9GAAEEEEAAgVEF4vUjg7UjFdJzZP7h6jWwaFSzz8kAGWi5DGyQJXcr+Pdo8IQDFTvs2BBAAAEEEEAAgUkTiIsFx0IwdM3evGwEi8jTIG65BjHXu1Xrercq7++1ymvnK3OHUvhN2lmOJ0IAAQQQQACBUQViITjQP0PBnShzNzItlCKIQpgMkIGmZGDDpkXc401evq2L/NFM9Rz1DMUPEUAAAQQQQKChAvEmA0X63xTcvbLyOpQq98jz2Rl9IgNkoBEZiIXfUzJ3k/Laq8oOuIYe2HlyBBBAAAEEEEBgWwJxRHBB7yEKbqHMPyhjaiijIU0ZDWlEQ5vnpIBrtQw8KXN3bRr5+wct7N93W4difocAAggggAACCDRXIE4LrdfS4WUjHmBqKEUQhTAZIAMTzsDqTTd3uVfmc2U9xzDds7mnM14NAQQQQAABBMYjcEnfXsr8W2T+B8N3DF1PI3DCjcBWG43g/TBCRgYam4F1Mre07EjLaieVN94az/GXxyKAAAIIIIAAAlMmEO9OV/hzh28U8xhFIEUgGSADZGCrGYgdZY/I0u/Les5Q3R8wZcduXhgBBBBAAAEEEJiwQJwWmnfXVPgFsvSWzTcy2GoDiJGFxo4s4IsvGWjNDDwh8z+TJQPK+54/4eMtf4gAAggggAACCLSMQFHbQ5k7dXj9wHu4PpAimJEgMkAG/GqF9HYFV8i6X6IBFnJvmXMWbwQBBBBAAAEEJklgMH22zJ8lS6+S+WUyH29vzqgEBmSADFQpA+tl7n4F/1VZ8mZd3Lv/JB1heRoEEEAAAQQQQKBFBSzpUuE+Jkt/xPqBFMB0ApCBCmXgcQV/jUJ6tqzn8BY9QvO2EEAAAQQQQACBBgjE6U5Z7cUK7gJZ+nuZ526hjAJVaRSIz1q9vN9UdnxlzjXgiMpTIoAAAggggAACbSIQpz/Vk1cruItk/tEKjQRQAFSvAGCfV3Of/1EhWajcvYzr/NrkvMTbRAABBBBAAIEmCBR9z1FI315OjzL3FIUg0wLJABlo8ww8puCXKEveoMGuA5twFOUlEEAAAQQQQACBNhMY0E6K1wda8gGF9Bdt3vhjtKeaoz3s98rvd7dKwX9Pwb9XWc8xWjJ/epsdiXm7CCCAAAIIIIBAkwUumLOn6u5EBbdQ5v9IIchIEBkgA22Sgd8qpOcodCWKx7GNmtbkoycvhwACCCCAAAIItKlA7DXP3EHKk5OVp5fL/F/apAHICFDlR4Ao1ir4Xb1PwWWypF/5vP0UZzOwIYAAAggggAACCExAYMnsXTTkn6vCny5z18v86go2LikqKSrJQGtmYLWC+67y5DQtTmdpoH/GBI5y/AkCCCCAAAIIIIDAFgJxGtWC3t2V9z1fhf+fCuntFIGMMpEBMjClGQjpb1QkZ5br+cWOKjYEEEAAAQQQQACBSRaIhWBR20NxHa2QmMw9NKUNwNYckWCkiP1CBhqbgQdl/jOq+6N1af9uXOc3ycd5ng4BBBBAAAEEEBghEK+viQ2vrHaS8vRamWfZiMY2eCko8CUD5p9QcN+QJV6DJ+9K4TfiyMwPEEAAAQQQQACBBgvEEcFs9szN1wf6X3F9IFMCGREmA5Ofgbisg7u5vCEVN3dp8EGdp0cAAQQQQAABBMYqEG/AEKdlmVsq82smvxFIwxpTMlCxDMQbTt2zeT2/2TPHeijicQgggAACCCCAAALNFMjc8QpuiczH63TWV6zByjQ9pmqSgR3PwFqZf0DBfUlF7eBmHr54LQQQQAABBBBAAIGJCsTbspu7UeYfpghk5IoMkIExZCB2GP1Z5q9T3n0C1/hN9ODL3yGAAAIIIIAAAlMlsKB3fwX3YVn6axaSpwAYQwHA6NmOj561q+EjMvdjFf6s8k7DU3XM4nURQAABBBBAAAEEdlBgyfzpKnpfoOAWKvjfyfyTFAIUg2SADJQZCH6lgr95039/UvW5h4mbvOzgAZc/RwABBBBAAAEEWkWgXEjevUzBXSrzd8r8OooAigAyUNkMrJalt8qSoHotFQu5t8qRmveBAAIIIIAAAghMskDdH6Dg3yFz3x6+UUy7TlnjfVd3uiL7fuL7ft3wnYKvlPnXajDde5KPMDwdAggggAACCCCAQMsJxGmhed/zN00H/YhC+h8y/zgjQZUdCaKYmngx1V52wS2Xuatl7kPK3REtd1ziDSGAAAIIIIAAAgg0WODS/t2U1eap8J9RSH/D+oEUgXQEdGQG4nW/N8mSAeXdNQ30z2jwkYWnRwABBBBAAAEEEGhpgXzefsrcqTK/WMHfy/qBHVkEtNdoVVVG5Rr7OeN1vneq8AuUu5cx3bOlj8K8OQQQQAABBBBAYAoE4l0AL0r+Tua+LvMrGA2iECQDbZmBDTK3TOa/orp/rTJ30BQcTXhJBBBAAAEEEEAAgbYQiNPD6n0vVOHeN7yQ/FqKgLYsAhjxa+zoWqv6rlNw16lIziyv822Lgw5vEgEEEEAAAQQQQGDqBcplI7p7FNJzlPv7KAIpAslAy2fgVoWe82RJl+L3lw0BBBBAAAEEEEAAgXELLOzfV3V3ooK/WOaeoAho+SKgVUemeF+NGpHM/SMynytzcxWv52VDAAEEEEAAAQQQQGCHBQbTZyuvvUbB/YAikCKQDLRCBtyTMvd/NJScJus9RBs1bYe/5zwBAggggAACCCCAAAJ/FRiYvYvq/mgF/0FZchtFQCsUAbyHSuYwpDcouHdpyD9X8XvJhgACCCCAAAIIIIBAQwTiKMMFc/ZU3j1H5j6n3Me7DTK9DwMy0JQMuPtVJJ9W6JpdXufHqF9DDnM8KQIIIIAAAggggMDTBQa003AheILMfVvmn6IQpBAmA43KgFslc1+TJV5FbQ/F7x8bAggggAACCCCAAAJNF4gN0c/07aW6e6OCv5kCoFEFAM9b0WxtkPkfK09OKxdyp/Br+iGOF0QAAQQQQAABBBDYmoDNfaYs+Ygs/YPMx/UDY+OVqYEYkIHxZSB+b9bI/G3l9bbxTrxsCCCAAAIIIIAAAgi0rEC8Pil3hcwtHW7IUgCMrwDAq7pea2Tubpm7UFnvUS37HeeNIYAAAggggAACCCAwQqCenCJzV8ncQzK/ntFARkPJwFYzEL8ffy6vpx1K+kZ8l/gBAggggAACCCCAAAJtIVD3B6hw75P5mxTccqaFbrUAYNSvuqN+j8n8T2Xpu8sbvLTFF5s3iQACCCCAAAIIIIDAtgSK3hfIkn9USH/DHUMpAhkJjBlwqzbfOMn9kwZPOHBbXx9+hwACCCCAAAIIIIBAewrU3YnK/Rdl/s7hG8Uw8lXdka+q7vu1CuntMn9ZuZ5me36TedcIIIAAAggggAACCIxRIJs9U7l/q0LyTZm/j9EgRgSrk4HyBi9fV5a+QUVt5zF+Y3gYAggggAACCCCAAAJtLrBR05S5QzddF/hhWfp9mV9WnSKAgq+C+/pRmb9a5t6nReksxfyzIYAAAggggAACCCBQOYEls3dR3l2TJQMy/zOZf7KCxUFVp0JW4XM/JUtvlKWfUlweZaB/RuW+43xgBBBAAAEEEEAAAQRGCFzSt5cy90rlri5L76AIZJSwzTOwdjjHQ8rdyxTzzYYAAggggAACCCCAAAJ/IzCgnTTU9yxd5N6m4K8cXj+wCqNEfMbOuhHOgwruS8rcm5S5g/4m4fwnAggggAACCCCAAAIIjBCIN8fIeo5R8B9U8N9T8CvbfDSIAq+zCryt7c8VCv4aBf9ehfR5WjJ/+ohs8wMEEEAAAQQQQAABBBDYikDWP1OZcwruPJm/VebXUQgyNbQFM7BG5n+l0PNR1WvdLOa+le8zP0YAAQQQQAABBBBAYEwCdX9AeR2VuQuZFkoB2EIF4HqZu1+WDGmo+yXK5+03pjzzIAQQQAABBBBAAAEEENiOQJxOF68PzJPTZP5fuFsoheDUFoJuVXmdapnH3kOY7rmd7y+/RgABBBBAAAEEEEBgQgLx+sAh/1yZe6eCu1nm109tIUAhVj1/d6OCf4/qcw9TXMaEDQEEEEAAAQQQQAABBBossKB3d+XuCAX/UVnyePWKEArPKdjnD25er7LncK7za/D3m6dHAAEEEEAAAQQQQGBUgQvm7KnB47pk7qIpKAi2djdIft5Jd/0MbqVy9wUNdSWs5zfqt5AfIoAAAggggAACCCDQRIG4fuBgurey2knl3Rg7qfjgs0xtMZ2nNygkp6io7aOYMzYEEEAAAQQQQAABBBBoEYHYQL+4d38V7n3K490ZuT6QUdEJTZWNd/e8S4X/gIraMyj8WuT7zdtAAAEEEEAAAQQQQGCrAkXfc1QuG5E8JPNrKYQmVAhN7ehb80c/18qSh1QkCxTzw4YAAggggAACCCCAAAJtJBDvGJq5uTL3dZl/lIXkKQK30hEQOwhiPq5QvatXMTdsCCCAAAIIIIAAAggg0KYCWf9MBfd2mf+hglvO1FAKweFCcP1wHq5X5t7GDV7a9PvN20YAAQQQQAABBBBAYFQB6z1Eec95Cj6uHxiXjtiwlRGhqk19rNrn3aDgVyqkv1Dhz1XmDh01L/wQAQQQQAABBBBAAAEEOkAg+ETmcll6q8yvpgis1IjgGpm/TeYWK097OiDNfAQEEEAAAQQQQAABBBDYrsBA/26q+/+q4K+U+fuYFtrxReAGmVta7u/cv0Zx/7MhgAACCCCAAAIIIIBAxQQyd5CK5P0yf7XMP8ZoYEcWgo/L0qs2Xe/3YeXz9qtYwvm4CCCAAAIIIIAAAgggMEIgdM3eVPx9UuZ/xrTQjikC18jSG2U9n1Yx98gR+5wfIIAAAggggAACCCCAQMUF6snLFdwihfR2RgPbuRBMb1FIBlV3L9VGTat4qvn4CCCAAAIIIIAAAgggsFWBz/TtJUverOC+JHP3Uwi2VSH4oMx9Tbmfr4XH70vxt9WU8wsEEEAAAQQQQAABBBD4q8CS+dNlPYerSM5U8N8ZXjaiassltM/njcs6xOs4gztbWe9RGuif8dd9yX8ggAACCCCAAAIIIIAAAmMSGDx5Vw3OO07mPzJ8fWBcRqB9CqPOf69rFNzNyv25qte6taB39zHtVx6EAAIIIIAAAggggAACCGxVYDDdW7l7kYL7Z4X0/1EEtkIR7O6Wuc/Jul+ihf37bnXf8QsEEEAAAQQQQAABBBBAYNwCA9pJi9JZytypMn+ZzD9CITglheCj5XV+5l+ronaw4n5hQwABBBBAAAEEEEAAAQQaIrBk9i6qzz1MF6XvVp7+h8w/RSHYjELQrSq9C3+6hvxzFfcDGwIIIIAAAggggAACCCDQFIEL5uwpm/NfyuvPgo/LRqyjEGxIIbhe5u5SSD+hodqxKmp7NGX/8iIIIIAAAggggAACCCCAwBYCcfphvD4wdCUKrq7gllMETmoR+LiCK2SJV1Hbh+meW6SPfyCAAAIIIIAAAggggMCUCMRlI8pC0L1S5q6S+dUUgjtUCK5TcNcpr72qLPyiLxsCCCCAAAIIIIAAAggg0FICsVCJU0ODe5fM30kROKEi8F6ZO6N0pPBrqXjzZhBAAAEEEEAAAQQQQGA0gY2apgW9+8vST8ncw1wfuN1CMF7n94hy98/K3EGKfmwIIIAAAggggAACCCCAQFsJxEIm6zlG5v63zP9F5tcyKrhFMRhvnLNCefotZe54MeLXVvHmzSKAAAIIIIAAAggggMBoApf276bgTlVw3x2+UUzV7xi6YXNB7H4kc2/UZXP2HI2NnyGAAAIIIIAAAggggAAC7StQ9wfI3IeU+5uGRwQ3VnBEcIXM36LCfUyL0lntuzN55wgggAACCCCAAAIIIIDA9gQG+mdosGu2zH1Olv5B5p+sSBH41OYb47gLlXfPUXRgQwABBBBAAAEEEEAAAQQqIbCgd3fVk5fL/Jdl/k8yv6ZDC8H4ue5RSC9XPT2FhdwrkW4+JAIIIIAAAggggAACCIwqMHjCgSr86bL0WzL/Z5lf3yGFYLzOb5nMX63C/70WM91z1P3PDxFAAAEEEEAAAQQQQKCCAoNzj1RIz5G568s7Y9oWd8tst2sF47TWnyjUztdQ7dgK7k0+MgIIIIAAAggggAACCCCwHYGB2bvIEq/gPyvzv5L51W02GrhOIb1dwS1S7l6k+HnYEEAAAQQQQAABBBBAAAEEtiGQ9c9UVi4bUcjc3W0yLfRhBfcFZe5NuqRvr218On6FAAIIIIAAAggggAACCCAwQmCo71kK7u0y97XWvVuoWyXz/ybzZ8l6DxnxGfgBAggggAACCCCAAAIIIIDAOATyvufLkv+u4K9rqSmhIb1BwX9UlnSN49PwUAQQQAABBBBAAAEEEEAAgW0KDB616+brA9PzZenvp7YQdHcrJAs1lPSzrMM29xq/RAABBBBAAAEEEEAAAQQmKLBR05TP209D/hUyH2T+sSYXgn+R+a/I/GtV1A7WgHaa4CfhzxBAAAEEEEAAAQQQQAABBMYksGT+dGXuUGX+LbL0Kll5HV4jl4qIdyP9oUL6LuXzjlBR23lM75MHIYAAAggggAACCCCAAAIITJLA4Mm7Kus5RkXyfpn/ZWNGA91Shdr/Ur3WzXTPSdpvPA0CCCCAAAIIIIAAAgggMCGBOC00LhsR5h2n4D4s8z+V+TU7XAwGv1K5/47qyatV9wcw3XNCe4c/QgABBBBAAAEEEEAAAQQaIBCvx7tgzp7lUgyZe53MfUvm4zV7450aukzmrlDdv1aL0llawmLuDdhbPCUCCCCAAAIIIIAAAgggMEkC8Rq9hf37aqgrKZdpyL0p+O8puN/I/Nq/KQo3yNzDMne9zC1W7t8q6zlcRW0frvObpH3B0yCAAAIIIIAAAggggAACTRGIo4KxGIzXCi7o3b28hi9OF43XDZb/659ZjhrG38XHDPTPUJxSyoYAAggggECHCvx/b/siQ34HqZUAAAAASUVORK5CYII=;" parent="1" vertex="1">
                    <mxGeometry x="80" y="601.5" width="23.63" height="27" as="geometry"/>
                </mxCell>
                <mxCell id="133" value="" style="rounded=1;whiteSpace=wrap;html=1;fillColor=none;dashed=1;" parent="1" vertex="1">
                    <mxGeometry x="447.5" y="224" width="180" height="170" as="geometry"/>
                </mxCell>
                <mxCell id="134" value="Cache / Broker" style="shape=cylinder3;whiteSpace=wrap;html=1;boundedLbl=1;backgroundOutline=1;size=15;verticalAlign=top;" parent="1" vertex="1">
                    <mxGeometry x="518.5" y="242" width="85" height="108" as="geometry"/>
                </mxCell>
                <mxCell id="136" value="htz33es" style="sketch=0;html=1;dashed=0;whitespace=wrap;fillColor=#2875E2;strokeColor=#ffffff;points=[[0.005,0.63,0],[0.1,0.2,0],[0.9,0.2,0],[0.5,0,0],[0.995,0.63,0],[0.72,0.99,0],[0.5,1,0],[0.28,0.99,0]];verticalLabelPosition=bottom;align=center;verticalAlign=top;shape=mxgraph.kubernetes.icon;prIcon=pod;fontSize=10;" parent="1" vertex="1">
                    <mxGeometry x="458.5" y="278.75" width="35" height="34.5" as="geometry"/>
                </mxCell>
                <mxCell id="137" value="" style="sketch=0;aspect=fixed;html=1;points=[];align=center;image;fontSize=12;image=img/lib/mscae/Cache_Redis_Product.svg;" parent="1" vertex="1">
                    <mxGeometry x="542.55" y="303" width="36.9" height="31" as="geometry"/>
                </mxCell>
            </root>
        </mxGraphModel>
    </diagram>
</mxfile>